<?xml version="1.0" encoding="UTF-8"?> <svg xmlns="http://www.w3.org/2000/svg" xmlns:xlink="http://www.w3.org/1999/xlink" width="90px" height="90px" viewBox="0 0 90 90"><!-- Generator: Sketch 55.2 (78181) - https://sketchapp.com --><title>accuracy</title><desc>Created with Sketch.</desc><g id="Page-1" stroke="none" stroke-width="1" fill="none" fill-rule="evenodd"><g id="Artboard" transform="translate(-983.000000, -1920.000000)" fill-rule="nonzero"><g id="accuracy" transform="translate(983.000000, 1920.000000)"><path d="M3,3 L13.5,3 L13.5,0 L1.5,0 C0.671572875,0 0,0.671572875 0,1.5 L0,13.5 L3,13.5 L3,3 Z" id="Path" fill="#3455D1"></path><path d="M88.5,0 L76.5,0 L76.5,3 L87,3 L87,13.5 L90,13.5 L90,1.5 C90,0.671572875 89.3284271,0 88.5,0 Z" id="Path" fill="#3455D1"></path><path d="M3,76.5 L0,76.5 L0,88.5 C0,89.3284271 0.671572875,90 1.5,90 L13.5,90 L13.5,87 L3,87 L3,76.5 Z" id="Path" fill="#3455D1"></path><path d="M87,87 L76.5,87 L76.5,90 L88.5,90 C89.3284271,90 90,89.3284271 90,88.5 L90,76.5 L87,76.5 L87,87 Z" id="Path" fill="#3455D1"></path><polygon id="Path" fill="#3455D1" points="0 43.5 3 43.5 3 46.5 0 46.5"></polygon><polygon id="Path" fill="#3455D1" points="87 43.5 90 43.5 90 46.5 87 46.5"></polygon><path d="M4.5,40.5 C6.98528137,40.5 9,38.4852814 9,36 C9,33.5147186 6.98528137,31.5 4.5,31.5 C2.01471863,31.5 0,33.5147186 0,36 C0,38.4852814 2.01471863,40.5 4.5,40.5 Z M4.5,34.5 C5.32842712,34.5 6,35.1715729 6,36 C6,36.8284271 5.32842712,37.5 4.5,37.5 C3.67157288,37.5 3,36.8284271 3,36 C3,35.1715729 3.67157288,34.5 4.5,34.5 Z" id="Shape" fill="#3455D1"></path><path d="M85.5,49.5 C83.0147186,49.5 81,51.5147186 81,54 C81,56.4852814 83.0147186,58.5 85.5,58.5 C87.9852814,58.5 90,56.4852814 90,54 C90,51.5147186 87.9852814,49.5 85.5,49.5 L85.5,49.5 Z M85.5,55.5 C84.6715729,55.5 84,54.8284271 84,54 C84,53.1715729 84.6715729,52.5 85.5,52.5 C86.3284271,52.5 87,53.1715729 87,54 C87,54.8284271 86.3284271,55.5 85.5,55.5 Z" id="Shape" fill="#3455D1"></path><polygon id="Path" fill="#3455D1" points="81 37.5 90 37.5 90 40.5 81 40.5"></polygon><polygon id="Path" fill="#3455D1" points="81 31.5 84 31.5 84 34.5 81 34.5"></polygon><polygon id="Path" fill="#3455D1" points="87 31.5 90 31.5 90 34.5 87 34.5"></polygon><polygon id="Path" fill="#3455D1" points="0 49.5 9 49.5 9 52.5 0 52.5"></polygon><polygon id="Path" fill="#3455D1" points="0 55.5 3 55.5 3 58.5 0 58.5"></polygon><polygon id="Path" fill="#3455D1" points="6 55.5 9 55.5 9 58.5 6 58.5"></polygon><path d="M77.9625,46.5 L84,46.5 L84,43.5 L77.9625,43.5 C77.1230264,25.9060654 62.6139504,12.0727663 45,12.0727663 C27.3860496,12.0727663 12.8769736,25.9060654 12.0375,43.5 L6,43.5 L6,46.5 L12.0375,46.5 C12.8769736,64.0939346 27.3860496,77.9272337 45,77.9272337 C62.6139504,77.9272337 77.1230264,64.0939346 77.9625,46.5 Z M45,15 C60.9680023,15.0268106 74.1190558,27.5522514 74.9235,43.5 L72,43.5 C71.3865825,43.4995294 70.8346912,43.8726056 70.6065,44.442 L66.078,55.7655 L59.898,38.4945 C59.6720283,37.8664373 59.0582356,37.4632508 58.392084,37.5052979 C57.7259324,37.547345 57.1677069,38.0245088 57.0225,38.676 L52.731,58.026 L46.4685,19.26 C46.3534688,18.5486319 45.7488424,18.0195838 45.0285,18 C44.313023,17.9930266 43.6890334,18.4847304 43.5285,19.182 L37.482,47.01 L32.9595,26.6745 C32.8082674,25.9883971 32.201076,25.4991877 31.4985055,25.4973881 C30.7959351,25.4955885 30.1862455,25.9816808 30.0315,26.667 L23.604,54.9705 L19.3935,44.442 C19.1653088,43.8726056 18.6134175,43.4995294 18,43.5 L15.0765,43.5 C15.8809442,27.5522514 29.0319977,15.0268106 45,15 L45,15 Z M45,75 C29.0319977,74.9731894 15.8809442,62.4477486 15.0765,46.5 L16.9845,46.5 L22.6065,60.558 C22.8535254,61.1661304 23.4637484,61.546309 24.1185,61.5 C24.7748045,61.4506349 25.3222683,60.9792077 25.4685,60.3375 L31.479,33.84 L36.036,54.3255 C36.1885318,55.0116623 36.7970885,55.4998794 37.5,55.5 C38.2046085,55.4984004 38.8131244,55.0065947 38.9625,54.318 L44.769,27.567 L51.0195,66.24 C51.1343144,66.9502859 51.7373008,67.4790005 52.4565,67.5 L52.5,67.5 C53.2033624,67.4997233 53.8120738,67.0107584 53.964,66.324 L58.8255,44.4 L64.5885,60.5055 C64.7983879,61.0925616 65.3495285,61.48859 65.9728729,61.5002569 C66.5962172,61.5119237 67.1617912,61.1367965 67.3935,60.558 L73.0155,46.5 L74.9235,46.5 C74.1190558,62.4477486 60.9680023,74.9731894 45,75 L45,75 Z" id="Shape" fill="#4DAF51"></path><path d="M4.701,21.8175 L7.299,23.3175 C11.1294071,16.6895037 16.628852,11.1802328 23.25,7.338 L21.75,4.7415 C14.6733243,8.84700654 8.79530315,14.7343365 4.701,21.8175 L4.701,21.8175 Z" id="Path" fill="#3455D1"></path><path d="M7.338,66.75 L4.7415,68.25 C8.84700654,75.3266757 14.7343365,81.2046969 21.8175,85.299 L23.3175,82.701 C16.6895037,78.8705929 11.1802328,73.371148 7.338,66.75 Z" id="Path" fill="#3455D1"></path><path d="M85.299,68.1825 L82.701,66.6825 C78.8705929,73.3104963 73.371148,78.8197672 66.75,82.662 L68.25,85.2585 C75.3266757,81.1529935 81.2046969,75.2656635 85.299,68.1825 L85.299,68.1825 Z" id="Path" fill="#3455D1"></path><path d="M82.662,23.25 L85.2585,21.75 C81.1529935,14.6733243 75.2656635,8.79530315 68.1825,4.701 L66.6825,7.299 C73.3104963,11.1294071 78.8197672,16.628852 82.662,23.25 L82.662,23.25 Z" id="Path" fill="#3455D1"></path><polygon id="Path" fill="#3455D1" transform="translate(8.997000, 9.000000) rotate(-45.000000) translate(-8.997000, -9.000000) " points="7.49722652 6.8793203 10.4967735 6.8793203 10.4967735 11.1206797 7.49722652 11.1206797"></polygon><polygon id="Path" fill="#3455D1" transform="translate(8.989500, 80.992500) rotate(-45.000000) translate(-8.989500, -80.992500) " points="6.8688203 79.4927265 11.1101797 79.4927265 11.1101797 82.4922735 6.8688203 82.4922735"></polygon><polygon id="Path" fill="#3455D1" transform="translate(80.982000, 81.000000) rotate(-45.000000) translate(-80.982000, -81.000000) " points="79.4822265 78.8793203 82.4817735 78.8793203 82.4817735 83.1206797 79.4822265 83.1206797"></polygon><polygon id="Path" fill="#3455D1" transform="translate(80.989500, 9.007500) rotate(-45.000000) translate(-80.989500, -9.007500) " points="78.8688203 7.50772652 83.1101797 7.50772652 83.1101797 10.5072735 78.8688203 10.5072735"></polygon></g></g></g></svg> 