<?xml version="1.0" encoding="UTF-8"?> <svg xmlns="http://www.w3.org/2000/svg" xmlns:xlink="http://www.w3.org/1999/xlink" width="98px" height="90px" viewBox="0 0 98 90"><!-- Generator: Sketch 55.2 (78181) - https://sketchapp.com --><title>embedded-apps</title><desc>Created with Sketch.</desc><g id="Page-1" stroke="none" stroke-width="1" fill="none" fill-rule="evenodd"><g id="Artboard" transform="translate(-566.000000, -574.000000)" fill-rule="nonzero"><g id="embedded-apps" transform="translate(566.000000, 574.000000)"><path d="M78.5508077,31.1493899 C80.5657449,31.1398667 82.3060983,29.7375847 82.7425755,27.7710566 C82.931451,26.9219103 83.6821918,26.3163974 84.5519717,26.3124295 L89.8976263,26.3124295 C90.497584,28.162299 92.3538023,29.3011074 94.2750953,28.9979543 C96.1955947,28.6940074 97.6105743,27.0385688 97.6105743,25.0934678 C97.6105743,23.1483669 96.1955947,21.4929282 94.2750953,21.1889814 C92.3538023,20.8858283 90.497584,22.0246367 89.8976263,23.8745062 L84.5519717,23.8745062 C82.5370344,23.8840293 80.7974746,25.2863114 80.3602038,27.2528393 C80.1721219,28.1019858 79.4205876,28.7074987 78.5508077,28.7114666 L74.4034813,28.7114666 L74.4034813,9.3921946 C74.3979261,4.23303481 70.2172686,0.0523771558 65.0581088,0.0468221445 L32.5524655,0.0468221445 C27.3933057,0.0523771558 23.212648,4.23303481 23.207093,9.3921946 L23.207093,28.7114666 L19.0597665,28.7114666 C18.1899865,28.7074987 17.439246,28.1019858 17.2503703,27.2528393 C16.8130995,25.2863114 15.0735397,23.8840293 13.0586026,23.8745062 L7.71294799,23.8745062 C7.11299032,22.0246367 5.25677201,20.8858283 3.33547903,21.1889814 C1.41497959,21.4929282 -2.84217094e-14,23.1483669 -2.84217094e-14,25.0934678 C-2.84217094e-14,27.0385688 1.41497959,28.6940074 3.33547903,28.9979543 C5.25677201,29.3011074 7.11299032,28.162299 7.71294799,26.3124295 L13.0586026,26.3124295 C13.9283825,26.3163974 14.6791231,26.9219103 14.8679988,27.7710566 C15.3052696,29.7375847 17.0448294,31.1398667 19.0597665,31.1493899 L23.207093,31.1493899 L23.207093,39.608317 L22.788075,39.608317 C21.6246649,39.6106976 20.5739453,38.9099535 20.1287387,37.8346325 C19.3057809,35.849852 17.3670288,34.5570859 15.217974,34.561054 L14.2315356,34.561054 C13.631578,32.7111844 11.7753599,31.5723758 9.85406668,31.8755292 C7.93356725,32.1794758 6.51858786,33.8349147 6.51858786,35.7800156 C6.51858786,37.7243228 7.93356725,39.3805552 9.85406668,39.6845021 C11.7753599,39.9876552 13.631578,38.8488466 14.2315356,36.9989772 L15.217974,36.9989772 C16.3821777,36.9965964 17.4321037,37.6973407 17.8781038,38.7726615 C18.7010616,40.7574423 20.6398138,42.0494144 22.788075,42.0454465 L23.207093,42.0454465 L23.207093,45.3436265 L18.2376022,45.3198188 C16.1885405,45.3182315 14.3037528,46.4419617 13.3308057,48.2450091 C12.7832252,49.2608105 11.7213952,49.8933057 10.5675085,49.8925119 L8.62637567,49.8925119 C7.99864212,48.0553399 6.12734546,46.9474818 4.21398853,47.2807914 C2.30142494,47.6141014 0.914221219,49.2885863 0.944377923,51.2305129 C0.974534424,53.1716457 2.41173467,54.8032766 4.33461494,55.0770668 C6.25670147,55.3516507 8.09307995,54.1866535 8.66446822,52.3304352 L10.568302,52.3304352 C12.6181574,52.3320225 14.5021514,51.2074987 15.4750988,49.4036575 C16.0218855,48.390237 17.0805411,47.757742 18.2320472,47.7569483 L23.207093,47.7807562 L23.207093,56.4269717 L22.7293488,56.4269717 C19.9835108,56.4380819 17.5686018,58.2450972 16.7821495,60.8758641 C16.3051988,62.4725768 14.8402229,63.5685314 13.1736738,63.5756737 L11.103185,63.5756737 C10.5040209,61.7258042 8.64700903,60.5869956 6.72650959,60.8901489 C4.80521661,61.1940958 3.39103056,62.8495344 3.39103056,64.7946353 C3.39103056,66.7397361 4.80521661,68.3951749 6.72650959,68.6991218 C8.64700903,69.0022749 10.5040209,67.8634663 11.103185,66.013597 L13.1736738,66.013597 C15.9195119,66.0024865 18.3352144,64.1954712 19.1208734,61.5647044 C19.5978238,59.9679916 21.0635935,58.8712437 22.7293488,58.8641014 L23.207093,58.8641014 L23.207093,80.4982894 C23.212648,85.6574492 27.3933057,89.8381067 32.5524655,89.8436619 L65.0581088,89.8436619 C70.2172686,89.8381067 74.3979261,85.6574492 74.4034813,80.4982894 L74.4034813,58.866482 L74.8812253,58.866482 C76.5477744,58.8728308 78.0127505,59.9695789 78.4897009,61.5662917 C79.2753599,64.1970585 81.6910623,66.0040738 84.4369005,66.0151841 L86.5073893,66.0151841 C87.107347,67.8658472 88.9635653,69.0046558 90.8840645,68.7007089 C92.8053577,68.396762 94.2195435,66.7413234 94.2195435,64.7962224 C94.2195435,62.8519153 92.8053577,61.1956828 90.8840645,60.8925295 C88.9635653,60.5885829 87.107347,61.7273915 86.5073893,63.5772608 L84.4369005,63.5772608 C82.7703512,63.5709121 81.3053753,62.4741641 80.8284249,60.8774514 C80.0427659,58.2466845 77.6270633,56.4396692 74.8812253,56.4285588 L74.4034813,56.4285588 L74.4034813,47.7823433 L79.3729719,47.7585356 C80.5268588,47.757742 81.587895,48.390237 82.1354753,49.4060384 C83.1084227,51.2098793 84.9932104,52.3336096 87.0430656,52.3320225 L88.9468996,52.3320225 C89.5182879,54.1945893 91.3594279,55.3643482 93.2878633,55.090558 C95.2170924,54.8159741 96.6590541,53.1803753 96.6892106,51.2321 C96.7193673,49.2846184 95.3281954,47.6045781 93.4084898,47.2712684 C91.4895774,46.9379584 89.6135193,48.0505784 88.9849922,49.8940992 L87.0430656,49.8940992 C85.8891789,49.8948928 84.8273489,49.2623978 84.2797686,48.2465964 C83.3052342,46.4419617 81.4180656,45.3182315 79.3674167,45.3214058 L74.4034813,45.34442 L74.4034813,42.0462402 L74.8224993,42.0462402 C76.9707605,42.0502081 78.9095125,40.7582358 79.7324705,38.773455 C80.1784707,37.6981342 81.2283966,36.99739 82.3926003,36.9997708 L83.3790385,36.9997708 C83.9789961,38.8496401 85.8352144,39.9884487 87.7565074,39.6852956 C89.6770069,39.3813488 91.0919865,37.7259099 91.0919865,35.7808092 C91.0919865,33.8357082 89.6770069,32.1802696 87.7565074,31.8763227 C85.8352144,31.5731694 83.9789961,32.711978 83.3790385,34.5618475 L82.3926003,34.5618475 C80.2443391,34.5578794 78.3055869,35.849852 77.4826291,37.8346325 C77.0366288,38.9099535 75.9859092,39.6099041 74.8224993,39.6075232 L74.4034813,39.6075232 L74.4034813,31.1485961 L78.5508077,31.1493899 Z M93.6560913,23.5784954 C94.4933339,23.5784954 95.1710638,24.257019 95.1710638,25.0934678 C95.1710638,25.9299167 94.4925402,26.6084403 93.6560913,26.6084403 C92.8196423,26.6084403 92.1411187,25.9299167 92.1411187,25.0934678 C92.142706,24.257019 92.8204358,23.5792889 93.6560913,23.5784954 Z M3.95448298,26.6084403 C3.11803395,26.6084403 2.43951034,25.9299167 2.43951034,25.0934678 C2.43951034,24.257019 3.11803395,23.5784954 3.95448298,23.5784954 C4.79093181,23.5784954 5.46945542,24.257019 5.46945542,25.0934678 C5.46786813,25.9299167 4.79013826,26.6076467 3.95448298,26.6084403 Z M10.4730706,37.2941943 C9.63662181,37.2941943 8.95889174,36.6164644 8.95889174,35.7800156 C8.95889174,34.942773 9.63662181,34.265043 10.4730706,34.265043 C11.3095197,34.265043 11.9880431,34.942773 11.9880431,35.7800156 C11.9872495,36.6164644 11.3095197,37.2941943 10.4730706,37.2957816 L10.4730706,37.2941943 Z M4.88775047,52.6804107 C4.0505079,52.6804107 3.37277714,52.0026806 3.37277714,51.165438 C3.37198429,50.3289892 4.0505079,49.6504656 4.88775047,49.6504656 C5.7241993,49.6504656 6.40272291,50.3289892 6.40272291,51.1662316 C6.40113562,52.001887 5.72340576,52.6796169 4.88775047,52.6804107 Z M7.34551354,66.3127822 C6.50906451,66.3127822 5.83133465,65.6342586 5.83133465,64.7978097 C5.83133465,63.9613607 6.50906451,63.2828373 7.34551354,63.2828373 C8.18275612,63.2828373 8.86048598,63.9613607 8.86048598,64.7978097 C8.85889889,65.6342586 8.18116883,66.3111951 7.34551354,66.3119886 L7.34551354,66.3127822 Z M90.2658543,63.2828373 C91.1023031,63.2828373 91.7808267,63.9613607 91.7808267,64.7978097 C91.7808267,65.6342586 91.1023031,66.3127822 90.2658543,66.3127822 C89.4294053,66.3127822 88.7516754,65.6342586 88.7516754,64.7978097 C88.7516754,63.9613607 89.4294053,63.2836308 90.2658543,63.2820435 L90.2658543,63.2828373 Z M92.7244109,49.6512591 C93.56086,49.6512591 94.2393836,50.3289892 94.2393836,51.1662316 C94.2393836,52.0026806 93.5616535,52.6812042 92.7244109,52.6812042 C91.8879621,52.6812042 91.2094385,52.0026806 91.2094385,51.1662316 C91.210232,50.3305763 91.8871684,49.6528464 92.7228238,49.6512591 L92.7244109,49.6512591 Z M87.138297,34.2658365 C87.9755396,34.2658365 88.6532697,34.9443601 88.6532697,35.7808092 C88.6532697,36.617258 87.9755396,37.2957816 87.138297,37.2957816 C86.3018482,37.2957816 85.6241183,36.617258 85.6241183,35.7808092 C85.6249119,34.9451537 86.3018482,34.2674238 87.1375035,34.2658365 L87.138297,34.2658365 Z M32.5524655,2.4847454 L65.0581088,2.4847454 C68.8713318,2.48871332 71.9615901,5.5789716 71.965558,9.3921946 L71.965558,12.2364384 L69.1213142,12.2364384 C68.4483458,12.2364384 67.9023526,12.7824316 67.9023526,13.4554 C67.9023526,14.1283684 68.4483458,14.6743616 69.1213142,14.6743616 L71.965558,14.6743616 L71.965558,72.7781991 L25.6450163,72.7781991 L25.6450163,14.6743616 L58.7601404,14.6743616 C59.4331088,14.6743616 59.9791021,14.1283684 59.9791021,13.4554 C59.9791021,12.7824316 59.4331088,12.2364384 58.7601404,12.2364384 L25.6450163,12.2364384 L25.6450163,9.3921946 C25.6489842,5.5789716 28.7392425,2.48871332 32.5524655,2.4847454 Z M65.0581088,87.4057386 L32.5524655,87.4057386 C28.7392425,87.4017707 25.6489842,84.3115124 25.6450163,80.4982894 L25.6450163,75.2161224 L71.965558,75.2161224 L71.965558,80.4982894 C71.9615901,84.3115124 68.8713318,87.4017707 65.0581088,87.4057386 Z" id="Shape" fill="#3455D1"></path><path d="M62.7622391,14.6743616 L65.0192225,14.6743616 C65.6929847,14.6743616 66.2381842,14.1283684 66.2381842,13.4554 C66.2381842,12.7824316 65.6929847,12.2364384 65.0192225,12.2364384 L62.7622391,12.2364384 C62.0892707,12.2364384 61.5432775,12.7824316 61.5432775,13.4554 C61.5432775,14.1283684 62.0892707,14.6743616 62.7622391,14.6743616 Z" id="Path" fill="#3455D1"></path><path d="M48.8052872,77.0445648 C46.449104,77.0445648 44.5389215,78.9547474 44.5389215,81.3109305 C44.5389215,83.6671134 46.449104,85.5772962 48.8052872,85.5772962 C51.1614701,85.5772962 53.0716528,83.6671134 53.0716528,81.3109305 C53.069272,78.9555411 51.1606765,77.0469456 48.8052872,77.0445648 L48.8052872,77.0445648 Z M48.8052872,83.1393729 C47.7958346,83.1393729 46.9768447,82.3211766 46.9768447,81.3109305 C46.9768447,80.3014779 47.7958346,79.4824881 48.8052872,79.4824881 C49.8155333,79.4824881 50.6337296,80.3014779 50.6337296,81.3109305 C50.6329358,82.3203831 49.8147398,83.1385792 48.8052872,83.1393729 Z" id="Shape" fill="#233E98"></path><path d="M53.6009806,25.8918241 C53.5946319,25.8791266 53.5874894,25.8672228 53.5795535,25.8553188 C52.5526417,24.2062289 50.7480072,23.2039186 48.8052872,23.2039186 C46.8625671,23.2039186 45.0579324,24.2062289 44.0310208,25.8553188 C44.0238783,25.8672228 44.0159424,25.8791266 44.0095937,25.8918241 L30.1470796,49.9837754 C29.0765202,51.7185735 29.0281108,53.8969914 30.0216917,55.6778182 C31.0152722,57.4578512 32.8945047,58.5617416 34.9332499,58.5617416 L62.6773244,58.5617416 C64.7160694,58.5617416 66.5953019,57.4578512 67.5888826,55.6778182 C68.5824633,53.8969914 68.5340541,51.7185735 67.4634945,49.9837754 L53.6009806,25.8918241 Z M65.4628421,54.4834581 C64.9073257,55.50164 63.8375599,56.1309607 62.6773244,56.1223209 L34.9332499,56.1223209 C33.775395,56.1230248 32.7088036,55.4952913 32.1469385,54.4834581 C31.5850734,53.4716246 31.6160236,52.2352038 32.2270915,51.2527335 C32.2350276,51.240036 32.2421699,51.2281321 32.2493122,51.2162281 L46.1110327,27.1282449 C46.694325,26.203707 47.7117134,25.6426354 48.8052872,25.6426354 C49.8988607,25.6426354 50.9162493,26.203707 51.4995416,27.1282449 L65.3604684,51.2170216 C65.3676107,51.2289256 65.374753,51.2416231 65.3826891,51.2535271 C66.0024865,52.232823 66.0334368,53.4740055 65.4628421,54.4834581 L65.4628421,54.4834581 Z" id="Shape" fill="#4DAF51"></path><path d="M48.8052872,33.1635334 C48.1323188,33.1635334 47.5863255,33.7095266 47.5863255,34.382495 L47.5863255,46.2800684 C47.5863255,46.9538305 48.1323188,47.49903 48.8052872,47.49903 C49.4782556,47.49903 50.0242488,46.9538305 50.0242488,46.2800684 L50.0242488,34.382495 C50.0242488,33.7095266 49.4782556,33.1635334 48.8052872,33.1635334 Z" id="Path" fill="#4DAF51"></path><path d="M48.8052872,48.9965435 C48.1323188,48.9965435 47.5863255,49.5425367 47.5863255,50.2155051 L47.5863255,51.3463776 C47.5863255,52.019346 48.1323188,52.5653393 48.8052872,52.5653393 C49.4782556,52.5653393 50.0242488,52.019346 50.0242488,51.3463776 L50.0242488,50.2155051 C50.0242488,49.5425367 49.4782556,48.9965435 48.8052872,48.9965435 L48.8052872,48.9965435 Z" id="Path" fill="#4DAF51"></path></g></g></g></svg> 