<?xml version="1.0" encoding="UTF-8"?> <svg xmlns="http://www.w3.org/2000/svg" xmlns:xlink="http://www.w3.org/1999/xlink" width="90px" height="90px" viewBox="0 0 90 90"><!-- Generator: Sketch 55.2 (78181) - https://sketchapp.com --><title>authenticiate-face</title><desc>Created with Sketch.</desc><g id="Page-1" stroke="none" stroke-width="1" fill="none" fill-rule="evenodd"><g id="Artboard" transform="translate(-180.000000, -1172.000000)" fill-rule="nonzero"><g id="authenticiate-face" transform="translate(180.000000, 1172.000000)"><path d="M75.0553961,49.6371653 L82.5753272,40.754148 C86.7797178,35.787005 89.0885347,29.4903561 89.0905907,22.9826311 C89.0755137,10.2954458 78.7944596,0.0143915482 66.1079595,0 L60.9893625,0 C57.8581707,0.124726915 54.7557624,0.646934751 51.756836,1.55497342 C37.3262162,5.67986781 33.1732242,19.7082094 33.0032667,20.3030602 L32.5358837,21.9423271 L34.2340873,22.0828162 C34.4725762,22.1040609 36.1371996,22.2390674 38.5638901,22.2795009 L38.5638901,26.2837801 L32.472835,38.5207154 L38.5638901,41.5696695 L38.5638901,51.93022 L49.7920458,51.93022 L49.7920458,64.1411133 L35.7568512,85.1939052 L35.7568512,89.8252454 L38.5638901,89.8252454 L38.5638901,86.0354688 L51.959003,65.9427993 C55.1635232,65.8694709 58.352281,65.4699338 61.4759341,64.7496706 L64.9497819,75.1753258 L52.5990847,82.7233546 L52.5990847,89.8252454 L55.4061236,89.8252454 L55.4061236,84.2982022 L66.6342793,77.4348002 L77.862435,84.2982022 L77.862435,89.8252454 L80.6694739,89.8252454 L80.6694739,82.7233546 L67.8034219,74.8635086 L64.2048475,64.067785 C67.3141091,63.1953826 70.3459304,62.0687291 73.2701577,60.6994754 L86.2835517,76.501405 L86.2835517,89.8252454 L89.0905907,89.8252454 L89.0905907,75.4953664 L75.0553961,58.4454835 L75.0553961,49.6371653 Z M72.2483572,58.0706176 C66.093568,61.02774 59.4165708,62.7451323 52.5990847,63.1234247 L52.5990847,51.93022 L54.5810077,51.93022 L60.4753782,47.4386837 L58.7716921,45.207307 L53.6318503,49.1231811 L41.3709291,49.1231811 L41.3709291,39.8344591 L36.2338285,37.2659087 L41.3709291,26.9478477 L41.3709291,22.2808714 C47.7018436,22.1698509 56.596511,21.2522178 61.0202015,17.3178403 L61.0202015,25.2633503 L63.8272404,25.2633503 C65.3774168,25.2633503 66.6342793,26.5202128 66.6342793,28.0703892 L66.6342793,32.5927647 C66.5876781,33.7468305 65.9791208,34.8049526 65.0046069,35.4251601 C63.3845286,36.5723729 62.421665,38.4357367 62.4237209,40.4210864 L62.4237209,42.8285882 L72.2483572,49.8461855 L72.2483572,58.0706176 Z M65.2307599,41.3825793 L65.2307599,40.4210864 C65.2287039,39.3485726 65.7474852,38.3411637 66.6212583,37.7195855 C68.3475599,36.5785406 69.4022555,34.6617222 69.4413182,32.5927647 L69.4413182,28.0703892 C69.4413182,24.9700366 66.927593,22.4563113 63.8272404,22.4563113 L63.8272404,11.2281557 L61.0202015,11.2281557 C61.0400755,12.387704 60.6494476,13.5164133 59.9168489,14.4155429 C56.0667646,19.307987 42.9498884,19.7280834 36.318122,19.4094131 C37.8422564,15.7601254 42.4167156,7.14506528 52.523015,4.25099184 C55.2882499,3.41148422 58.1494286,2.92628333 61.036649,2.80703892 L66.1079595,2.80703892 C77.245654,2.81937445 86.2712162,11.8449367 86.2835517,22.9826311 C86.2814958,28.8256034 84.2084263,34.4794292 80.4337265,38.9394412 L73.4161292,47.2296633 L65.2307599,41.3825793 Z" id="Shape" fill="#3455D1"></path><path d="M0.0877199662,64.4536157 L24.636975,89.0028707 L30.7239182,82.9159275 L6.17466316,58.3666725 L0.0877199662,64.4536157 Z M24.636975,85.0335422 L4.05704844,64.4536157 L6.17466316,62.336001 L26.7545897,82.9159275 L24.636975,85.0335422 Z" id="Shape" fill="#4DAF51"></path><polygon id="Path" fill="#3455D1" points="10.493501 54.7372589 13.3005399 54.7372589 13.3005399 57.5442978 10.493501 57.5442978"></polygon><polygon id="Path" fill="#3455D1" points="27.6331599 30.7122679 33.2259932 24.4190456 35.3230486 26.2830949 29.7302155 32.5763172"></polygon><polygon id="Path" fill="#3455D1" points="19.2408263 40.1538145 24.8357154 33.8599069 26.9327709 35.7239562 21.3378818 42.0178638"></polygon><polygon id="Path" fill="#3455D1" points="10.8484928 49.5953612 16.4426964 43.3014536 18.5397519 45.1655029 12.9448628 51.4594104"></polygon><polygon id="Path" fill="#3455D1" points="28.3911153 46.765707 35.1688534 43.6393126 36.344849 46.1886742 29.5671111 49.3150685"></polygon><polygon id="Path" fill="#3455D1" points="16.9237857 52.0590587 24.571185 48.5290153 25.7471806 51.0776916 18.1004668 54.6077349"></polygon><polygon id="Path" fill="#3455D1" points="28.5603875 56.4066795 36.9472385 55.6432416 37.2014894 58.4386302 28.8153236 59.2020682"></polygon><polygon id="Path" fill="#3455D1" points="41.1386082 55.2628934 46.8568535 54.7434267 47.1111043 57.5388153 41.392859 58.0582821"></polygon><polygon id="Path" fill="#3455D1" points="15.9801108 57.5484098 24.3669619 56.7863426 24.6212127 59.5817311 16.2343615 60.3437983"></polygon></g></g></g></svg> 