<?xml version="1.0" encoding="UTF-8"?> <svg xmlns="http://www.w3.org/2000/svg" xmlns:xlink="http://www.w3.org/1999/xlink" width="90px" height="85px" viewBox="0 0 90 85"><!-- Generator: Sketch 55.2 (78181) - https://sketchapp.com --><title>automatic-learning-voices</title><desc>Created with Sketch.</desc><g id="Page-1" stroke="none" stroke-width="1" fill="none" fill-rule="evenodd"><g id="Artboard" transform="translate(-1341.000000, -1190.000000)" fill-rule="nonzero"><g id="automatic-learning-voices" transform="translate(1341.000000, 1190.000000)"><path d="M19.6874634,23.9062055 L19.6874634,40.7811741 C19.6874634,41.5089687 20.2775116,42.0997023 21.0059916,42.0997023 C21.7337862,42.0997023 22.3245198,41.5089687 22.3245198,40.7811741 L22.3245198,23.9062055 C22.3245198,23.1777254 21.7337862,22.5876772 21.0059916,22.5876772 C20.2775116,22.5876772 19.6874634,23.1777254 19.6874634,23.9062055 Z" id="Path" fill="#4DAF51"></path><path d="M23.9062055,19.6874634 L23.9062055,46.4061636 C23.9062055,47.1339582 24.4962537,47.7246919 25.2247337,47.7246919 C25.9525285,47.7246919 26.543262,47.1339582 26.543262,46.4061636 L26.543262,19.6874634 C26.543262,18.9589833 25.9525285,18.3689351 25.2247337,18.3689351 C24.4962537,18.3689351 23.9062055,18.9589833 23.9062055,19.6874634 Z" id="Path" fill="#4DAF51"></path><path d="M28.1249476,14.0624738 L28.1249476,49.2186584 C28.1249476,49.946453 28.7149958,50.5371866 29.4434759,50.5371866 C30.1712705,50.5371866 30.7620041,49.946453 30.7620041,49.2186584 L30.7620041,14.0624738 C30.7620041,13.3339938 30.1712705,12.7439456 29.4434759,12.7439456 C28.7149958,12.7439456 28.1249476,13.3339938 28.1249476,14.0624738 Z" id="Path" fill="#4DAF51"></path><path d="M32.3436898,22.4999581 L32.3436898,39.3749267 C32.3436898,40.1027215 32.9344233,40.6934549 33.662218,40.6934549 C34.3900128,40.6934549 34.9807463,40.1027215 34.9807463,39.3749267 L34.9807463,22.4999581 C34.9807463,21.7714781 34.3900128,21.1814299 33.662218,21.1814299 C32.9344233,21.1814299 32.3436898,21.7714781 32.3436898,22.4999581 Z" id="Path" fill="#4DAF51"></path><path d="M36.5624319,26.7187003 L36.5624319,36.5624319 C36.5624319,37.2902267 37.1531656,37.8809602 37.8809602,37.8809602 C38.6087548,37.8809602 39.1994884,37.2902267 39.1994884,36.5624319 L39.1994884,26.7187003 C39.1994884,25.9902202 38.6087548,25.400172 37.8809602,25.400172 C37.1531656,25.400172 36.5624319,25.9902202 36.5624319,26.7187003 Z" id="Path" fill="#4DAF51"></path><path d="M40.7811741,18.281216 L40.7811741,44.9999162 C40.7811741,45.727711 41.3719075,46.3184445 42.0997023,46.3184445 C42.8274971,46.3184445 43.4182306,45.727711 43.4182306,44.9999162 L43.4182306,18.281216 C43.4182306,17.5527359 42.8274971,16.9626877 42.0997023,16.9626877 C41.3719075,16.9626877 40.7811741,17.5527359 40.7811741,18.281216 Z" id="Path" fill="#4DAF51"></path><path d="M44.9999162,15.4687212 L44.9999162,49.2186584 C44.9999162,49.946453 45.5906499,50.5371866 46.3184445,50.5371866 C47.0462391,50.5371866 47.6369727,49.946453 47.6369727,49.2186584 L47.6369727,15.4687212 C47.6369727,14.7402412 47.0462391,14.150193 46.3184445,14.150193 C45.5906499,14.150193 44.9999162,14.7402412 44.9999162,15.4687212 Z" id="Path" fill="#4DAF51"></path><path d="M49.2186584,11.2499791 L49.2186584,52.0311531 C49.2186584,52.7589477 49.8093918,53.3496814 50.5371866,53.3496814 C51.2649814,53.3496814 51.8557149,52.7589477 51.8557149,52.0311531 L51.8557149,11.2499791 C51.8557149,10.521499 51.2649814,9.93145081 50.5371866,9.93145081 C49.8093918,9.93145081 49.2186584,10.521499 49.2186584,11.2499791 Z" id="Path" fill="#4DAF51"></path><path d="M53.4374005,15.4687212 L53.4374005,49.2186584 C53.4374005,49.946453 54.0281342,50.5371866 54.7559288,50.5371866 C55.4837234,50.5371866 56.074457,49.946453 56.074457,49.2186584 L56.074457,15.4687212 C56.074457,14.7402412 55.4837234,14.150193 54.7559288,14.150193 C54.0281342,14.150193 53.4374005,14.7402412 53.4374005,15.4687212 Z" id="Path" fill="#4DAF51"></path><path d="M58.9746709,46.3184445 C59.703151,46.3184445 60.2931992,45.727711 60.2931992,44.9999162 L60.2931992,21.0937107 C60.2931992,20.3652307 59.703151,19.7751825 58.9746709,19.7751825 C58.2468761,19.7751825 57.6561427,20.3652307 57.6561427,21.0937107 L57.6561427,44.9999162 C57.6561427,45.727711 58.2468761,46.3184445 58.9746709,46.3184445 Z" id="Path" fill="#4DAF51"></path><path d="M64.5119413,40.7811741 L64.5119413,29.531195 C64.5119413,28.802715 63.9218931,28.2126668 63.1934131,28.2126668 C62.4656185,28.2126668 61.8748848,28.802715 61.8748848,29.531195 L61.8748848,40.7811741 C61.8748848,41.5089687 62.4656185,42.0997023 63.1934131,42.0997023 C63.9218931,42.0997023 64.5119413,41.5089687 64.5119413,40.7811741 Z" id="Path" fill="#4DAF51"></path><path d="M68.7306835,37.9686793 L68.7306835,32.3436898 C68.7306835,31.6152097 68.1406353,31.0251615 67.4121552,31.0251615 C66.6843604,31.0251615 66.093627,31.6152097 66.093627,32.3436898 L66.093627,37.9686793 C66.093627,38.6964739 66.6843604,39.2872076 67.4121552,39.2872076 C68.1406353,39.2872076 68.7306835,38.6964739 68.7306835,37.9686793 Z" id="Path" fill="#4DAF51"></path><path d="M72.9494256,36.5624319 L72.9494256,33.7499372 C72.9494256,33.0214571 72.3593774,32.4314089 71.6308974,32.4314089 C70.9031027,32.4314089 70.3123691,33.0214571 70.3123691,33.7499372 L70.3123691,36.5624319 C70.3123691,37.2902267 70.9031027,37.8809602 71.6308974,37.8809602 C72.3593774,37.8809602 72.9494256,37.2902267 72.9494256,36.5624319 Z" id="Path" fill="#4DAF51"></path><path d="M15.4687212,29.531195 L15.4687212,37.9686793 C15.4687212,38.6964739 16.0587694,39.2872076 16.7872495,39.2872076 C17.5150442,39.2872076 18.1057777,38.6964739 18.1057777,37.9686793 L18.1057777,29.531195 C18.1057777,28.802715 17.5150442,28.2126668 16.7872495,28.2126668 C16.0587694,28.2126668 15.4687212,28.802715 15.4687212,29.531195 Z" id="Path" fill="#4DAF51"></path><path d="M11.2499791,32.3436898 L11.2499791,36.5624319 C11.2499791,37.2902267 11.8400273,37.8809602 12.5685073,37.8809602 C13.2963019,37.8809602 13.8870356,37.2902267 13.8870356,36.5624319 L13.8870356,32.3436898 C13.8870356,31.6152097 13.2963019,31.0251615 12.5685073,31.0251615 C11.8400273,31.0251615 11.2499791,31.6152097 11.2499791,32.3436898 Z" id="Path" fill="#4DAF51"></path><path d="M84.1994047,51.3993012 L84.1994047,5.62498953 C84.1994047,2.57126714 81.7151714,0.0877191349 78.6621343,0.0877191349 L62.5745819,0.0877191349 C61.8467873,0.0877191349 61.2560537,0.677767335 61.2560537,1.40624738 C61.2560537,2.13404199 61.8467873,2.72409037 62.5745819,2.72409037 L78.6621343,2.72409037 C80.261638,2.72409037 81.5623482,4.02548584 81.5623482,5.62498953 L81.5623482,49.6504009 C79.4324179,48.5333526 77.0105475,47.9001301 74.4433921,47.9001301 C66.4068116,47.9001301 59.7908701,54.0966646 59.1199557,61.9626039 L35.0684654,61.9626039 C34.7189596,61.9626039 34.3831597,62.1017211 34.1364496,62.3491164 L16.6995303,79.7860357 L16.6995303,63.2811322 C16.6995303,62.5533376 16.1087967,61.9626039 15.3810021,61.9626039 L5.53727039,61.9626039 C3.9377667,61.9626039 2.63705649,60.6618937 2.63705649,59.0623901 L2.63705649,5.62498953 C2.63705649,4.02548584 3.9377667,2.72409037 5.53727039,2.72409037 L56.1546377,2.72409037 C56.8824325,2.72409037 57.473166,2.13404199 57.473166,1.40624738 C57.473166,0.677767335 56.8824325,0.0877191349 56.1546377,0.0877191349 L5.53727039,0.0877191349 C2.48423327,0.0877191349 0,2.57126714 0,5.62498953 L0,59.0623901 C0,62.1154272 2.48423327,64.5996604 5.53727039,64.5996604 L14.0624738,64.5996604 L14.0624738,82.9685955 C14.0624738,84.115112 15.4988747,84.7154398 16.3130179,83.9006114 L35.6146541,64.5996604 L59.1192705,64.5996604 C59.7901848,72.4655998 66.4061264,78.6621343 74.4433921,78.6621343 C82.924736,78.6621343 89.8243942,71.7624761 89.8243942,63.2811322 C89.8243942,58.5004393 87.6314158,54.2220756 84.1994047,51.3993012 Z M74.4433921,76.0250778 C67.4162671,76.0250778 61.6994465,70.3082572 61.6994465,63.2811322 C61.6994465,56.2540072 67.4162671,50.5371866 74.4433921,50.5371866 C81.4705171,50.5371866 87.1873377,56.2540072 87.1873377,63.2811322 C87.1873377,70.3082572 81.4705171,76.0250778 74.4433921,76.0250778 Z" id="Shape" fill="#3455D1"></path><path d="M80.6166262,58.0611584 L71.7001132,65.7043733 L69.7504184,63.7553638 C69.2357537,63.2400139 68.4010514,63.2400139 67.8863868,63.7553638 C67.3717221,64.2700284 67.3717221,65.1047307 67.8863868,65.6193954 L70.6988815,68.4318902 C71.1792808,68.9122894 71.972865,68.9431281 72.4889001,68.5004207 L82.3326318,60.0629364 C82.8856736,59.5893901 82.949407,58.7567436 82.4758607,58.2043873 C82.0016291,57.6513455 81.169668,57.5876121 80.6166262,58.0611584 Z" id="Path" fill="#3455D1"></path></g></g></g></svg> 