<?xml version="1.0" encoding="UTF-8"?> <svg xmlns="http://www.w3.org/2000/svg" xmlns:xlink="http://www.w3.org/1999/xlink" width="90px" height="90px" viewBox="0 0 90 90"><!-- Generator: Sketch 55.2 (78181) - https://sketchapp.com --><title>custom-branded-words</title><desc>Created with Sketch.</desc><g id="Page-1" stroke="none" stroke-width="1" fill="none" fill-rule="evenodd"><g id="Artboard" transform="translate(-194.000000, -277.000000)" fill-rule="nonzero"><g id="custom-branded-words" transform="translate(194.000000, 277.000000)"><path d="M45,0 C20.1474609,0 0,20.1474609 0,45 C0,69.8525391 20.1474609,90 45,90 C69.8525391,90 90,69.8525391 90,45 C89.9721679,20.1591797 69.8408203,0.027832125 45,0 Z M45,87 C21.8041991,87 3,68.1958009 3,45 C3,21.8041991 21.8041991,3 45,3 C68.1958009,3 87,21.8041991 87,45 C86.9736328,68.1848145 68.1848145,86.9736328 45,87 Z" id="Shape" fill="#3455D1"></path><path d="M45,54 C49.1403808,53.994873 52.494873,50.6403808 52.5,46.5 L52.5,28.5 C52.5,24.3581542 49.1418457,21 45,21 C40.8581543,21 37.5,24.3581542 37.5,28.5 L37.5,46.5 C37.505127,50.6403808 40.8596192,53.994873 45,54 Z M40.5,28.5 C40.5,26.0148926 42.5148926,24 45,24 C47.4851074,24 49.5,26.0148926 49.5,28.5 L49.5,46.5 C49.5,48.9851074 47.4851074,51 45,51 C42.5148926,51 40.5,48.9851074 40.5,46.5 L40.5,28.5 Z" id="Shape" fill="#4DAF51"></path><path d="M60,42 C59.1716308,42 58.5,42.6716308 58.5,43.5 L58.5,46.5 C58.5,53.9560547 52.4560547,60 45,60 C37.5439453,60 31.5,53.9560547 31.5,46.5 L31.5,43.5 C31.5,42.6716308 30.8283692,42 30,42 C29.1716308,42 28.5,42.6716308 28.5,43.5 L28.5,46.5 C28.5109864,55.0253906 35.010498,62.1416016 43.5,62.9238281 L43.5,69 L39,69 C38.1716308,69 37.5,69.6716308 37.5,70.5 C37.5,71.3283692 38.1716308,72 39,72 L51,72 C51.8283692,72 52.5,71.3283692 52.5,70.5 C52.5,69.6716308 51.8283692,69 51,69 L46.5,69 L46.5,62.9238281 C54.989502,62.1416016 61.4890136,55.0253906 61.5,46.5 L61.5,43.5 C61.5,42.6716308 60.8283692,42 60,42 Z" id="Path" fill="#4DAF51"></path></g></g></g></svg> 