<?xml version="1.0" encoding="UTF-8"?> <svg xmlns="http://www.w3.org/2000/svg" xmlns:xlink="http://www.w3.org/1999/xlink" width="90px" height="90px" viewBox="0 0 90 90"><!-- Generator: Sketch 55.2 (78181) - https://sketchapp.com --><title>cloud-based-solutions</title><desc>Created with Sketch.</desc><g id="Page-1" stroke="none" stroke-width="1" fill="none" fill-rule="evenodd"><g id="Artboard" transform="translate(-933.000000, -564.000000)" fill-rule="nonzero"><g id="cloud-based-solutions" transform="translate(933.000000, 564.000000)"><path d="M41.001,8.229 C39.6375,7.746 38.208,7.5 36.75,7.5 L36.75,10.5 C37.8645,10.5 38.958,10.6875 39.999,11.0565 L41.001,8.229 Z" id="Path" fill="#3455D1"></path><path d="M32.499,8.229 C27.4155,10.032 24,14.862 24,20.25 L27,20.25 C27,16.1295 29.613,12.435 33.501,11.0565 L32.499,8.229 Z" id="Path" fill="#3455D1"></path><path d="M75,66.879 L75,61.2285 C83.499,59.7945 90,52.401 90,43.5 C90,33.5745 81.9255,25.5 72,25.5 C69.861,25.5 67.782,25.872 65.799,26.607 C64.9275,22.5495 61.314,19.5 57,19.5 C56.9955,19.5 56.991,19.5 56.9865,19.5 C56.592,8.6805 47.664,0 36.75,0 C25.584,0 16.5,9.084 16.5,20.25 C16.5,21.078 16.551,21.906 16.653,22.7295 C7.191,24.117 0,32.283 0,42 C0,51.201 6.414,58.9155 15,60.9555 L15,66.879 L4.9395,76.9395 C4.6575,77.22 4.5,77.6025 4.5,78 L4.5,84 L7.5,84 L7.5,78.621 L17.5605,68.5605 C17.8425,68.28 18,67.8975 18,67.5 L18,61.4235 C18.4965,61.4625 18.993,61.5 19.5,61.5 L24,61.5 L24,69.879 L16.9395,76.9395 C16.6575,77.22 16.5,77.6025 16.5,78 L16.5,84 L19.5,84 L19.5,78.621 L26.5605,71.5605 C26.8425,71.28 27,70.8975 27,70.5 L27,61.5 L34.5,61.5 L34.5,72.879 L30.4395,76.9395 C30.1575,77.22 30,77.6025 30,78 L30,84 L33,84 L33,78.621 L37.0605,74.5605 C37.3425,74.28 37.5,73.8975 37.5,73.5 L37.5,61.5 L43.5,61.5 L43.5,84 L46.5,84 L46.5,61.5 L52.5,61.5 L52.5,73.5 C52.5,73.8975 52.6575,74.28 52.9395,74.5605 L57,78.621 L57,84 L60,84 L60,78 C60,77.6025 59.8425,77.22 59.5605,76.9395 L55.5,72.879 L55.5,61.5 L63,61.5 L63,70.5 C63,70.8975 63.1575,71.28 63.4395,71.5605 L70.5,78.621 L70.5,84 L73.5,84 L73.5,78 C73.5,77.6025 73.3425,77.22 73.0605,76.9395 L66,69.879 L66,61.5 L72,61.5 L72,67.5 C72,67.8975 72.1575,68.28 72.4395,68.5605 L82.5,78.621 L82.5,84 L85.5,84 L85.5,78 C85.5,77.6025 85.3425,77.22 85.0605,76.9395 L75,66.879 Z M19.5,58.5 C10.4025,58.5 3,51.0975 3,42 C3,33.3105 9.7995,26.085 18.48,25.554 C18.9135,25.527 19.3155,25.314 19.578,24.969 C19.8435,24.624 19.944,24.18 19.857,23.754 C19.62,22.6035 19.5,21.4245 19.5,20.25 C19.5,10.7385 27.2385,3 36.75,3 C46.2615,3 54,10.7385 54,20.25 C54,20.418 53.988,20.5845 53.976,20.7495 L53.955,21.0915 C53.9325,21.555 54.126,22.0035 54.4815,22.305 C54.834,22.605 55.3065,22.7265 55.7625,22.6305 C59.535,21.837 62.9985,24.7875 62.9955,28.4745 C62.9895,28.5195 62.9685,28.7085 62.9655,28.7535 C62.937,29.289 63.198,29.8005 63.6495,30.0915 C64.101,30.3825 64.671,30.411 65.151,30.165 C67.3005,29.061 69.603,28.5 72,28.5 C80.271,28.5 87,35.229 87,43.5 C87,51.771 80.271,58.5 72,58.5 L19.5,58.5 Z" id="Shape" fill="#3455D1"></path><polygon id="Path" fill="#4DAF51" points="82.5 87 85.5 87 85.5 90 82.5 90"></polygon><polygon id="Path" fill="#4DAF51" points="70.5 87 73.5 87 73.5 90 70.5 90"></polygon><polygon id="Path" fill="#4DAF51" points="57 87 60 87 60 90 57 90"></polygon><polygon id="Path" fill="#4DAF51" points="4.5 87 7.5 87 7.5 90 4.5 90"></polygon><polygon id="Path" fill="#4DAF51" points="16.5 87 19.5 87 19.5 90 16.5 90"></polygon><polygon id="Path" fill="#4DAF51" points="30 87 33 87 33 90 30 90"></polygon><polygon id="Path" fill="#4DAF51" points="43.5 87 46.5 87 46.5 90 43.5 90"></polygon><polygon id="Path" fill="#4DAF51" points="37.5 33 40.5 33 40.5 36 37.5 36"></polygon><polygon id="Path" fill="#4DAF51" points="37.5 39 40.5 39 40.5 42 37.5 42"></polygon><polygon id="Path" fill="#4DAF51" points="37.5 45 40.5 45 40.5 48 37.5 48"></polygon><polygon id="Path" fill="#4DAF51" points="43.5 33 46.5 33 46.5 36 43.5 36"></polygon><polygon id="Path" fill="#4DAF51" points="43.5 39 46.5 39 46.5 42 43.5 42"></polygon><polygon id="Path" fill="#4DAF51" points="43.5 45 46.5 45 46.5 48 43.5 48"></polygon><polygon id="Path" fill="#4DAF51" points="49.5 33 52.5 33 52.5 36 49.5 36"></polygon><polygon id="Path" fill="#4DAF51" points="49.5 39 52.5 39 52.5 42 49.5 42"></polygon><polygon id="Path" fill="#4DAF51" points="49.5 45 52.5 45 52.5 48 49.5 48"></polygon><path d="M55.5,51 L49.5,51 L49.5,54 L57,54 C57.8295,54 58.5,53.328 58.5,52.5 L58.5,43.5 L55.5,43.5 L55.5,51 Z" id="Path" fill="#4DAF51"></path><path d="M42,27 L33,27 C32.1705,27 31.5,27.672 31.5,28.5 L31.5,37.5 L34.5,37.5 L34.5,30 L42,30 L42,27 Z" id="Path" fill="#4DAF51"></path><polygon id="Path" fill="#4DAF51" points="40.5 51 46.5 51 46.5 54 40.5 54"></polygon><polygon id="Path" fill="#4DAF51" points="45 27 49.5 27 49.5 30 45 30"></polygon><path d="M57,27 L52.5,27 L52.5,30 L55.5,30 L55.5,40.5 L58.5,40.5 L58.5,28.5 C58.5,27.672 57.8295,27 57,27 Z" id="Path" fill="#4DAF51"></path><path d="M34.5,40.5 L31.5,40.5 L31.5,52.5 C31.5,53.328 32.1705,54 33,54 L37.5,54 L37.5,51 L34.5,51 L34.5,40.5 Z" id="Path" fill="#4DAF51"></path></g></g></g></svg> 