<?xml version="1.0" encoding="UTF-8"?> <svg xmlns="http://www.w3.org/2000/svg" xmlns:xlink="http://www.w3.org/1999/xlink" width="51px" height="90px" viewBox="0 0 51 90"><!-- Generator: Sketch 55.2 (78181) - https://sketchapp.com --><title>face-liveness-detection</title><desc>Created with Sketch.</desc><g id="Page-1" stroke="none" stroke-width="1" fill="none" fill-rule="evenodd"><g id="Artboard" transform="translate(-615.000000, -1198.000000)" fill-rule="nonzero"><g id="face-liveness-detection" transform="translate(615.000000, 1198.000000)"><path d="M21.1359375,7.03125 C21.9121875,7.03125 22.5421875,6.40265625 22.5421875,5.625 C22.5421875,4.84734375 21.9121875,4.21875 21.1359375,4.21875 L21.121875,4.21875 C20.345625,4.21875 19.7240625,4.84734375 19.7240625,5.625 C19.7240625,6.40265625 20.3596875,7.03125 21.1359375,7.03125 Z" id="Path" fill="#3455D1"></path><path d="M25.3125,7.03125 L29.53125,7.03125 C30.3089062,7.03125 30.9375,6.40265625 30.9375,5.625 C30.9375,4.84734375 30.3089062,4.21875 29.53125,4.21875 L25.3125,4.21875 C24.5348438,4.21875 23.90625,4.84734375 23.90625,5.625 C23.90625,6.40265625 24.5348438,7.03125 25.3125,7.03125 Z" id="Path" fill="#3455D1"></path><path d="M50.625,80.15625 L50.625,8.4403125 C50.625,3.79265625 46.8492187,0.0140625 42.2057813,0.00421875 C42.2001562,0.00421875 42.1945312,0 42.1875,0 L8.4375,0 C3.78421875,0 0,3.78421875 0,8.4375 L0,80.15625 C0,85.5829688 4.41703125,90 9.84375,90 L40.78125,90 C46.2079688,90 50.625,85.5829688 50.625,80.15625 Z M47.8125,70.3125 L2.8125,70.3125 L2.8125,11.2528125 L47.8125,11.2528125 L47.8125,70.3125 Z M2.8125,73.125 L25.3125,73.125 L47.8125,73.125 L47.8125,74.53125 C47.8125,78.4082813 44.6582812,81.5625 40.78125,81.5625 L25.3125,81.5625 L9.84375,81.5625 C5.96671875,81.5625 2.8125,78.4082813 2.8125,74.53125 L2.8125,73.125 Z M8.4375,2.8125 L42.1734375,2.8125 C42.1790625,2.8125 42.181875,2.8153125 42.1875,2.8153125 C45.2896875,2.8153125 47.8125,5.338125 47.8125,8.4403125 L2.8125,8.4403125 L2.8125,8.4375 C2.8125,5.3353125 5.3353125,2.8125 8.4375,2.8125 L8.4375,2.8125 Z M2.953125,81.5484375 C4.730625,83.2935937 7.1634375,84.375 9.84375,84.375 L40.78125,84.375 C43.4615625,84.375 45.894375,83.2935937 47.671875,81.5484375 C47.0221875,84.7603125 44.1815625,87.1875 40.78125,87.1875 L9.84375,87.1875 C6.4434375,87.1875 3.6028125,84.7603125 2.953125,81.5484375 Z" id="Shape" fill="#3455D1"></path><path d="M21.09375,77.34375 C21.09375,79.6696875 22.9865625,81.5625 25.3125,81.5625 C27.6384375,81.5625 29.53125,79.6696875 29.53125,77.34375 C29.53125,75.0178125 27.6384375,73.125 25.3125,73.125 C22.9865625,73.125 21.09375,75.0178125 21.09375,77.34375 Z M25.3125,75.9375 C26.08875,75.9375 26.71875,76.5675 26.71875,77.34375 C26.71875,78.12 26.08875,78.75 25.3125,78.75 C24.53625,78.75 23.90625,78.12 23.90625,77.34375 C23.90625,76.5675 24.53625,75.9375 25.3125,75.9375 Z" id="Shape" fill="#3455D1"></path><path d="M12.5395313,57.526875 C12.5803125,57.5648438 12.605625,57.616875 12.6520313,57.6520312 C12.7082812,57.6942188 12.774375,57.7139062 12.8348437,57.74625 C16.3335937,60.3267188 20.6409375,61.8721875 25.3125,61.8721875 C29.9840625,61.8721875 34.2914062,60.3267188 37.7901562,57.74625 C37.850625,57.7139062 37.9167188,57.6942188 37.9729687,57.6520312 C38.019375,57.6182812 38.0446875,57.5648438 38.0854687,57.526875 C43.1310937,53.6695312 46.40625,47.6071875 46.40625,40.7784375 C46.40625,29.1473437 36.9435938,19.6846875 25.3125,19.6846875 C13.6814062,19.6846875 4.21875,29.1473437 4.21875,40.7784375 C4.21875,47.6071875 7.49390625,53.6695312 12.5395313,57.526875 Z M15.9089062,56.4271875 C16.2070312,56.3189063 16.5192188,56.244375 16.8482812,56.2415625 C16.858125,56.2415625 16.8651563,56.2471875 16.875,56.2471875 L20.5214062,56.2471875 L21.5057812,57.2315625 C21.5198437,57.2470313 21.5395312,57.25125 21.555,57.2639063 C21.6604687,57.3609375 21.78,57.4382813 21.909375,57.49875 C21.9501562,57.5184375 21.9895312,57.5367188 22.0303125,57.5507813 C22.179375,57.6042188 22.3354687,57.6407813 22.4971875,57.6421875 L22.5,57.6421875 L22.5014062,57.6421875 C22.5042187,57.6421875 22.505625,57.6407813 22.5084375,57.6407813 C22.7053125,57.639375 22.8965625,57.58875 23.079375,57.504375 C23.09625,57.4973438 23.1117187,57.5015625 23.1285937,57.493125 L25.3125,56.4032813 L27.4964062,57.4945313 C27.5132812,57.5029688 27.52875,57.49875 27.545625,57.5057813 C27.7284375,57.5901563 27.9210937,57.6407813 28.1165625,57.6421875 C28.119375,57.6421875 28.1207812,57.6435938 28.1235937,57.6435938 L28.125,57.6435938 L28.1278125,57.6435938 C28.2895312,57.6421875 28.445625,57.605625 28.5946875,57.5521875 C28.6354687,57.538125 28.6748437,57.5198438 28.715625,57.5001563 C28.845,57.4396875 28.9645312,57.3623438 29.0714062,57.2639063 C29.0854687,57.25125 29.1051562,57.245625 29.1192187,57.2329688 L30.1035937,56.2485938 L33.75,56.2485938 C33.7598437,56.2485938 33.766875,56.2429688 33.7767187,56.2429688 C34.1057812,56.2457813 34.4179688,56.3203125 34.7160937,56.4285938 C31.9640625,58.0879688 28.755,59.0610938 25.3125,59.0610938 C21.87,59.0610938 18.6623437,58.0865625 15.9089062,56.4271875 L15.9089062,56.4271875 Z M33.5770313,35.5064063 C32.934375,35.0184375 32.326875,34.7076562 31.7320313,34.5304688 L32.5814063,32.8021875 C33.046875,33.6332813 33.3885938,34.5417188 33.5770313,35.5064063 Z M28.5440625,34.644375 C27.9871875,34.8089063 27.410625,35.0254688 26.7975,35.2673438 C24.463125,36.1926563 21.2864063,37.4090625 15.496875,36.7171875 C15.7795313,31.9317188 19.7507813,28.1221875 24.6079688,28.1221875 C26.915625,28.1221875 29.0179688,28.9870313 30.628125,30.4003125 L28.5440625,34.644375 Z M16.875,39.67875 C22.3326562,40.03875 25.5839062,38.773125 27.8325,37.8829688 C30.4846875,36.8325 31.2721875,36.5315625 33.75,39.6759375 L33.75,42.17625 C33.75,46.8267187 29.9657812,50.6095313 25.3125,50.6095313 C20.6592188,50.6095313 16.875,46.8267187 16.875,42.17625 L16.875,39.67875 Z M25.3125,53.4220313 C26.2842188,53.4220313 27.2235938,53.2842188 28.125,53.0521875 L28.125,54.2489063 L27.8479687,54.5259375 L25.9425,53.5725 C25.9115625,53.5570313 25.8778125,53.5598438 25.846875,53.5457813 C25.7582812,53.5092188 25.666875,53.4895313 25.57125,53.47125 C25.4840625,53.454375 25.4010938,53.4375 25.3139063,53.4389063 C25.2253125,53.4375 25.14375,53.4557813 25.0551563,53.47125 C24.9609375,53.4895313 24.8695313,53.5078125 24.7795313,53.5457813 C24.75,53.5598438 24.7148438,53.5570313 24.6853125,53.5725 L22.7798438,54.5259375 L22.5,54.2489063 L22.5,53.0521875 C23.4014062,53.285625 24.3407813,53.4220313 25.3125,53.4220313 Z M25.3125,22.4971875 C35.3925,22.4971875 43.59375,30.6984375 43.59375,40.7784375 C43.59375,46.31625 41.1089062,51.2760938 37.2079688,54.6314063 C36.2320313,53.8635938 35.0339063,53.4276562 33.75,53.4276562 C33.7345312,53.4276562 33.7232812,53.4360937 33.7092187,53.4360937 L30.9375,53.4360937 L30.9375,51.901875 C34.2928125,49.9542188 36.5582813,46.3345312 36.5625,42.1875 C36.5625,42.1860937 36.5625,42.1860937 36.5625,42.1846875 L36.5625,37.2628125 C36.5625,34.1732813 35.3728125,31.3635937 33.4420312,29.23875 C33.4096875,29.1979688 33.373125,29.16 33.3365625,29.1234375 C31.1526562,26.7834375 28.0532812,25.3110938 24.6079687,25.3110938 C18.016875,25.3110938 12.65625,30.673125 12.65625,37.2628125 C12.65625,37.38375 12.695625,37.4920313 12.7251562,37.603125 C12.7125,37.6509375 12.6829687,37.6917188 12.6745312,37.7409375 C12.5521875,38.50875 13.0767187,39.22875 13.843125,39.3496875 C13.9204687,39.3623438 13.9865625,39.3651562 14.0625,39.3764063 L14.0625,42.1860937 L14.0625,42.1889063 C14.0667187,46.3359375 16.3321875,49.955625 19.6875,51.9032812 L19.6875,53.4375 L16.9157812,53.4375 C16.9003125,53.4375 16.8890625,53.4290625 16.875,53.4290625 C15.5910937,53.4290625 14.3929687,53.8664062 13.4170312,54.6328125 C9.51609375,51.2760938 7.03125,46.31625 7.03125,40.7784375 C7.03125,30.6984375 15.2325,22.4971875 25.3125,22.4971875 L25.3125,22.4971875 Z" id="Shape" fill="#4DAF51"></path><path d="M5.625,61.8778125 L9.84375,61.8778125 C10.6214063,61.8778125 11.25,61.2492187 11.25,60.4715625 C11.25,59.6939063 10.6214063,59.0653125 9.84375,59.0653125 L7.03125,59.0653125 L7.03125,56.2401563 C7.03125,55.4625 6.40265625,54.8339063 5.625,54.8339063 C4.84734375,54.8339063 4.21875,55.4625 4.21875,56.2401563 L4.21875,60.4715625 C4.21875,61.2492187 4.84734375,61.8778125 5.625,61.8778125 Z" id="Path" fill="#4DAF51"></path><path d="M5.625,26.7285938 C6.40265625,26.7285938 7.03125,26.1 7.03125,25.3223438 L7.03125,22.5098438 L9.855,22.5098438 C10.6326563,22.5098438 11.26125,21.88125 11.26125,21.1035938 C11.26125,20.3259375 10.6326563,19.6973438 9.855,19.6973438 L5.625,19.6973438 C4.84734375,19.6973438 4.21875,20.3259375 4.21875,21.1035938 L4.21875,25.3223438 C4.21875,26.1 4.84734375,26.7285938 5.625,26.7285938 Z" id="Path" fill="#4DAF51"></path><path d="M45.0084375,54.8325 C44.2307813,54.8325 43.6021875,55.4610937 43.6021875,56.23875 L43.6021875,59.0639062 L40.7896875,59.0639062 C40.0120313,59.0639062 39.3834375,59.6925 39.3834375,60.4701562 C39.3834375,61.2478125 40.0120313,61.8764062 40.7896875,61.8764062 L45.0084375,61.8764062 C45.7860937,61.8764062 46.4146875,61.2478125 46.4146875,60.4701562 L46.4146875,56.23875 C46.4146875,55.4610937 45.7860937,54.8325 45.0084375,54.8325 Z" id="Path" fill="#4DAF51"></path><path d="M40.7784375,22.5084375 L43.6021875,22.5084375 L43.6021875,25.3209375 C43.6021875,26.0985937 44.2307813,26.7271875 45.0084375,26.7271875 C45.7860937,26.7271875 46.4146875,26.0985937 46.4146875,25.3209375 L46.4146875,21.1021875 C46.4146875,20.3245312 45.7860937,19.6959375 45.0084375,19.6959375 L40.7784375,19.6959375 C40.0007813,19.6959375 39.3721875,20.3245312 39.3721875,21.1021875 C39.3721875,21.8798437 40.0007813,22.5084375 40.7784375,22.5084375 Z" id="Path" fill="#4DAF51"></path></g></g></g></svg> 