<?xml version="1.0" encoding="UTF-8"?> <svg xmlns="http://www.w3.org/2000/svg" xmlns:xlink="http://www.w3.org/1999/xlink" width="98px" height="92px" viewBox="0 0 98 92"><!-- Generator: Sketch 55.2 (78181) - https://sketchapp.com --><title>fast</title><desc>Created with Sketch.</desc><g id="Page-1" stroke="none" stroke-width="1" fill="none" fill-rule="evenodd"><g id="Artboard" transform="translate(-175.000000, -573.000000)" fill-rule="nonzero" stroke="#FFFFFF"><g id="fast" transform="translate(176.000000, 574.000000)"><path d="M90.0346444,33.321841 L92.8585356,30.4979498 C93.6751255,29.6817364 94.124749,28.5962762 94.124749,27.4419038 C94.124749,26.2875314 93.6751255,25.2020711 92.8587238,24.3858577 L89.6241841,21.151318 C88.8079707,20.3351046 87.7225105,19.8854812 86.5683264,19.8854812 C85.4137657,19.8854812 84.3284937,20.3351046 83.5122803,21.151318 L80.6882008,23.9753975 C76.9609205,21.4081381 72.7314854,19.5207741 68.178954,18.4940586 L68.178954,14.3199791 L69.8972385,14.3199791 C72.2238703,14.3199791 74.1168828,12.4269665 74.1168828,10.1003347 L74.1168828,4.23 C74.1168828,1.90317992 72.2238703,0.010167364 69.8972385,0.010167364 L50.4704184,0.010167364 C48.1437866,0.010167364 46.2507741,1.90317992 46.2507741,4.23 L46.2507741,10.1001464 C46.2507741,12.4267782 48.1437866,14.3197908 50.4704184,14.3197908 L52.1885146,14.3197908 L52.1885146,18.5055439 C47.6568828,19.5350837 43.4462762,21.4181172 39.7338703,23.9752092 L36.9097908,21.1511297 C36.0935774,20.3349163 35.0081172,19.8852929 33.8539331,19.8852929 C32.6993724,19.8852929 31.6141004,20.3349163 30.797887,21.1511297 L27.5633473,24.3856695 C25.8783891,26.0708159 25.8783891,28.8126151 27.5633473,30.4977615 L28.0639958,30.99841 L14.717636,30.99841 C13.6779289,30.99841 12.8347908,31.8413598 12.8347908,32.8812552 C12.8347908,33.9211506 13.6779289,34.7641004 14.717636,34.7641004 L29.4435565,34.7641004 C28.0406485,37.0237029 26.8791213,39.4476778 25.9962552,42.0011925 L1.88284519,42.0011925 C0.843138075,42.0011925 0,42.8441423 0,43.8840377 C0,44.9239331 0.843138075,45.7668828 1.88284519,45.7668828 L24.9198326,45.7668828 C24.388682,48.102364 24.0840377,50.5225732 24.0301883,53.0039749 L12.0502092,53.0039749 C11.0105021,53.0039749 10.167364,53.8469247 10.167364,54.8868201 C10.167364,55.9267155 11.0105021,56.7696653 12.0502092,56.7696653 L24.1427824,56.7696653 C24.346318,59.2614226 24.8036611,61.6820084 25.4882636,64.0067573 L9.41422594,64.0067573 C8.37451883,64.0067573 7.53138075,64.8497071 7.53138075,65.8896025 C7.53138075,66.9294979 8.37451883,67.7724477 9.41422594,67.7724477 L26.8275314,67.7724477 C32.3052929,80.8103975 45.205795,89.9900209 60.2109414,89.9900209 C80.1666527,89.9900209 96.4018619,73.7548117 96.4018619,53.7991004 C96.4018619,46.2038912 94.0481172,39.1490586 90.0346444,33.321841 Z M86.175,23.8140377 C86.3096234,23.6794142 86.4630753,23.6511715 86.5683264,23.6511715 C86.6733891,23.6511715 86.8270293,23.6794142 86.9616527,23.8140377 L90.1961925,27.0485774 C90.3308159,27.1832008 90.3590586,27.336841 90.3590586,27.4419038 C90.3590586,27.5469665 90.3308159,27.7006067 90.1960042,27.8352301 L87.7206276,30.3106067 C86.4869874,28.8679707 85.1422594,27.5232427 83.6996234,26.2896025 L86.175,23.8140377 Z M50.0164644,10.1003347 L50.0164644,4.23 C50.0164644,3.97958159 50.2201883,3.77585774 50.4704184,3.77585774 L69.8972385,3.77585774 C70.1474686,3.77585774 70.3511925,3.97958159 70.3511925,4.23 L70.3511925,10.1001464 C70.3511925,10.3505649 70.1474686,10.5541005 69.8972385,10.5541005 L66.2961088,10.5541005 L54.0713598,10.5541005 L50.4704184,10.5541005 C50.2201883,10.5542887 50.0164644,10.3505649 50.0164644,10.1003347 Z M55.954205,14.3199791 L64.4132636,14.3199791 L64.4132636,17.8535146 C63.0340795,17.6932845 61.6324895,17.6081799 60.2111297,17.6081799 C58.7709414,17.6081799 57.3510879,17.6953556 55.9543933,17.859728 L55.9543933,14.3199791 L55.954205,14.3199791 Z M30.2258787,27.0483891 L33.4604184,23.8138494 C33.5950418,23.6792259 33.7484937,23.6509833 33.8537448,23.6509833 C33.9588075,23.6509833 34.1124477,23.6792259 34.2470711,23.8138494 L36.7224477,26.2894142 C35.2798117,27.5230544 33.9350837,28.8677824 32.7014435,30.3104184 L30.2258787,27.8350418 C30.0089749,27.6183264 30.0089749,27.2652929 30.2258787,27.0483891 Z M60.2109414,86.2241423 C42.3316318,86.2241423 27.7857113,71.6782218 27.7857113,53.7989121 C27.7857113,35.9196025 42.3316318,21.373682 60.2109414,21.373682 C78.090251,21.373682 92.6361715,35.9196025 92.6361715,53.7989121 C92.6361715,71.6782218 78.090251,86.2241423 60.2109414,86.2241423 Z" id="XMLID_292_" fill="#3455D1"></path><path d="M72.6382845,38.7086611 L63.737887,47.6090586 C62.6970502,47.0137029 61.4935356,46.6714017 60.2109414,46.6714017 C56.2808787,46.6714017 53.0836192,49.8686611 53.0836192,53.7989121 C53.0836192,57.7289749 56.2808787,60.9262343 60.2109414,60.9262343 C64.1410042,60.9262343 67.3382636,57.7289749 67.3382636,53.7989121 C67.3382636,52.516318 66.9959623,51.3128033 66.4006067,50.2719665 L75.3010042,41.371569 C76.0362552,40.636318 76.0362552,39.4441004 75.3010042,38.7086611 C74.5655649,37.97341 73.3737238,37.97341 72.6382845,38.7086611 Z M60.2109414,57.1607322 C58.3572803,57.1607322 56.8493096,55.6527615 56.8493096,53.7991004 C56.8493096,51.9454393 58.3574686,50.4372803 60.2109414,50.4372803 C62.0644142,50.4372803 63.5725732,51.9454393 63.5725732,53.7991004 C63.5725732,55.6527615 62.0646025,57.1607322 60.2109414,57.1607322 Z" id="XMLID_899_" fill="#4DAF51"></path><path d="M60.2115063,29.387636 C60.7066946,29.387636 61.1924686,29.1861715 61.5424895,28.8359623 C61.8926987,28.4857531 62.0943515,27.9999791 62.0943515,27.5047908 C62.0943515,27.0096025 61.892887,26.5238285 61.5424895,26.1736192 C61.1924686,25.82341 60.7066946,25.6219456 60.2115063,25.6219456 C59.716318,25.6219456 59.2305439,25.82341 58.8803347,26.1736192 C58.5301255,26.5238285 58.3286611,27.0096025 58.3286611,27.5047908 C58.3286611,28.0018619 58.5299372,28.4857531 58.8803347,28.8359623 C59.2307322,29.1861715 59.716318,29.387636 60.2115063,29.387636 Z" id="XMLID_900_" fill="#3455D1"></path><path d="M60.2115063,78.2096234 C59.716318,78.2096234 59.2305439,78.4110879 58.8803347,78.7612971 C58.5301255,79.1115063 58.3286611,79.5972803 58.3286611,80.0924686 C58.3286611,80.5895397 58.5299372,81.073431 58.8803347,81.4236402 C59.2305439,81.7757322 59.716318,81.9753138 60.2115063,81.9753138 C60.7066946,81.9753138 61.1924686,81.7757322 61.5424895,81.4236402 C61.8926987,81.073431 62.0943515,80.5876569 62.0943515,80.0924686 C62.0943515,79.5972803 61.892887,79.1115063 61.5424895,78.7612971 C61.1924686,78.4110879 60.7066946,78.2096234 60.2115063,78.2096234 Z" id="XMLID_901_" fill="#3455D1"></path><path d="M41.61841,33.3225941 C41.1232218,33.3225941 40.6374477,33.5240586 40.2872385,33.8742678 C39.9370293,34.224477 39.7355649,34.710251 39.7355649,35.2054393 C39.7355649,35.7025105 39.936841,36.1864017 40.2872385,36.5384937 C40.6374477,36.8887029 41.1232218,37.0882845 41.61841,37.0882845 C42.1135983,37.0882845 42.5993724,36.8887029 42.9493933,36.5384937 C43.2996025,36.1864017 43.5012552,35.7025105 43.5012552,35.2054393 C43.5012552,34.710251 43.2997908,34.2263598 42.9493933,33.8742678 C42.5993724,33.5240586 42.1135983,33.3225941 41.61841,33.3225941 Z" id="XMLID_902_" fill="#3455D1"></path><path d="M78.8046025,70.5087866 C78.3073431,70.5087866 77.8236402,70.710251 77.4715481,71.0604603 C77.1213389,71.4106695 76.9217573,71.8964435 76.9217573,72.3916318 C76.9217573,72.8868201 77.1213389,73.3725941 77.4715481,73.7228033 C77.8236402,74.0730126 78.3073431,74.274477 78.8046025,74.274477 C79.2997908,74.274477 79.7855649,74.0730126 80.1355858,73.7228033 C80.485795,73.3725941 80.6874477,72.8868201 80.6874477,72.3916318 C80.6874477,71.8964435 80.4859833,71.4106695 80.1355858,71.0604603 C79.7855649,70.710251 79.2997908,70.5087866 78.8046025,70.5087866 Z" id="XMLID_903_" fill="#3455D1"></path><path d="M41.61841,70.5087866 C41.1232218,70.5087866 40.6374477,70.710251 40.2872385,71.0604603 C39.9370293,71.4106695 39.7355649,71.8964435 39.7355649,72.3916318 C39.7355649,72.8868201 39.936841,73.3725941 40.2872385,73.7228033 C40.637636,74.0730126 41.1232218,74.274477 41.61841,74.274477 C42.1135983,74.274477 42.5993724,74.0730126 42.9493933,73.7228033 C43.2996025,73.3725941 43.5012552,72.8868201 43.5012552,72.3916318 C43.5012552,71.8964435 43.2997908,71.4106695 42.9493933,71.0604603 C42.5993724,70.710251 42.1135983,70.5087866 41.61841,70.5087866 Z" id="XMLID_904_" fill="#3455D1"></path><path d="M33.9175732,51.9156904 C33.4205021,51.9156904 32.9366109,52.1171548 32.5864017,52.467364 C32.2344979,52.8175732 32.034728,53.3033473 32.034728,53.7985356 C32.034728,54.2937238 32.2344979,54.7794979 32.5864017,55.1297071 C32.9366109,55.4817992 33.4206904,55.6813808 33.9175732,55.6813808 C34.4127615,55.6813808 34.8985356,55.4817992 35.2487448,55.1297071 C35.5987657,54.7794979 35.8004184,54.2937238 35.8004184,53.7985356 C35.8004184,53.3033473 35.598954,52.8175732 35.2487448,52.467364 C34.8985356,52.1171548 34.4127615,51.9156904 33.9175732,51.9156904 Z" id="XMLID_905_" fill="#3455D1"></path><path d="M87.8366109,52.467364 C87.4864017,52.1171548 87.0006276,51.9156904 86.5054393,51.9156904 C86.0083682,51.9156904 85.524477,52.1171548 85.1744561,52.467364 C84.8242469,52.8175732 84.6225941,53.3033473 84.6225941,53.7985356 C84.6225941,54.2956067 84.8240586,54.7794979 85.1744561,55.1297071 C85.524477,55.4799163 86.010251,55.6813808 86.5054393,55.6813808 C87.0006276,55.6813808 87.4864017,55.4799163 87.8366109,55.1297071 C88.1868201,54.7794979 88.3882845,54.2937238 88.3882845,53.7985356 C88.3880962,53.3033473 88.1868201,52.8177615 87.8366109,52.467364 Z" id="XMLID_906_" fill="#3455D1"></path><path d="M1.88284519,64.0073222 C1.3876569,64.0073222 0.901882845,64.2069038 0.55167364,64.557113 C0.201464435,64.909205 0,65.3930962 0,65.8901674 C0,66.3853556 0.201276151,66.8692469 0.55167364,67.2213389 C0.901882845,67.5715481 1.3876569,67.7730126 1.88284519,67.7730126 C2.37803347,67.7730126 2.86380753,67.5715481 3.21382845,67.2213389 C3.56403766,66.8711297 3.76569038,66.3853556 3.76569038,65.8901674 C3.76569038,65.3930962 3.56422594,64.9073222 3.21382845,64.557113 C2.86380753,64.2069038 2.37803347,64.0073222 1.88284519,64.0073222 Z" id="XMLID_912_" fill="#3455D1"></path><path d="M85.951318,48.081841 C86.9477197,47.7849163 87.5150209,46.7363598 87.2180962,45.7397699 C85.8869247,41.2732845 83.4301883,37.1630335 80.1135565,33.8533682 C76.7963598,30.5433264 72.680272,28.0954393 68.2100209,26.7742469 C67.2130544,26.4793933 66.1656276,27.048954 65.8707741,28.0461088 C65.5759205,29.0432636 66.1454812,30.0906904 67.1428243,30.3853556 C75.0873013,32.7334519 81.2430753,38.8754812 83.6092469,46.8150628 C83.8526987,47.6322176 84.6016946,48.160545 85.4128243,48.160545 C85.5907531,48.160545 85.7718828,48.1351255 85.951318,48.081841 Z" id="XMLID_916_" fill="#4DAF51"></path></g></g></g></svg> 