<?xml version="1.0" encoding="UTF-8"?> <svg xmlns="http://www.w3.org/2000/svg" xmlns:xlink="http://www.w3.org/1999/xlink" width="108px" height="90px" viewBox="0 0 108 90"><!-- Generator: Sketch 55.2 (78181) - https://sketchapp.com --><title>fast-accurate</title><desc>Created with Sketch.</desc><g id="Page-1" stroke="none" stroke-width="1" fill="none" fill-rule="evenodd"><g id="Artboard" transform="translate(-1250.000000, -1587.000000)" fill-rule="nonzero"><g id="fast-accurate" transform="translate(1250.000000, 1587.000000)"><polygon id="Path" stroke="#3455D1" fill="#3455D1" points="78.4354873 63.6254026 60.7025761 45.8924912 60.7025761 15.7379794 65.1987887 15.7379794 65.1987887 44.0375257 81.6110766 60.4498133"></polygon><polygon id="Path" fill="#3455D1" points="8.99324874 56.2063635 38.219866 56.2063635 38.219866 60.7025761 8.99324874 60.7025761"></polygon><polygon id="Path" fill="#3455D1" points="0 42.7169021 29.2274408 42.7169021 29.2274408 47.2131148 0 47.2131148"></polygon><polygon id="Path" fill="#3455D1" points="8.99324874 29.2274408 38.219866 29.2274408 38.219866 33.7236534 8.99324874 33.7236534"></polygon><path d="M62.9510942,89.9300169 C46.7915691,89.9300169 31.7847079,81.1895309 23.8033336,67.109741 L27.7092177,64.8900396 C34.9043105,77.5644028 48.3937719,85.4329808 62.9510942,85.4329808 C85.2650212,85.4329808 103.419478,67.2785239 103.419478,44.9645967 C103.419478,22.6506697 85.2650212,4.49621262 62.9510942,4.49621262 C48.4217652,4.49621262 34.9323039,12.3376207 27.7380341,24.9839907 L23.8313268,22.763466 C31.8127013,8.7116693 46.7915691,2.84217094e-14 62.9510942,2.84217094e-14 C87.7374854,2.84217094e-14 107.915691,20.1782055 107.915691,44.9645967 C107.915691,69.7518114 87.7374854,89.9300169 62.9510942,89.9300169 Z" id="Path" fill="#4DAF51"></path></g></g></g></svg> 