<?xml version="1.0" encoding="UTF-8"?> <svg xmlns="http://www.w3.org/2000/svg" xmlns:xlink="http://www.w3.org/1999/xlink" width="67px" height="90px" viewBox="0 0 67 90"><!-- Generator: Sketch 55.2 (78181) - https://sketchapp.com --><title>FIDO-UAF-Certified</title><desc>Created with Sketch.</desc><g id="Page-1" stroke="none" stroke-width="1" fill="none" fill-rule="evenodd"><g id="Artboard" transform="translate(-979.000000, -1198.000000)" fill-rule="nonzero"><g id="FIDO-UAF-Certified" transform="translate(979.000000, 1198.000000)"><rect id="Rectangle" fill="#3455D1" x="31.635" y="5.73029297" width="3.88072266" height="3.1275"></rect><rect id="Rectangle" fill="#3455D1" x="26.9775" y="81.1439648" width="13.1939648" height="3.1275"></rect><path d="M57.303457,0 L9.84867188,0 C4.51476562,0 0.175078125,4.33898437 0.175078125,9.67271484 L0.175078125,80.3394141 C0.175078125,85.6664648 4.51494141,90 9.84867188,90 L57.303457,90 C62.6354297,90 66.9735352,85.6664648 66.9735352,80.3394141 L66.9735352,9.67271484 C66.9735352,4.33898437 62.6354297,0 57.303457,0 Z M63.8460352,80.3394141 C63.8460352,83.9420508 60.9113672,86.8725 57.3032812,86.8725 L9.84867188,86.8725 C6.23917969,86.8725 3.30257813,83.9420508 3.30257813,80.3394141 L3.30257813,9.67271484 C3.30257813,6.06322266 6.23935547,3.1275 9.84867188,3.1275 L57.303457,3.1275 C60.911543,3.1275 63.8460352,6.06322266 63.8460352,9.67271484 L63.8460352,80.3394141 L63.8460352,80.3394141 Z" id="Shape" fill="#3455D1"></path><path d="M7.17873047,78.5394141 L59.9704102,78.5394141 L59.9704102,11.4605859 L7.17873047,11.4605859 L7.17873047,78.5394141 Z M10.3058789,14.5875586 L56.8434375,14.5875586 L56.8434375,75.4122656 L10.3058789,75.4122656 L10.3058789,14.5875586 Z" id="Shape" fill="#3455D1"></path><path d="M33.5749219,28.4939648 C24.4736719,28.4939648 17.0688867,35.89875 17.0688867,45 C17.0688867,54.10125 24.4736719,61.5060352 33.5749219,61.5060352 C42.6766992,61.5060352 50.080957,54.10125 50.0804297,45 C50.0804297,35.89875 42.6761719,28.4939648 33.5749219,28.4939648 Z M33.5749219,58.3780078 C26.1984375,58.3780078 20.1969141,52.3763086 20.1969141,45 C20.1969141,37.6236914 26.1980859,31.6219922 33.5749219,31.6219922 C40.9522852,31.6219922 46.953457,37.6236914 46.953457,45 C46.953457,52.3764844 40.9517578,58.3780078 33.5749219,58.3780078 Z" id="Shape" fill="#4DAF51"></path><polygon id="Path" fill="#4DAF51" points="31.6552148 47.6532422 26.8711523 42.8683008 24.66 45.0792773 31.6552148 52.0767773 42.4903711 41.2407422 40.279043 39.0294141"></polygon></g></g></g></svg> 