<?xml version="1.0" encoding="UTF-8"?> <svg xmlns="http://www.w3.org/2000/svg" xmlns:xlink="http://www.w3.org/1999/xlink" width="90px" height="90px" viewBox="0 0 90 90"><!-- Generator: Sketch 55.2 (78181) - https://sketchapp.com --><title>high-accuracy</title><desc>Created with Sketch.</desc><g id="Page-1" stroke="none" stroke-width="1" fill="none" fill-rule="evenodd"><g id="Artboard" transform="translate(-935.000000, -287.000000)" fill-rule="nonzero"><g id="high-accuracy" transform="translate(935.000000, 287.000000)"><g id="Group" fill="#3455D1"><path d="M34.8986274,72.1699455 L38.5217136,63.3723431 C38.7515815,62.8136862 38.4854189,62.1746109 37.9274735,61.9447431 C37.3688164,61.7148754 36.7297413,61.981038 36.4998735,62.5389834 L32.8760754,71.3372976 C28.0751834,69.9865575 23.0536753,72.6147363 21.4260976,77.3295167 C19.7985197,82.0435855 22.1299342,87.2095617 26.7422349,89.1082838 C31.353824,91.007006 36.6464766,88.9801841 38.8106497,84.4867314 C40.9748229,79.992567 39.2589986,74.5910299 34.8986274,72.1699455 L34.8986274,72.1699455 Z M37.0115606,83.1523595 C35.6985386,86.3413304 32.3145718,88.158211 28.9306048,87.4920926 C25.5466377,86.8266858 23.1042035,83.8626012 23.097783,80.4138726 C23.090682,76.9644326 25.5210178,73.9910962 28.9021382,73.3114563 C32.2839701,72.6318162 35.6743421,74.4351752 37.0008856,77.6191644 C37.7431522,79.3876518 37.7474221,81.3803138 37.0115606,83.1523595 L37.0115606,83.1523595 Z" id="Shape"></path><path d="M54.9149165,17.8286311 L51.29183,26.6262336 C51.0619624,27.1848906 51.328125,27.8239657 51.8860703,28.0538335 C52.4447273,28.2837013 53.0838026,28.0175385 53.3136702,27.4595932 L56.9374685,18.6612792 C60.4118168,19.6398184 64.1395181,18.5452778 66.5342707,15.8445091 C68.9283117,13.1430288 69.5673867,9.31071298 68.1796401,5.97869745 C66.5933389,2.16915486 62.7112064,-0.163683036 58.6034761,0.223462713 C54.4950343,0.611320263 51.1174722,3.62877978 50.2720142,7.66747858 C49.4258446,11.7068888 51.30891,15.8252941 54.9163399,17.8286311 L54.9149165,17.8286311 Z M52.8019832,6.84621711 C54.1150051,3.65724638 57.4989721,1.84036555 60.8829391,2.50648397 C64.266906,3.17189077 66.7093402,6.13597555 66.7157607,9.58541557 C66.7228618,13.0341441 64.2925259,16.0074803 60.9114057,16.6871204 C57.5295737,17.3667605 54.1392016,15.5634014 52.8126581,12.3794124 C52.0703916,10.6109249 52.0661215,8.618263 52.8019832,6.84621711 Z" id="Shape"></path><path d="M83.8924911,50.8726594 C79.4751867,49.0607603 74.4003036,50.8363645 72.0774291,55.007433 L63.2798268,51.3843466 C62.7211696,51.1544787 62.0820946,51.4206415 61.8522267,51.9792985 C61.6223589,52.5372438 61.8885217,53.1763189 62.446467,53.4061867 L71.2440694,57.0299848 C69.874826,61.8984849 72.5962329,66.9797729 77.4085116,68.5368958 C82.2200784,70.0947306 87.4031345,67.5718781 89.146002,62.8243612 C90.8888695,58.0761324 88.5688417,52.7998482 83.8924911,50.873371 L83.8924911,50.8726594 Z M86.9910805,62.3326006 C85.6780586,65.5215714 82.2940916,67.3391638 78.9101246,66.6730454 C75.5261577,66.006927 73.0837235,63.0428422 73.0765912,59.593402 C73.06949,56.1446736 75.499826,53.1706256 78.881658,52.4909857 C82.26349,51.8113456 85.6538619,53.6154162 86.9804054,56.7994054 C87.7226721,58.5678928 87.7269421,60.5605547 86.9917921,62.3326006 L86.9910805,62.3326006 Z" id="Shape"></path><path d="M5.92105263,39.1259172 C10.3383572,40.944933 15.4182217,39.1679054 17.7389614,34.9918553 L26.5337171,38.6142302 C27.0923741,38.844098 27.7314493,38.5779352 27.961317,38.0199899 C28.1911848,37.4613329 27.9250222,36.8222577 27.3670768,36.5923898 L18.5694743,32.9693036 C19.9387177,28.1008035 17.2173108,23.0195153 12.4050323,21.4623926 C7.59346543,19.9045578 2.41040933,22.4274101 0.66754166,27.1749272 C-1.07532583,31.923156 1.244702,37.2001518 5.92105263,39.1259172 Z M2.8217516,27.6659761 C4.13548524,24.4762936 7.51874047,22.659413 10.9027075,23.3255314 C14.2873861,23.9916498 16.7298203,26.9557344 16.7369497,30.404463 C16.743342,33.853903 14.3130061,36.827951 10.9318857,37.5075911 C7.55005372,38.1872312 4.15897014,36.3831604 2.83313824,33.1991712 C2.09016,31.4306838 2.08660172,29.4380218 2.8217516,27.6659761 Z" id="Shape"></path><path d="M57.0420831,71.2889044 L53.3834135,62.5055353 C53.2382338,62.1376043 52.9058862,61.877135 52.5137589,61.8237601 C52.1223431,61.7703852 51.7323507,61.9326448 51.4939429,62.2486241 C51.2562469,62.5638917 51.2064302,62.9830623 51.3651316,63.3452998 L55.0238012,72.128669 C50.6741048,74.5682566 48.9810538,79.9761988 51.1637303,84.4611114 C53.3456953,88.9453126 58.6468877,90.9500728 63.2506484,89.0321356 C67.8544091,87.1134868 70.1637621,81.9382591 68.5162576,77.2313068 C66.8694647,72.5236431 61.8372818,69.9168143 57.0420831,71.2874809 L57.0420831,71.2889044 Z M66.3136544,83.0947147 C64.999921,86.2836854 61.6166656,88.1005662 58.2326985,87.4344478 C54.8480201,86.769041 52.4055859,83.8049564 52.3991652,80.3555162 C52.3920642,76.9067876 54.8224,73.9327398 58.2035203,73.2530997 C61.5853523,72.5734596 64.9757243,74.3775304 66.3022678,77.5608078 C67.045246,79.330007 67.0488045,81.3226689 66.3136544,83.0947147 L66.3136544,83.0947147 Z" id="Shape"></path><path d="M30.1973684,19.0740447 C31.0684464,19.0733331 31.9345426,18.9509267 32.7714606,18.7096722 L36.4301304,27.4930415 C36.5745983,27.8609722 36.9076575,28.122865 37.2997849,28.1762399 C37.6912006,28.2296148 38.0819048,28.0673552 38.3203126,27.7513759 C38.5587202,27.4353967 38.6078251,27.0155143 38.4484121,26.6532768 L34.7897425,17.8699077 C38.9188228,15.5520148 40.6830403,10.5269484 38.9081478,6.13668717 C37.133967,1.74642595 32.3743516,-0.641921903 27.7940758,0.559368583 C23.2138,1.76137087 20.2390404,6.17867526 20.8489372,10.8749525 C21.4581225,15.5705181 25.4619496,19.0825849 30.1973684,19.0747565 L30.1973684,19.0740447 Z M23.4998893,6.90528534 C24.8136229,3.71560281 28.1968781,1.89872217 31.5808451,2.56484059 C34.9648122,3.23095901 37.4072464,6.1950436 37.4143785,9.64377219 C37.4214797,13.0932124 34.9911437,16.0665486 31.6093117,16.7461887 C28.2281914,17.4258288 24.8371078,15.6224696 23.5112759,12.4384806 C22.7682977,10.6692814 22.7647394,8.67733105 23.4998893,6.90528534 Z" id="Shape"></path><path d="M62.4130187,36.5226468 C62.045088,36.6678264 61.7846185,37.000174 61.7312438,37.3923015 C61.6778688,37.7837171 61.8401285,38.1737095 62.1561077,38.4121173 C62.4713753,38.6498133 62.890546,38.69963 63.2527834,38.5409286 L72.0340176,34.8829706 C74.4707585,39.2419186 79.8829706,40.944933 84.3757116,38.7658148 C88.8691644,36.5866965 90.8831762,31.2819459 88.9687975,26.6703568 C87.0544186,22.0587677 81.8756326,19.7394515 77.1608521,21.3826861 C72.4453599,23.0259205 69.8292794,28.0616619 71.1963878,32.8639771 L62.4130187,36.5226468 Z M77.4675798,23.6037924 C81.1532926,22.0680193 85.3862759,23.8115986 86.9213372,27.4973116 C88.4571103,31.1830244 86.7135312,35.4160077 83.0278182,36.951069 C79.3421053,38.4868421 75.109122,36.743263 73.5740606,33.05755 C72.823254,31.2890626 72.8132906,29.2935538 73.5448824,27.5165264 C74.2764738,25.7402106 75.689129,24.3311139 77.4675798,23.6037924 L77.4675798,23.6037924 Z" id="Shape"></path><path d="M27.4005251,53.47593 C27.7684559,53.3307502 28.0289252,52.9984028 28.0823001,52.6069869 C28.135675,52.2148595 27.9734154,51.8248672 27.6574362,51.5864594 C27.3421685,51.3487632 26.9229979,51.2989468 26.5607603,51.4576479 L17.7773912,55.1163177 C15.3385153,50.7659098 9.92986142,49.0721469 5.444237,51.2548235 C0.959324393,53.4367884 -1.04543581,58.7379808 0.872501174,63.3424533 C2.79043834,67.946214 7.96566607,70.2562784 12.67333,68.6094857 C17.3817055,66.9626929 19.9885343,61.93051 18.6178675,57.1345996 L27.4005251,53.47593 Z M12.3459641,66.3947843 C8.66025109,67.9305573 4.42726779,66.1869782 2.89220648,62.5012652 C1.35643336,58.8155522 3.10001265,54.5825689 6.78572563,53.0475076 C10.4714384,51.5117347 14.7044219,53.2553138 16.2394832,56.9410267 C16.9902896,58.7095142 17.000253,60.7050228 16.2686614,62.4820502 C15.5370698,64.258366 14.1244149,65.6674626 12.3459641,66.3947843 Z" id="Shape"></path></g><path d="M61.3946261,46.8574455 C59.4560507,46.0575343 57.2214227,46.6859343 55.9838372,48.3789853 L47.7648184,44.9943067 L55.9703157,41.5761797 C57.3424058,43.4250854 59.8787798,43.9588341 61.8799817,42.8194585 C63.8811836,41.6807945 64.7173898,39.2276853 63.8292319,37.1033654 C62.9403624,34.9790455 60.6061013,33.8524798 58.3899766,34.4780333 C56.1745636,35.1028751 54.7732951,37.2841284 55.126281,39.5593213 L46.9243421,42.9760248 L50.3075973,34.7619877 C50.5310602,34.7961476 50.7573696,34.8132276 50.9836791,34.8132276 C53.2389454,34.8217674 55.1654226,33.1884964 55.5269484,30.9624083 C55.8884742,28.7363203 54.578299,26.5778402 52.4361873,25.8718686 C50.2940758,25.1658969 47.956968,26.1223747 46.9236305,28.127135 C45.8910046,30.1318952 46.4688765,32.589986 48.2871806,33.9243579 L44.9025019,42.1433767 L41.484375,33.9378796 C43.3254523,32.5686361 43.8556427,30.0408021 42.7198254,28.0467168 C41.5840081,26.0526316 39.1387272,25.2199836 37.0215239,26.1060065 C34.9043207,26.9913177 33.7813133,29.3177505 34.4040202,31.5267586 C35.0267269,33.7350551 37.1994402,35.1320535 39.4675164,34.7819141 L42.8842201,42.9838532 L34.6701828,39.6005978 C35.0238804,37.3054782 33.607667,35.1071452 31.3709039,34.48088 C29.1341409,33.853903 26.7820881,34.996837 25.8917954,37.1417954 C25.0015024,39.2874652 25.854077,41.7590778 27.876629,42.9005882 C29.8998926,44.0413872 32.4561932,43.4919819 33.8318415,41.6203031 L42.0508603,45.0056933 L33.8453632,48.4238203 C32.4732731,46.5749146 29.9368989,46.0411659 27.9356972,47.1798299 C25.9344951,48.3184938 25.0982889,50.7723147 25.9864468,52.895923 C26.8753163,55.0202429 29.2095774,56.1475202 31.4249905,55.5219667 C33.6411153,54.8964131 35.0423836,52.7158716 34.6893978,50.4406787 L42.8913366,47.0239752 L39.5080814,55.2380123 C37.2122501,54.8843149 35.013917,56.3005283 34.3876518,58.5372913 C33.7613866,60.7740542 34.9036089,63.1261071 37.0485672,64.0163999 C39.194237,64.9066928 41.6665612,64.0541183 42.8073602,62.0315663 C43.9481591,60.0083027 43.3987539,57.4520021 41.5270749,56.0763537 L44.9124652,47.8573349 L48.3305921,56.0628321 C46.4816864,57.4349221 45.9479378,59.9712961 47.0866017,61.9724981 C48.2259773,63.9737 50.6790865,64.8099064 52.8034065,63.9217485 C54.9270148,63.032879 56.0542921,60.6986178 55.4287387,58.482493 C54.8038968,56.26708 52.6226436,54.8658117 50.3474506,55.2187975 L46.930747,47.0168585 L55.1447843,50.4001139 C54.7932217,52.7500315 56.3047982,54.9768314 58.6191327,55.5176968 C60.9334672,56.0578504 63.2748451,54.7305952 64.0000315,52.4675006 C64.72593,50.204406 63.5922476,47.7633952 61.3946261,46.8574455 L61.3946261,46.8574455 Z M57.4370572,37.9616334 C57.8690379,36.9140626 58.9799469,36.3169756 60.0915677,36.5354566 C61.2031883,36.7546496 62.0059464,37.7282073 62.0080857,38.861178 C62.0102164,39.9941486 61.2117282,40.9705528 60.1008193,41.1940157 C58.9906219,41.4174786 57.8768662,40.8246615 57.4413271,39.7792257 C57.1965143,39.1977955 57.1950911,38.5430637 57.4363456,37.9609216 L57.4370572,37.9616334 Z M48.7867693,29.3455055 C49.2863582,28.1328284 50.6741048,27.5542448 51.886782,28.0538335 C53.0994591,28.5534222 53.6780427,29.941169 53.1784539,31.1545578 C52.6788652,32.3672349 51.2911184,32.9451069 50.0784413,32.4455181 C48.8664758,31.9452176 48.2886038,30.5581826 48.7860577,29.3447937 L48.7867693,29.3455055 Z M37.8691169,32.4704263 C36.8215461,32.0384458 36.2244591,30.9275366 36.4436519,29.815916 C36.6621331,28.7042954 37.6356908,27.9015373 38.7686614,27.899398 C39.9016321,27.8972672 40.8787481,28.6957552 41.102211,29.8066644 C41.324962,30.9168618 40.7328568,32.0306174 39.6867094,32.466868 C39.1052789,32.7102575 38.4505471,32.7116807 37.8684053,32.4697147 L37.8691169,32.4704263 Z M29.2537006,41.1207141 C28.0410234,40.6211254 27.4624399,39.2333786 27.9620288,38.0207015 C28.4616175,36.8080244 29.8493643,36.2294408 31.0620414,36.7290295 C32.2747185,37.2286184 32.8533021,38.6163652 32.3537134,39.8290423 C31.8527013,41.0410077 30.4656661,41.6188796 29.2522773,41.1200025 L29.2537006,41.1207141 Z M32.3779099,52.0383666 C31.9466409,53.0859374 30.8350202,53.6830244 29.7233996,53.4638316 C28.6117788,53.2453504 27.8097324,52.2717927 27.8075897,51.138822 C27.8047509,50.0058514 28.6032389,49.0287354 29.7141479,48.8059843 C30.8250568,48.5825214 31.9388127,49.1746267 32.3743516,50.2207743 C32.617741,50.8014929 32.6184526,51.4562247 32.3771983,52.0376549 L32.3779099,52.0383666 Z M41.0289094,60.6537829 C40.5293207,61.86646 39.1415739,62.4450436 37.9288968,61.9454549 C36.7162196,61.445866 36.1376361,60.0581194 36.6372248,58.8454422 C37.1368137,57.6327651 38.5245603,57.0548931 39.7372374,57.5537702 C40.9477795,58.055494 41.5249399,59.4411058 41.027486,60.6537829 L41.0289094,60.6537829 Z M51.9458502,57.5295737 C53.0667226,57.9942909 53.6524229,59.2340112 53.2994371,60.3947368 C52.9464513,61.5561741 51.7707805,62.2600107 50.5808767,62.0230263 C49.3902612,61.7860419 48.5739816,60.6850962 48.6935413,59.4774007 C48.8123893,58.2697053 49.8279352,57.3495223 51.0420356,57.3495223 C51.3516099,57.3495223 51.6590492,57.410014 51.9451386,57.5288619 L51.9458502,57.5295737 Z M61.85365,51.9792985 C61.3540612,53.1919756 59.9656028,53.7698476 58.7529257,53.2709705 C57.5402486,52.7713816 56.9623766,51.3829232 57.4619655,50.170246 C57.9608426,48.9575689 59.349301,48.3796969 60.5619782,48.8792859 C61.1469667,49.1155586 61.6123957,49.5767175 61.8550734,50.1588594 C62.0977511,50.7417131 62.0963279,51.3971565 61.8522267,51.9785869 L61.85365,51.9792985 Z" id="Shape" fill="#4DAF51"></path></g></g></g></svg> 