<?xml version="1.0" encoding="UTF-8"?> <svg xmlns="http://www.w3.org/2000/svg" xmlns:xlink="http://www.w3.org/1999/xlink" width="80px" height="90px" viewBox="0 0 80 90"><!-- Generator: Sketch 55.2 (78181) - https://sketchapp.com --><title>intelligent-ui</title><desc>Created with Sketch.</desc><g id="Page-1" stroke="none" stroke-width="1" fill="none" fill-rule="evenodd"><g id="Artboard" transform="translate(-290.000000, -1587.000000)" fill-rule="nonzero"><g id="intelligent-ui" transform="translate(290.000000, 1587.000000)"><path d="M26.4221191,17.0995331 C26.4221191,9.12483211 32.9102325,2.63671875 40.8856201,2.63671875 C48.8603211,2.63671875 55.3484345,9.12483211 55.3484345,17.0995331 L55.3484345,32.5195312 L57.9851532,32.5195312 L57.9851532,17.0995331 C57.9851532,7.67120361 50.3146362,0 40.8856201,0 C31.456604,0 23.7854004,7.67120361 23.7854004,17.0995331 L23.7854004,32.5195312 L26.4221191,32.5195312 L26.4221191,17.0995331 Z" id="Path" fill="#3455D1"></path><path d="M40.8856201,57.2751617 C50.3146362,57.2751617 57.9851532,49.6039581 57.9851532,40.1756287 L57.9851532,34.7167969 L23.7854004,34.7167969 L23.7854004,40.1756287 C23.7854004,49.6039581 31.456604,57.2751617 40.8856201,57.2751617 L40.8856201,57.2751617 Z M26.4221191,37.3535156 L55.3484345,37.3535156 L55.3484345,40.1756287 C55.3484345,48.1503296 48.8603211,54.6384429 40.8856201,54.6384429 C32.9102325,54.6384429 26.4221191,48.1503296 26.4221191,40.1756287 L26.4221191,37.3535156 Z" id="Shape" fill="#3455D1"></path><path d="M30.4850006,79.6879579 L27.0758057,83.0971528 L27.0758057,90 L54.694748,90 L54.694748,83.0971528 L51.2855529,79.6879579 L30.4850006,79.6879579 Z M52.0580292,87.3632812 L29.713211,87.3632812 L29.713211,84.188919 L31.5774536,82.3246766 L50.1937866,82.3246766 L52.0580292,84.188919 L52.0580292,87.3632812 Z" id="Shape" fill="#3455D1"></path><polygon id="Path" fill="#3455D1" points="30.0757598 25.6626893 32.7124786 25.6626893 32.7124786 28.299408 30.0757598 28.299408"></polygon><polygon id="Path" fill="#3455D1" points="30.0757598 30.3208924 32.7124786 30.3208924 32.7124786 32.9576112 30.0757598 32.9576112"></polygon><polygon id="Path" fill="#3455D1" points="34.8218536 25.6626893 37.4585723 25.6626893 37.4585723 28.299408 34.8218536 28.299408"></polygon><polygon id="Path" fill="#3455D1" points="34.8218536 30.3208924 37.4585723 30.3208924 37.4585723 32.9576112 34.8218536 32.9576112"></polygon><polygon id="Path" fill="#3455D1" points="39.5679473 25.6626893 42.2046661 25.6626893 42.2046661 28.299408 39.5679473 28.299408"></polygon><polygon id="Path" fill="#3455D1" points="39.5679473 30.3208924 42.2046661 30.3208924 42.2046661 32.9576112 39.5679473 32.9576112"></polygon><polygon id="Path" fill="#3455D1" points="44.3140411 25.6626893 46.9507598 25.6626893 46.9507598 28.299408 44.3140411 28.299408"></polygon><polygon id="Path" fill="#3455D1" points="44.3140411 30.3208924 46.9507598 30.3208924 46.9507598 32.9576112 44.3140411 32.9576112"></polygon><polygon id="Path" fill="#3455D1" points="49.0601348 25.6626893 51.6968536 25.6626893 51.6968536 28.299408 49.0601348 28.299408"></polygon><polygon id="Path" fill="#3455D1" points="49.0601348 30.3208924 51.6968536 30.3208924 51.6968536 32.9576112 49.0601348 32.9576112"></polygon><polygon id="Path" fill="#3455D1" points="30.0757598 16.0839844 32.7124786 16.0839844 32.7124786 18.7207031 30.0757598 18.7207031"></polygon><polygon id="Path" fill="#3455D1" points="30.0757598 20.7421875 32.7124786 20.7421875 32.7124786 23.3789062 30.0757598 23.3789062"></polygon><polygon id="Path" fill="#3455D1" points="34.8218536 16.0839844 37.4585723 16.0839844 37.4585723 18.7207031 34.8218536 18.7207031"></polygon><polygon id="Path" fill="#3455D1" points="34.8218536 20.7421875 37.4585723 20.7421875 37.4585723 23.3789062 34.8218536 23.3789062"></polygon><polygon id="Path" fill="#3455D1" points="39.5679473 16.0839844 42.2046661 16.0839844 42.2046661 18.7207031 39.5679473 18.7207031"></polygon><polygon id="Path" fill="#3455D1" points="39.5679473 20.7421875 42.2046661 20.7421875 42.2046661 23.3789062 39.5679473 23.3789062"></polygon><polygon id="Path" fill="#3455D1" points="44.3140411 16.0839844 46.9507598 16.0839844 46.9507598 18.7207031 44.3140411 18.7207031"></polygon><polygon id="Path" fill="#3455D1" points="44.3140411 20.7421875 46.9507598 20.7421875 46.9507598 23.3789062 44.3140411 23.3789062"></polygon><polygon id="Path" fill="#3455D1" points="49.0601348 16.0839844 51.6968536 16.0839844 51.6968536 18.7207031 49.0601348 18.7207031"></polygon><polygon id="Path" fill="#3455D1" points="49.0601348 20.7421875 51.6968536 20.7421875 51.6968536 23.3789062 49.0601348 23.3789062"></polygon><polygon id="Path" fill="#3455D1" points="30.0757598 11.1634826 32.7124786 11.1634826 32.7124786 13.8002013 30.0757598 13.8002013"></polygon><polygon id="Path" fill="#3455D1" points="34.8218536 6.50527945 37.4585723 6.50527945 37.4585723 9.1419982 34.8218536 9.1419982"></polygon><polygon id="Path" fill="#3455D1" points="34.8218536 11.1634826 37.4585723 11.1634826 37.4585723 13.8002013 34.8218536 13.8002013"></polygon><polygon id="Path" fill="#3455D1" points="39.5679473 6.50527945 42.2046661 6.50527945 42.2046661 9.1419982 39.5679473 9.1419982"></polygon><polygon id="Path" fill="#3455D1" points="39.5679473 11.1634826 42.2046661 11.1634826 42.2046661 13.8002013 39.5679473 13.8002013"></polygon><polygon id="Path" fill="#3455D1" points="44.3140411 6.50527945 46.9507598 6.50527945 46.9507598 9.1419982 44.3140411 9.1419982"></polygon><polygon id="Path" fill="#3455D1" points="44.3140411 11.1634826 46.9507598 11.1634826 46.9507598 13.8002013 44.3140411 13.8002013"></polygon><polygon id="Path" fill="#3455D1" points="49.0601348 11.1634826 51.6968536 11.1634826 51.6968536 13.8002013 49.0601348 13.8002013"></polygon><polygon id="Path" fill="#4DAF51" points="17.915268 19.9401855 20.4476166 24.3099976 22.7286529 22.988205 17.7449799 14.3879699 13.4026337 23.0671691 9.93026742 16.7651367 7.09854117 21.3787079 0 21.3787079 0 24.0154267 8.5741425 24.0154267 9.80735783 22.0056152 13.5159302 28.7354278"></polygon><polygon id="Path" fill="#4DAF51" points="72.4596405 19.8797607 69.828415 16.3641357 66.6053009 21.1624146 62.6200103 14.2856597 59.1188048 22.0220947 61.5206909 23.1097412 62.909088 20.0424957 66.4398193 26.135788 69.944458 20.9200287 71.1392212 22.5164795 79.6357726 22.5164795 79.6357726 19.8797607"></polygon><path d="M59.8260498,40.4454804 C59.8260498,50.8969116 51.3370513,59.3852235 40.8863067,59.3852235 C40.8492279,59.3852235 40.8114624,59.3852235 40.7750702,59.3852235 C30.3923036,59.3254853 21.9451904,50.7293701 21.9451904,40.2223205 L21.9451904,33.5604858 L11.3983154,33.5604858 L11.3983154,40.2978516 C11.3983154,54.8073578 21.9602967,67.1189117 36.1532593,69.4054413 L36.1532593,77.4906922 L38.789978,77.4906922 L38.789978,67.0914459 L37.629547,66.9513702 C24.1788482,65.3260802 14.0350342,53.86734 14.0350342,40.2978516 L14.0350342,36.1972046 L19.3084717,36.1972046 L19.3084717,40.2223205 C19.3084717,52.1747589 28.9318085,61.9539643 40.7599639,62.0219422 C52.8346252,62.0734405 62.4627686,52.3031616 62.4627686,40.4454804 L62.4627686,36.1972046 L67.7362061,36.1972046 L67.7362061,40.2978516 C67.7362061,53.86734 57.592392,65.3260802 44.1416932,66.9513702 L42.9812622,67.0914459 L42.9812622,77.4906922 L45.617981,77.4906922 L45.617981,69.4054413 C59.8109435,67.1189117 70.3729248,54.8073578 70.3729248,40.2978516 L70.3729248,33.5604858 L59.8260498,33.5604858 L59.8260498,40.4454804 Z" id="Path" fill="#3455D1"></path><path d="M44.4843292,65.8115387 L44.1156006,63.2002257 C49.4295502,62.4497222 54.3493652,59.8212432 57.9693604,55.7995605 C59.8851014,53.6709595 61.3689423,51.240921 62.3796845,48.5760498 L64.8454286,49.5105743 C63.7179565,52.4823761 62.0638276,55.1911925 59.9290467,57.5635528 C55.8956909,62.0452881 50.4107666,64.9745177 44.4843292,65.8115387 L44.4843292,65.8115387 Z M65.4393769,47.7561952 L62.9125214,47.0022583 C63.1494141,46.2091827 63.345108,45.3934478 63.4941102,44.5790863 L66.0875702,45.0535584 C65.9214019,45.9619903 65.7030488,46.871109 65.4393769,47.7561952 Z M66.3553619,43.2195282 L63.7337494,42.9338837 C63.8237,42.1119689 63.8690186,41.2749482 63.8690186,40.4454804 L66.5057373,40.4454804 C66.5057373,41.3697052 66.4549256,42.3028564 66.3553619,43.2195282 L66.3553619,43.2195282 Z" id="Shape" fill="#3455D1"></path><path d="M40.8856201,52.8806304 L40.8856201,50.2439117 C43.5367584,50.2439117 46.0416412,49.2173768 47.9381562,47.3538208 L49.7866059,49.2345429 C47.3936463,51.5856171 44.2323302,52.8806304 40.8856201,52.8806304 L40.8856201,52.8806304 Z M51.0733795,47.7596283 L48.9605713,46.1824035 C49.426117,45.5582428 49.8188781,44.8812104 50.1278687,44.1705322 L52.5462342,45.2204132 C52.1562196,46.1178589 51.661148,46.9727325 51.0733795,47.7596283 L51.0733795,47.7596283 Z M53.1848145,43.3657837 L50.6332397,42.7031708 C50.8268739,41.9547271 50.9346772,41.180191 50.9518433,40.4008485 L53.5878754,40.4585265 C53.5659028,41.4418029 53.4306336,42.4195861 53.1848145,43.3657837 L53.1848145,43.3657837 Z" id="Shape" fill="#3455D1"></path><path d="M49.5874786,86.1623383 L46.2181092,86.1623383 L46.2181092,83.5256196 L49.5874786,83.5256196 L49.5874786,86.1623383 Z M44.4602967,86.1623383 L41.823578,86.1623383 L41.823578,83.5256196 L44.4602967,83.5256196 L44.4602967,86.1623383 Z M40.0657655,86.1623383 L37.4290467,86.1623383 L37.4290467,83.5256196 L40.0657655,83.5256196 L40.0657655,86.1623383 Z" id="Shape" fill="#3455D1"></path></g></g></g></svg> 