<?xml version="1.0" encoding="UTF-8"?> <!-- Generator: Adobe Illustrator 19.0.0, SVG Export Plug-In . SVG Version: 6.00 Build 0) --> <svg xmlns="http://www.w3.org/2000/svg" xmlns:xlink="http://www.w3.org/1999/xlink" version="1.1" id="Layer_1" x="0px" y="0px" viewBox="0 0 24.166666 7.75" style="enable-background:new 0 0 24.166666 7.75;" xml:space="preserve"> <style type="text/css"> ._x005B_Default_x005D_{fill:#FFFFFF;stroke:#1D1E1C;stroke-miterlimit:10;} .Drop_x0020_Shadow{fill:none;} .Round_x0020_Corners_x0020_2_x0020_pt{fill:#FFFFFF;stroke:#1D1E1C;stroke-miterlimit:10;} .Live_x0020_Reflect_x0020_X{fill:none;} .Bevel_x0020_Soft{fill:url(#SVGID_1_);} .Dusk{fill:#FFFFFF;} .Foliage_GS{fill:#FFDA05;} .Pompadour_GS{fill-rule:evenodd;clip-rule:evenodd;fill:#51ACE0;} .st0{fill:#FFCD00;} </style> <linearGradient id="SVGID_1_" gradientUnits="userSpaceOnUse" x1="-307.25" y1="-324.875" x2="-306.5429077" y2="-324.1678772"> <stop offset="0" style="stop-color:#E5E5EA"></stop> <stop offset="0.1768481" style="stop-color:#E1E1E6"></stop> <stop offset="0.3581408" style="stop-color:#D5D5DA"></stop> <stop offset="0.5415166" style="stop-color:#C0C1C5"></stop> <stop offset="0.7262921" style="stop-color:#A4A5A8"></stop> <stop offset="0.9104853" style="stop-color:#7F8284"></stop> <stop offset="1" style="stop-color:#6B6E6F"></stop> </linearGradient> <g id="kakao"> <path id="XMLID_3208_" class="st0" d="M1.1322166,7.3164787H0.3092028V0.4009048L1.1322166,0.2218V7.3164787z M3.3333499,2.2976935 L3.9775503,2.762789L2.3938308,4.7489843l1.8341789,2.2008419L3.5925438,7.4419999l-2.165019-2.648458L3.3333499,2.2976935z"></path> <path id="XMLID_3205_" class="st0" d="M4.9566717,6.0015726c0-0.4950891,0.1654148-0.8725266,0.4968376-1.1317205 c0.3308411-0.2594957,0.81253-0.389379,1.4445086-0.389379h0.9488263V4.1673937 c0-0.7574892-0.3343267-1.1360931-1.0024204-1.1360931c-0.214345,0-0.4397559,0.029712-0.6750679,0.089417 C5.9334612,3.1804121,5.7173672,3.2549732,5.5204916,3.3443799L5.2787666,2.762789 c0.2446399-0.1371706,0.5084872-0.2428908,0.7921567-0.3177328C6.3539991,2.3707969,6.6300788,2.333225,6.8980179,2.333225 c1.1573515,0,1.7357359,0.6174138,1.7357359,1.8519394v3.1313143H8.0256586L7.9272246,6.779737 C7.6825953,6.976613,7.4216523,7.1286397,7.1443973,7.2360983C6.8671398,7.3435674,6.6032925,7.397151,6.3522511,7.397151 c-0.4351034,0-0.7764263-0.1237721-1.0239716-0.3713164C5.0807352,6.7782898,4.9566717,6.4369664,4.9566717,6.0015726z M6.5013618,6.7351794c0.1129971,0,0.2300649-0.0148454,0.3518066-0.0448489 C6.9749002,6.6606288,7.096632,6.621891,7.2183743,6.5741372C7.340106,6.5263734,7.4548521,6.4681258,7.5614362,6.3996859 c0.1071777-0.0687308,0.2021227-0.1418343,0.285408-0.2193003V5.0352669H6.9912138 c-0.4333525,0-0.7496281,0.0745606-0.9488368,0.2236619C5.8437629,5.4080405,5.744154,5.6436543,5.744154,5.9657493 C5.744154,6.4786091,5.9963622,6.7351794,6.5013618,6.7351794z"></path> <path id="XMLID_1359_" class="st0" d="M10.92167,7.3164787h-0.8230238V0.4009048L10.92167,0.2218V7.3164787z M13.1222105,2.2976935 l0.6442003,0.4650955l-1.5831366,1.9861953l1.8335953,2.2008419l-0.6348829,0.4921737l-2.1650076-2.648458L13.1222105,2.2976935z"></path> <path id="XMLID_1317_" class="st0" d="M14.7461147,6.0015726c0-0.4950891,0.1654148-0.8725266,0.4962549-1.1317205 c0.3314238-0.2594957,0.812541-0.389379,1.4450922-0.389379h0.9482422V4.1673937 c0-0.7574892-0.3337421-1.1360931-1.0018272-1.1360931c-0.2149277,0-0.4397659,0.029712-0.6756611,0.089417 c-0.2358942,0.0596945-0.4519873,0.1342556-0.6482811,0.2236624l-0.241725-0.5815909 c0.2446404-0.1371706,0.5084991-0.2428908,0.7915735-0.3177328c0.2830753-0.0742593,0.559166-0.1118312,0.8276787-0.1118312 c1.1567669,0,1.7357349,0.6174138,1.7357349,1.8519394v3.1313143h-0.6086693L17.7160854,6.779737 c-0.2446289,0.196876-0.5049896,0.3489027-0.7828293,0.4563613C16.6560097,7.3435674,16.3921528,7.397151,16.141695,7.397151 c-0.4356861,0-0.7770109-0.1237721-1.0245552-0.3713164C14.8695955,6.7782898,14.7461147,6.4369664,14.7461147,6.0015726z M16.2908058,6.7351794c0.1124134,0,0.2300739-0.0148454,0.3518066-0.0448489 c0.1217308-0.0297017,0.2434635-0.0684395,0.3652058-0.1161933c0.1217308-0.0477638,0.2358932-0.1060114,0.3430729-0.1744514 c0.1065826-0.0687308,0.2015285-0.1418343,0.2848129-0.2193003V5.0352669h-0.8550472 c-0.4339371,0-0.7502117,0.0745606-0.9488363,0.2236619c-0.1991978,0.1491117-0.2982121,0.3847256-0.2982121,0.7068205 C15.5336084,6.4786091,15.7858057,6.7351794,16.2908058,6.7351794z"></path> <path id="XMLID_1265_" class="st0" d="M21.7345219,2.3422511c0.6797428,0,1.2138615,0.2207577,1.6011887,0.6619713 c0.3879223,0.441505,0.5818825,1.0737643,0.5818825,1.8967886c0,0.8110728-0.1922131,1.434608-0.577219,1.8699918 c-0.3844223,0.4351025-0.92029,0.652945-1.6058521,0.652945c-0.6797314,0-1.21385-0.2178426-1.6011887-0.652945 c-0.3879108-0.4353838-0.5818729-1.058919-0.5818729-1.8699918c0-0.8230243,0.195118-1.4552836,0.5859547-1.8967886 C20.5282497,2.5630088,21.0606213,2.3422511,21.7345219,2.3422511z M21.7345219,3.0042224 c-0.4292736,0-0.7589474,0.1610527-0.9884396,0.4831476c-0.2300644,0.3221054-0.3448105,0.7933121-0.3448105,1.413641 c0,0.6144986,0.1147461,1.0781369,0.3448105,1.3912058c0.2294922,0.3130794,0.559166,0.4697599,0.9884396,0.4697599 c0.4351025,0,0.7676907-0.1566806,0.9977665-0.4697599c0.2294827-0.3130689,0.3442287-0.7767072,0.3442287-1.3912058 c0-0.6203289-0.1147461-1.0915356-0.3442287-1.413641C22.5022125,3.1652751,22.1696243,3.0042224,21.7345219,3.0042224z"></path> </g> </svg> 