<?xml version="1.0" encoding="UTF-8"?> <svg xmlns="http://www.w3.org/2000/svg" xmlns:xlink="http://www.w3.org/1999/xlink" width="90px" height="90px" viewBox="0 0 90 90"><!-- Generator: Sketch 55.2 (78181) - https://sketchapp.com --><title>loud-sounds</title><desc>Created with Sketch.</desc><g id="Page-1" stroke="none" stroke-width="1" fill="none" fill-rule="evenodd"><g id="Artboard" transform="translate(-137.000000, -1913.000000)" fill-rule="nonzero"><g id="loud-sounds" transform="translate(137.000000, 1913.000000)"><path d="M73.5319149,73.5319149 L73.5319149,44.936234 C73.5319149,29.168234 60.7021277,16.3405532 44.936234,16.3405532 C29.1703404,16.3405532 16.3403617,29.168234 16.3403617,44.936234 L16.3403617,73.5319149 C11.8363404,73.5319149 8.17008511,77.1960638 8.17008511,81.7021915 L8.17008511,87.8298511 C8.17008511,88.9588723 9.08368085,89.8724681 10.2127021,89.8724681 L79.6595745,89.8724681 C80.7885957,89.8724681 81.7021915,88.9588723 81.7021915,87.8298511 L81.7021915,81.7021915 C81.7021915,77.1960638 78.0359362,73.5319149 73.5319149,73.5319149 Z M20.4255957,44.936234 C20.4255957,31.4203404 31.4203404,20.4255957 44.936234,20.4255957 C58.4521277,20.4255957 69.4468723,31.4203404 69.4468723,44.936234 L69.4468723,73.5319149 L20.4255957,73.5319149 L20.4255957,44.936234 Z M77.6169574,85.787234 L12.2553191,85.787234 L12.2553191,81.7021915 C12.2553191,79.4502766 14.0863404,77.6171489 16.3403617,77.6171489 L73.5319149,77.6171489 C75.7859362,77.6171489 77.6169574,79.4502766 77.6169574,81.7021915 L77.6169574,85.787234 L77.6169574,85.787234 Z" id="Shape" fill="#3455D1"></path><path d="M44.936234,12.2553191 C46.0652553,12.2553191 46.9788511,11.3417234 46.9788511,10.2127021 L46.9788511,2.04261702 C46.9786596,0.913595745 46.0650638,0 44.936234,0 C43.8074043,0 42.893617,0.913595745 42.893617,2.04261702 L42.893617,10.2128936 C42.893617,11.3417234 43.8072128,12.2553191 44.936234,12.2553191 Z" id="Path" fill="#4DAF51"></path><path d="M65.3578085,14.2979362 C65.880383,14.2979362 66.4029574,14.0984043 66.8020213,13.6995319 L72.9337021,7.57187234 C73.7316383,6.77604255 73.7316383,5.48138298 72.9337021,4.6836383 C72.135766,3.88570213 70.8432128,3.88570213 70.0454681,4.6836383 L63.9137872,10.8112979 C63.1158511,11.6071277 63.1158511,12.9017872 63.9137872,13.6995319 C64.3124681,14.0984043 64.8350426,14.2979362 65.3578085,14.2979362 Z" id="Path" fill="#4DAF51"></path><path d="M23.0624043,13.6995319 C23.4612766,14.0984043 23.9840426,14.2979362 24.506617,14.2979362 C25.0291915,14.2979362 25.551766,14.0984043 25.9508298,13.6995319 C26.748766,12.9037021 26.748766,11.6090426 25.9508298,10.8112979 L19.8271915,4.6836383 C19.0292553,3.88570213 17.7367021,3.88570213 16.9389574,4.6836383 C16.1410213,5.47946809 16.1410213,6.77412766 16.9389574,7.57187234 L23.0624043,13.6995319 Z" id="Path" fill="#4DAF51"></path><path d="M89.6568511,23.5970426 C89.1501702,22.5877021 87.9294255,22.1848085 86.9160638,22.6834468 L78.7457872,26.7684894 C77.7364468,27.2730638 77.3295319,28.4999362 77.8321915,29.5092766 C78.191234,30.2254468 78.9133404,30.6382979 79.659383,30.6382979 C79.9665319,30.6382979 80.2777021,30.5684043 80.5729787,30.4228723 L88.7432553,26.3378298 C89.7525957,25.8330638 90.1595106,24.606383 89.6568511,23.5970426 Z" id="Path" fill="#4DAF51"></path><path d="M10.2127021,30.6382979 C10.9587447,30.6382979 11.6808511,30.2254468 12.0398936,29.5092766 C12.5425532,28.4999362 12.1356383,27.2732553 11.1262979,26.7684894 L2.95602128,22.6834468 C1.94668085,22.1888298 0.721914894,22.5877021 0.215234043,23.5970426 C-0.287425532,24.606383 0.119489362,25.8330638 1.12882979,26.3378298 L9.29910638,30.4228723 C9.59438298,30.5684043 9.90555319,30.6382979 10.2127021,30.6382979 Z" id="Path" fill="#4DAF51"></path><path d="M44.936234,24.5106383 C33.6741702,24.5106383 24.5106383,33.6741702 24.5106383,44.936234 C24.5106383,46.0652553 25.424234,46.9788511 26.5532553,46.9788511 C27.6822766,46.9788511 28.5958723,46.0652553 28.5958723,44.936234 C28.5958723,35.9262766 35.9243617,28.5958723 44.936234,28.5958723 C46.0652553,28.5958723 46.9788511,27.6822766 46.9788511,26.5532553 C46.9788511,25.424234 46.0650638,24.5106383 44.936234,24.5106383 Z" id="Path" fill="#4DAF51"></path></g></g></g></svg> 