<?xml version="1.0" encoding="UTF-8"?> <svg xmlns="http://www.w3.org/2000/svg" width="92" height="36" viewBox="0 0 92 36"><g fill="none" fill-rule="nonzero"><path fill="#34364E" d="M43.684 30.722h3.136v-13.01h-3.136v13.01zM44 12.852a.334.334 0 0 0-.316.316v2.82h3.136v-2.814a.276.276 0 0 0-.315-.315L44 12.853zm-8.781 0a.276.276 0 0 0-.315.316v2.507c0 2.979-.315 7.367-3.92 11.913l-2.039-14.316c-.052-.262-.104-.42-.417-.42h-3.032c-.315 0-.315.21-.315.316-.21 6.947-3.397 16.352-10.975 17.763.26 0 .521.052.788.052 4.756 0 9.926-3.186 11.446-9.352l1.26 9.51a20.717 20.717 0 0 1-9.355 2.246c-7.213 0-14.163-3.97-17.613-11.756C2.927 31.14 10.767 36 18.554 36c7.683 0 15.261-4.755 17.3-14.37 0 0 1.41 8.778 1.41 9.092h4.224L38.51 13.174c-.053-.21-.105-.315-.367-.315l-2.924-.006zM3.235 20.222c.21-10.503 8.677-16.668 17.406-16.668 5.487 0 11.079 2.404 14.737 7.732C32.398 3.501 25.71 0 19.073 0 10.396 0 1.825 6.06 1.825 16.616c.012 2.473.66 4.902 1.882 7.053a13.06 13.06 0 0 1-.473-3.448h.001zm76.829 1.102l1.26.473c.876-1.444 2.091-2.09 3.555-2.09 1.567 0 3.031.992 3.031 2.82v.21c-.89-.22-1.801-.343-2.718-.365-3.083 0-5.435 1.515-5.435 4.753 0 2.404 2.3 3.815 4.599 3.815 1.307 0 2.665-.472 3.554-1.463v1.26h2.822v-8.634c0-2.821-2.403-4.598-4.965-4.598-2.352 0-4.86 1.26-5.697 3.813l-.006.006zm7.84 6.578a5.358 5.358 0 0 1-2.77.787c-1.358 0-2.56-.574-2.56-2.038 0-1.672 1.358-2.507 3.031-2.507.79.01 1.57.17 2.299.472v3.286zm-10.348-3.134c0-4.233-2.247-7.263-6.22-7.263-3.92 0-6.637 3.03-6.637 6.636 0 4.284 3.501 6.74 6.898 6.74 2.458 0 4.808-1.26 5.803-4.077l-1.103-.472c-.788 1.15-2.457 1.828-4.13 1.828-1.985 0-3.92-.992-4.18-3.396l9.569.004zm-9.564-1.881c.315-1.986 1.83-3.03 3.345-3.03 1.516 0 2.978.992 3.24 3.03h-6.585zM59.52 12.859c-.315 0-.315.21-.315.315v5.328a7.145 7.145 0 0 0-3.658-.992c-3.19 0-6.22 2.194-6.22 6.792 0 4.703 2.875 6.636 5.645 6.636 1.671 0 3.293-.731 4.233-1.933v1.723h3.136V13.174a.277.277 0 0 0-.316-.315H59.52zm-.315 14.108a4.461 4.461 0 0 1-2.97 1.195c-1.88 0-3.449-1.417-3.449-4.18s1.776-3.919 3.605-3.919c1.046 0 2.143.42 2.824 1.103l-.01 5.8z"></path><path fill="#FFF" d="M89.732 19a1 1 0 1 1 2 0 1 1 0 0 1-2 0zm1 .85a.857.857 0 1 0-.002 0h.002zm-.379-1.403h.353c.2 0 .429.034.429.34a.25.25 0 0 1-.183.259l.196.455h-.213l-.166-.428h-.226v.428h-.191l.001-1.054zm.192.459h.23c.088 0 .161-.043.161-.143 0-.1-.064-.143-.178-.143h-.213v.286z"></path></g></svg> 