<?xml version="1.0" encoding="UTF-8"?> <svg xmlns="http://www.w3.org/2000/svg" xmlns:xlink="http://www.w3.org/1999/xlink" width="96px" height="94px" viewBox="0 0 96 94"><!-- Generator: Sketch 55.2 (78181) - https://sketchapp.com --><title>multiple-words</title><desc>Created with Sketch.</desc><g id="Page-1" stroke="none" stroke-width="1" fill="none" fill-rule="evenodd"><g id="Artboard" transform="translate(-694.000000, -304.000000)" fill-rule="nonzero"><g id="multiple-words" transform="translate(694.000000, 304.000000)"><path d="M91.2,27.0847458 L88,27.0847458 L88,4.77966102 C88,2.14011194 85.8507812,0 83.2,0 L44.8,0 C42.1492188,0 40,2.14011194 40,4.77966102 L40,17.5254237 L12.8,17.5254237 C10.1492188,17.5254237 8,19.6655357 8,22.3050847 L8,36.6440678 L4.8,36.6440678 C2.1492188,36.6440678 0,38.7841797 0,41.4237288 L0,76.4745763 C0,79.1141253 2.1492188,81.2542373 4.8,81.2542373 L25.6,81.2542373 L25.6,92.4067797 C25.6,93.0929223 26.040625,93.7020491 26.6945312,93.9190943 C26.8578124,93.9719942 27.028125,94 27.2,94 C27.7039062,94 28.178125,93.7635064 28.4796876,93.3628674 L37.6,81.2542373 L52.8,81.2542373 C55.4507812,81.2542373 57.6,79.1141253 57.6,76.4745763 L57.6,71.6949153 L64,71.6949153 L64,82.8474576 C64,83.5336003 64.440625,84.142727 65.0945312,84.3597722 C65.2578124,84.4126721 65.428125,84.4399001 65.6,84.440678 C66.1039062,84.440678 66.578125,84.2041843 66.8796876,83.8035454 L76,71.6949153 L91.2,71.6949153 C93.8507812,71.6949153 96,69.5548033 96,66.9152542 L96,31.8644068 C96,29.2248577 93.8507812,27.0847458 91.2,27.0847458 Z M43.2,4.77966102 C43.2,3.89981126 43.9164062,3.18644068 44.8,3.18644068 L83.2,3.18644068 C84.0835938,3.18644068 84.8,3.89981126 84.8,4.77966102 L84.8,33.4576271 C84.8,34.3374769 84.0835938,35.0508475 83.2,35.0508475 L78.4,35.0508475 C77.5164062,35.0508475 76.8,35.764218 76.8,36.6440678 L76.8,41.8025855 L71.6304688,35.6241889 C71.3265624,35.2608913 70.875,35.0508475 70.4,35.0508475 L44.8,35.0508475 C43.9164062,35.0508475 43.2,34.3374769 43.2,33.4576271 L43.2,4.77966102 Z M11.2,22.3050847 C11.2,21.425235 11.9164062,20.7118644 12.8,20.7118644 L40,20.7118644 L40,33.4576271 C40,36.0971762 42.1492188,38.2372881 44.8,38.2372881 L62.4,38.2372881 L62.4,50.9830508 C62.4,51.8629006 61.6835938,52.5762712 60.8,52.5762712 L32,52.5762712 C31.1164062,52.5762712 30.4,53.2896418 30.4,54.1694915 L30.4,62.1355932 L23.6796876,53.2134038 C23.378125,52.8127648 22.9039062,52.5762712 22.4,52.5762712 L12.8,52.5762712 C11.9164062,52.5762712 11.2,51.8629006 11.2,50.9830508 L11.2,22.3050847 Z M54.4,76.4745763 C54.4,77.354426 53.6835938,78.0677966 52.8,78.0677966 L36.8,78.0677966 C36.2960938,78.0677966 35.821875,78.3042903 35.5203124,78.7049292 L28.8,87.6271186 L28.8,79.6610169 C28.8,78.7811672 28.0835938,78.0677966 27.2,78.0677966 L4.8,78.0677966 C3.9164062,78.0677966 3.2,77.354426 3.2,76.4745763 L3.2,41.4237288 C3.2,40.5438791 3.9164062,39.8305085 4.8,39.8305085 L8,39.8305085 L8,50.9830508 C8,53.6225999 10.1492188,55.7627119 12.8,55.7627119 L21.6,55.7627119 L30.7203124,67.871342 C31.021875,68.2719809 31.4960938,68.5084746 32,68.5084746 C32.171875,68.5076967 32.3421876,68.4804688 32.5054688,68.4275689 C33.159375,68.2105237 33.6,67.6013969 33.6,66.9152542 L33.6,55.7627119 L38.4,55.7627119 L38.4,66.9152542 C38.4,69.5548033 40.5492188,71.6949153 43.2,71.6949153 L54.4,71.6949153 L54.4,76.4745763 Z M92.8,66.9152542 C92.8,67.795104 92.0835938,68.5084746 91.2,68.5084746 L75.2,68.5084746 C74.6960938,68.5084746 74.221875,68.7449682 73.9203124,69.1456072 L67.2,78.0677966 L67.2,70.1016949 C67.2,69.2218452 66.4835938,68.5084746 65.6,68.5084746 L43.2,68.5084746 C42.3164062,68.5084746 41.6,67.795104 41.6,66.9152542 L41.6,55.7627119 L60.8,55.7627119 C63.4507812,55.7627119 65.6,53.6225999 65.6,50.9830508 L65.6,38.2372881 L69.6492188,38.2372881 L77.1695312,47.2232687 C77.4734376,47.5865664 77.925,47.7966102 78.4,47.7966102 C78.5859376,47.7958323 78.7703124,47.7639368 78.9453124,47.7009235 C79.578125,47.4722094 80,46.8739739 80,46.2033898 L80,38.2372881 L83.2,38.2372881 C85.8507812,38.2372881 88,36.0971762 88,33.4576271 L88,30.2711864 L91.2,30.2711864 C92.0835938,30.2711864 92.8,30.984557 92.8,31.8644068 L92.8,66.9152542 Z" id="Shape" fill="#3455D1"></path><polygon id="Path" fill="#4DAF51" points="50 11 53 11 53 14 50 14"></polygon><polygon id="Path" fill="#4DAF51" points="56 11 69 11 69 14 56 14"></polygon><polygon id="Path" fill="#4DAF51" points="72 11 78 11 78 14 72 14"></polygon><polygon id="Path" fill="#4DAF51" points="50 18 79 18 79 21 50 21"></polygon><polygon id="Path" fill="#4DAF51" points="50 24 66 24 66 27 50 27"></polygon><polygon id="Path" fill="#4DAF51" points="69 24 72 24 72 27 69 27"></polygon><polygon id="Path" fill="#4DAF51" points="75 24 78 24 78 27 75 27"></polygon><polygon id="Path" fill="#4DAF51" points="18 29 37 29 37 32 18 32"></polygon><polygon id="Path" fill="#4DAF51" points="18 35 21 35 21 38 18 38"></polygon><polygon id="Path" fill="#4DAF51" points="24 35 37 35 37 38 24 38"></polygon><polygon id="Path" fill="#4DAF51" points="18 42 40 42 40 45 18 45"></polygon><polygon id="Path" fill="#4DAF51" points="68 52 86 52 86 55 68 55"></polygon><polygon id="Path" fill="#4DAF51" points="48 59 86 59 86 62 48 62"></polygon><polygon id="Path" fill="#4DAF51" points="10 62 13 62 13 65 10 65"></polygon><polygon id="Path" fill="#4DAF51" points="16 62 22 62 22 65 16 65"></polygon><polygon id="Path" fill="#4DAF51" points="10 68 26 68 26 71 10 71"></polygon></g></g></g></svg> 