<?xml version="1.0" encoding="UTF-8"?> <svg xmlns="http://www.w3.org/2000/svg" xmlns:xlink="http://www.w3.org/1999/xlink" width="90px" height="90px" viewBox="0 0 90 90"><!-- Generator: Sketch 55.2 (78181) - https://sketchapp.com --><title>multiple-languages</title><desc>Created with Sketch.</desc><g id="Page-1" stroke="none" stroke-width="1" fill="none" fill-rule="evenodd"><g id="Artboard" transform="translate(-791.000000, -1587.000000)" fill-rule="nonzero"><g id="multiple-languages" transform="translate(791.000000, 1587.000000)"><path d="M43.2558621,63.2606897 L40.5356897,57.6341379 C40.5092364,53.2325503 38.7393074,49.0208782 35.6136207,45.9217241 C32.6655536,43.136655 28.7014918,41.6871687 24.6522414,41.9136207 C16.332089,42.3446039 9.69904159,49.0226416 9.32431034,57.3455172 C9.06866239,61.7936332 10.7630845,66.1325094 13.9655172,69.2301724 L13.9655172,78.1681034 C13.9672272,79.5600091 15.0951633,80.6879452 16.487069,80.6896552 L30.0646552,80.6896552 C31.4565608,80.6879452 32.5844969,79.5600091 32.5862069,78.1681034 L32.5862069,74.4827586 L35.6896552,74.4827586 C37.6168275,74.4801942 39.17847,72.9185516 39.1810345,70.9913793 L39.1810345,66.7241379 L40.9267241,66.7241379 C41.718079,66.723828 42.4634441,66.3522547 42.9400114,65.7204904 C43.4165788,65.0887262 43.5691319,64.269969 43.352069,63.5089655 C43.3258045,63.4240731 43.2936577,63.3411137 43.2558621,63.2606897 Z M38.6006897,63.6206897 C37.208784,63.6223996 36.0808479,64.7503357 36.0791379,66.1422414 L36.0791379,70.9913793 C36.0791388,71.0945344 36.0380546,71.1934421 35.9649675,71.2662381 C35.8918804,71.339034 35.7928095,71.379723 35.6896552,71.3793103 L32.0043103,71.3793103 C30.6124047,71.3810203 29.4844686,72.5089564 29.4827586,73.9008621 L29.4827586,77.5862069 L17.0689655,77.5862069 L17.0689655,68.9725862 C17.0648916,68.2826446 16.7796573,67.624196 16.2791379,67.1493103 C13.6223846,64.6527522 12.2104874,61.1059573 12.4246552,57.4665517 C12.7280003,50.7502961 18.0809019,45.361807 24.795,45.0139655 C27.9996643,44.806736 31.1449093,45.9494896 33.4691379,48.1655172 C36.069731,50.768696 37.5012366,54.3166568 37.4353448,57.9956897 C37.435319,58.2300308 37.4883703,58.4613343 37.5905172,58.6722414 L39.9832759,63.6206897 L38.6006897,63.6206897 Z" id="Shape" fill="#3455D1"></path><path d="M24.8275862,24.8275862 C25.5481745,24.8289824 26.1749049,24.3341289 26.3406907,23.6328696 C26.5064765,22.9316104 26.1676877,22.2084969 25.5227586,21.887069 C23.9543469,21.0983791 22.4731167,20.1471256 21.1034483,19.0489655 C22.6511717,17.0765084 23.8029927,14.8234497 24.4955172,12.4137931 L26.3793103,12.4137931 C27.2363039,12.4137931 27.9310345,11.7190625 27.9310345,10.862069 C27.9310345,10.0050754 27.2363039,9.31034483 26.3793103,9.31034483 L20.1724138,9.31034483 L20.1724138,7.75862069 C20.1724138,6.90162711 19.4776832,6.20689655 18.6206897,6.20689655 C17.7636961,6.20689655 17.0689655,6.90162711 17.0689655,7.75862069 L17.0689655,9.31034483 L10.862069,9.31034483 C10.0050754,9.31034483 9.31034483,10.0050754 9.31034483,10.862069 C9.31034483,11.7190625 10.0050754,12.4137931 10.862069,12.4137931 L21.2415517,12.4137931 C20.6705893,14.0534803 19.8379196,15.5899105 18.7758621,16.9634483 C18.058002,16.247112 17.3980072,15.4750426 16.802069,14.6544828 C16.3240503,13.9470208 15.3642951,13.7586533 14.6543361,14.2329554 C13.9443771,14.7072575 13.7509792,15.6660118 14.2215517,16.3784483 C14.9358084,17.3854847 15.7358612,18.3288304 16.6127586,19.197931 C15.226305,20.354848 13.633706,21.2393328 11.9187931,21.8048276 C11.3921343,21.9800109 10.9989407,22.4228561 10.8873246,22.9665476 C10.7757084,23.5102392 10.9626268,24.0721774 11.3776694,24.4406856 C11.792712,24.8091938 12.372824,24.9282868 12.8994828,24.7531034 C15.1234386,24.0256546 17.1775955,22.8566007 18.9387931,21.3160345 C20.5431459,22.6206469 22.2852008,23.7461143 24.1339655,24.6724138 C24.3500527,24.7771065 24.5874877,24.830224 24.8275862,24.8275862 L24.8275862,24.8275862 Z" id="Path" fill="#4DAF51"></path><path d="M20.1724138,37.241473 C21.0294074,37.241473 21.7241379,36.5466487 21.7241379,35.6896552 L21.7241379,31.0344828 L32.5862069,31.0344828 C35.1571876,31.0344828 37.2413793,28.9502911 37.2413793,26.3793103 L37.2413793,4.65517241 C37.2413793,2.08419168 35.1571876,0 32.5862069,0 L4.65517241,0 C2.08419168,0 0,2.08419168 0,4.65517241 L0,26.3793103 C0,28.9502911 2.08419168,31.0344828 4.65517241,31.0344828 L7.39241379,31.0344828 L19.4787931,37.0862069 C19.6948803,37.1908996 19.9323153,37.2440171 20.1724138,37.241473 Z M18.6206897,29.4827586 L18.6206897,33.1789655 L8.45224138,28.0939655 C8.23680169,27.9865906 7.99933544,27.9308099 7.75862069,27.9310345 L4.65517241,27.9310345 C3.79817884,27.9310345 3.10344828,27.2363039 3.10344828,26.3793103 L3.10344828,4.65517241 C3.10344828,3.79817884 3.79817884,3.10344828 4.65517241,3.10344828 L32.5862069,3.10344828 C33.4432005,3.10344828 34.137931,3.79817884 34.137931,4.65517241 L34.137931,26.3793103 C34.137931,27.2363039 33.4432005,27.9310345 32.5862069,27.9310345 L20.1724138,27.9310345 C19.3154202,27.9310345 18.6206897,28.625765 18.6206897,29.4827586 Z" id="Shape" fill="#3455D1"></path><path d="M85.3448276,6.20689655 L57.4137931,6.20689655 C54.8428124,6.20689655 52.7586207,8.29108823 52.7586207,10.862069 L52.7586207,32.5862069 C52.7586207,35.1571876 54.8428124,37.2413793 57.4137931,37.2413793 L58.2253448,37.2413793 L55.9722414,42.8725862 C55.7275232,43.4717935 55.8804409,44.1599598 56.3558989,44.5991364 C56.8313568,45.0383131 57.5294735,45.1362403 58.1074138,44.8448276 L73.2972414,37.2413793 L85.3448276,37.2413793 C87.9158083,37.2413793 90,35.1571876 90,32.5862069 L90,10.862069 C90,8.29108823 87.9158083,6.20689655 85.3448276,6.20689655 Z M86.8965517,32.5862069 C86.8965517,33.4432005 86.2018212,34.137931 85.3448276,34.137931 L72.9310345,34.137931 C72.6903197,34.1377065 72.4528535,34.1934871 72.2374138,34.3008621 L60.3698276,40.2362069 L61.9587931,36.2653448 C62.1498152,35.7872063 62.0912272,35.2454528 61.8024002,34.8192077 C61.5135733,34.3929626 61.0321257,34.137742 60.5172414,34.137931 L57.4137931,34.137931 C56.5567995,34.137931 55.862069,33.4432005 55.862069,32.5862069 L55.862069,10.862069 C55.862069,10.0050754 56.5567995,9.31034483 57.4137931,9.31034483 L85.3448276,9.31034483 C86.2018212,9.31034483 86.8965517,10.0050754 86.8965517,10.862069 L86.8965517,32.5862069 Z" id="Shape" fill="#3455D1"></path><path d="M85.3448276,58.9655172 L57.4137931,58.9655172 C54.8428124,58.9655172 52.7586207,61.0497089 52.7586207,63.6206897 L52.7586207,68.2758621 L48.1034483,68.2758621 C47.5485234,68.2747657 47.0352532,68.5700895 46.7573162,69.0503955 C46.4793792,69.5307014 46.4790877,70.1228689 46.7565517,70.6034483 L52.7586207,81.1024138 L52.7586207,85.3448276 C52.7586207,87.9158083 54.8428124,90 57.4137931,90 L85.3448276,90 C87.9158083,90 90,87.9158083 90,85.3448276 L90,63.6206897 C90,61.0497089 87.9158083,58.9655172 85.3448276,58.9655172 Z M86.8965517,85.3448276 C86.8965517,86.2018212 86.2018212,86.8965517 85.3448276,86.8965517 L57.4137931,86.8965517 C56.5567995,86.8965517 55.862069,86.2018212 55.862069,85.3448276 L55.862069,80.6896552 C55.8630011,80.4175488 55.7923633,80.1499812 55.6572414,79.9137931 L50.7786207,71.3793103 L54.3103448,71.3793103 C55.1673384,71.3793103 55.862069,70.6845798 55.862069,69.8275862 L55.862069,63.6206897 C55.862069,62.7636961 56.5567995,62.0689655 57.4137931,62.0689655 L85.3448276,62.0689655 C86.2018212,62.0689655 86.8965517,62.7636961 86.8965517,63.6206897 L86.8965517,85.3448276 Z" id="Shape" fill="#3455D1"></path><path d="M72.7758621,13.2718966 C72.4841876,12.7826835 71.9566332,12.4830146 71.387069,12.4830146 C70.8175048,12.4830146 70.2899503,12.7826835 69.9982759,13.2718966 L62.2396552,28.7891379 C61.9918484,29.2853059 62.0275679,29.8759874 62.3333586,30.3386784 C62.6391492,30.8013694 63.1685542,31.0657761 63.7221517,31.0322991 C64.2757492,30.9988221 64.7694346,30.6725473 65.0172414,30.1763793 L71.3793103,17.4351724 L74.2996552,23.2758621 L71.3793103,23.2758621 C70.5223168,23.2758621 69.8275862,23.9705926 69.8275862,24.8275862 C69.8275862,25.6845798 70.5223168,26.3793103 71.3793103,26.3793103 L75.8513793,26.3793103 L77.7491379,30.1763793 C77.9969447,30.6725473 78.4906301,30.9988221 79.0442276,31.0322991 C79.5978251,31.0657761 80.1272301,30.8013694 80.4330207,30.3386784 C80.7388114,29.8759874 80.774531,29.2853059 80.5267241,28.7891379 L72.7758621,13.2718966 Z" id="Path" fill="#4DAF51"></path><path d="M77.5862069,80.6896552 L69.8275862,80.6896552 C68.1135991,80.6896552 66.7241379,79.3001941 66.7241379,77.5862069 C66.7241379,75.8722197 68.1135991,74.4827586 69.8275862,74.4827586 L76.0344828,74.4827586 C76.8914763,74.4827586 77.5862069,73.7880281 77.5862069,72.9310345 C77.5862069,72.0740409 76.8914763,71.3793103 76.0344828,71.3793103 L72.9310345,71.3793103 C72.1673059,71.37513 71.5201758,70.8158332 71.40542,70.0607637 C71.2906643,69.3056942 71.7424084,68.5793901 72.4704103,68.348496 C73.1984122,68.117602 73.986183,68.4507798 74.3275862,69.1339655 C74.7110909,69.9005462 75.6434192,70.2110908 76.41,69.8275862 C77.1765807,69.4440815 77.4871253,68.5117532 77.1036207,67.7451724 C75.9655299,65.574247 73.3389867,64.6577576 71.0973729,65.6493903 C68.855759,66.6410229 67.7671216,69.2010132 68.607931,71.5034483 C65.4869281,72.1371446 63.3519282,75.0300836 63.6664392,78.1992023 C63.9809502,81.3683209 66.6429092,83.7851981 69.8275862,83.7931034 L77.5862069,83.7931034 C78.4432005,83.7931034 79.137931,83.0983729 79.137931,82.2413793 C79.137931,81.3843857 78.4432005,80.6896552 77.5862069,80.6896552 Z" id="Path" fill="#4DAF51"></path></g></g></g></svg> 