<?xml version="1.0" encoding="UTF-8"?> <svg xmlns="http://www.w3.org/2000/svg" xmlns:xlink="http://www.w3.org/1999/xlink" width="104px" height="90px" viewBox="0 0 104 90"><!-- Generator: Sketch 55.2 (78181) - https://sketchapp.com --><title>voice-recognition</title><desc>Created with Sketch.</desc><g id="Page-1" stroke="none" stroke-width="1" fill="none" fill-rule="evenodd"><g id="Artboard" transform="translate(-898.000000, -827.000000)" fill-rule="nonzero"><g id="voice-recognition" transform="translate(898.000000, 827.000000)"><path d="M102.448796,20.2845227 C101.211993,15.5954392 98.5396431,11.410737 94.8062712,8.31635351 C87.5865709,2.15846716 80.8166173,-0.38561027 72.8819151,0.0514674324 C68.7399705,0.35472973 64.6289064,0.991342905 60.5891047,1.95418074 C55.6696052,2.7641998 51.1468011,5.14991554 47.7008552,8.75263946 C45.4061972,11.4131124 43.6642208,14.5027449 42.573902,17.8417968 C42.0671453,19.4214527 41.6554054,21.0296136 41.3402659,22.6575697 L41.3022592,22.8412691 C41.0417546,23.8935811 40.6862331,24.9205553 40.2404455,25.9095227 C39.9775654,26.5405934 39.7218118,27.1724556 39.4866448,27.8344066 C39.1913007,28.6024599 39.0764886,29.4283151 39.1509184,30.2478357 C39.4003378,31.5147276 40.082084,32.655722 41.0789696,33.4752428 C41.5548458,33.9527027 42.0045924,34.4040328 42.0117186,34.7207558 C41.961043,34.876742 41.8992821,35.0287691 41.8264358,35.1760451 C40.9261508,37.0510451 39.761402,38.7874788 38.3670292,40.3322951 C37.7565456,41.0686761 37.1025126,41.8557326 36.3344595,42.8795396 C35.2433489,44.017367 34.6281144,45.5289274 34.6170292,47.105416 C34.8791173,48.2567039 35.5822423,49.2591322 36.5751689,49.8973289 C37.0098711,50.2290963 37.4730786,50.5228569 37.9592483,50.7746516 C38.4446262,50.9987331 38.8888301,51.3019954 39.2752322,51.6717693 C39.3488704,52.0866766 39.3076964,52.5142524 39.1556694,52.9069889 C38.9688028,53.3306059 38.7787691,53.6956293 38.6124894,54.0123523 C38.1144426,54.9688557 37.2822529,56.570682 38.6227828,57.8177787 C39.0139358,58.1843856 39.3274916,58.4765625 45.8028928,59.9041914 C42.6760451,61.1766259 40.9942461,62.458562 40.8057961,63.7199112 C40.7321578,64.3937394 40.9966216,65.0604414 41.5136718,65.4998943 C41.6862859,65.6376689 41.7504223,65.703389 41.7535895,65.703389 C41.8018897,65.8744194 41.8406882,66.0478253 41.8699853,66.2228147 C41.9127428,66.447688 41.9665857,66.7066091 42.0425992,67.0098711 C42.0964421,67.5213789 42.0505174,68.0376373 41.907992,68.5317251 C41.8319785,68.9189189 41.7575485,69.3069045 41.7179582,69.654508 C41.5746409,70.9388197 41.7211255,72.2389674 42.146326,73.4599346 C42.7029667,75.7577597 44.7220755,77.4039274 47.0848289,77.4846916 C47.4664802,77.4838999 47.8473395,77.4411424 48.2194889,77.3572107 C50.4800992,76.681799 52.656778,75.7538007 54.7075591,74.5890519 C56.0314611,73.914432 57.3854518,73.2295186 58.6254223,72.6990077 C61.0697319,74.8487647 64.2124155,83.0772276 65.7920714,88.6990603 C66.0082348,89.4394003 66.6883974,89.9469489 67.4596178,89.9437964 L99.0962838,89.8574747 C99.6362964,89.8558909 100.144637,89.6025126 100.47007,89.1717693 C100.796294,88.7410261 100.902396,88.1828019 100.756704,87.6625845 C100.445524,86.7092483 100.00607,85.8018369 99.4510135,84.9656882 C99.1548774,84.4993137 98.8896221,84.0139358 98.6552471,83.5127218 C98.1104836,82.3265941 95.2267208,74.1100084 94.8379435,72.7227618 C94.1142314,70.0805005 93.6193518,67.3812288 93.3572635,64.6534522 C93.2432432,63.5797614 93.2052365,62.4989443 93.2408678,61.4189189 C97.4477408,59.996041 100.843011,56.8375212 102.565192,52.7438767 C104.287373,48.6502322 104.171769,44.0149916 102.247677,40.0124049 C103.236645,37.454867 103.756862,34.7397592 103.783784,31.998522 C103.857422,28.0521537 103.408467,24.1129117 102.448796,20.2845227 L102.448796,20.2845227 Z M88.2160579,58.8091216 C83.3187288,58.8091216 78.9036105,55.858847 77.0294025,51.3344595 C75.155986,46.8100719 76.1916701,41.6023543 79.6542442,38.1389886 C83.1176098,34.6764146 88.3253272,33.6407307 92.849715,35.514147 C97.3741026,37.3883552 100.324377,41.8034734 100.324377,46.7008024 C100.316459,53.3852408 94.9004961,58.8012036 88.2160579,58.8091216 Z M88.2160579,31.1330765 C79.6186127,31.1330765 72.648332,38.1033572 72.648332,46.7008024 C72.648332,55.2982476 79.6186127,62.2685282 88.2160579,62.2685282 C88.7354836,62.2685282 89.2541173,62.2408151 89.7727512,62.1909312 C89.7743349,63.1411001 89.8258024,64.0912691 89.9271537,65.0358953 C90.2114126,67.9529139 90.744299,70.8398436 91.5202703,73.6658045 C91.9090478,75.0490922 94.8585304,83.5127218 95.5070207,84.9245145 C95.7374368,85.4344382 95.9995249,85.9301098 96.2924937,86.406778 L68.7565984,86.484375 C67.7296241,83.0526815 65.1950485,75.3713576 62.0507814,71.3671875 L62.7594489,71.0971812 C63.6573586,70.7511612 64.3319785,70.4969911 64.6851245,70.3774281 C70.2855786,68.4501689 73.0862015,65.6637985 73.0117715,62.0974978 C72.9919764,61.1560389 72.2231313,60.4038219 71.2824641,60.4038219 L71.2444573,60.4038219 C70.2895376,60.4244088 69.531778,61.2154245 69.5523649,62.1695524 C69.5800782,63.470492 68.5633974,65.3834988 63.5639252,67.1033045 C63.1973185,67.2292018 62.4799409,67.5007918 61.5266047,67.8642314 C60.6152343,68.2102512 59.4781989,68.6457454 58.2279349,69.1081609 L58.2176414,69.1081609 C56.4875422,69.8144532 54.7954498,70.6078441 53.1461149,71.4859585 C51.3455449,72.5058065 49.445207,73.3364126 47.4743982,73.9651076 C46.2304686,74.2414484 45.6754117,73.0996622 45.4505384,72.3894109 C45.1805321,71.6459037 45.0815562,70.8509291 45.159945,70.0646643 C45.1924093,69.7756545 45.2517949,69.4882285 45.308805,69.1992186 C45.5669341,68.2229201 45.6041491,67.2014886 45.4188661,66.208562 C45.3586887,65.9472657 45.3135557,65.7279349 45.275549,65.5379011 C45.2011192,65.0794447 45.0712626,64.6320734 44.8883552,64.2060811 C45.7538007,63.7064505 46.6588366,63.2788745 47.5931694,62.9257285 C48.9487437,62.4047191 49.8015203,61.0554793 49.6906672,59.6072635 C49.5798142,58.1590478 48.5314611,56.9555005 47.1125422,56.6466955 C44.3103357,56.0346284 42.7100929,55.6418919 41.8074324,55.4011824 C41.9808383,55.074166 42.1534522,54.7099346 42.3371516,54.3069045 C42.7663113,53.289432 42.8937922,52.1698164 42.7053422,51.0826646 C42.2682645,49.5489336 41.135188,48.3105468 39.6473818,47.738862 C39.2997782,47.5583299 38.9680111,47.3500845 38.6560389,47.1141259 C38.4533361,46.9541807 38.2617186,46.7807749 38.0819785,46.595492 C38.3567355,45.9739232 38.7193834,45.39432 39.1596284,44.8756863 C39.8374155,43.9730258 40.4597761,43.2255596 41.0377956,42.5287691 C42.6348711,40.7472022 43.9651076,38.7431376 44.9865393,36.5799199 C45.3024705,35.9923986 45.4695418,35.3359903 45.4742927,34.6692884 C45.357897,33.2353253 44.654772,31.9137985 43.5319889,31.015889 C43.0893687,30.5732686 42.6309122,30.1124368 42.5897382,29.8052153 C42.5976564,29.5090794 42.65625,29.2169025 42.7623523,28.9397698 C42.965055,28.3585832 43.2018053,27.7876901 43.436972,27.2104624 C43.9698586,26.0275022 44.3895164,24.7970333 44.6896115,23.5348924 L44.7252428,23.3614865 C45.0110854,21.8673458 45.3856103,20.3922085 45.8464421,18.9424093 C46.7942355,16.0317251 48.3089633,13.3379961 50.304318,11.0164168 C53.2672614,7.98379439 57.1304899,5.98843966 61.3191511,5.32728041 C65.1807961,4.4048248 69.1097445,3.7927577 73.0687816,3.49582986 C80.0485642,3.11021959 86.0663007,5.39854297 92.5543707,10.933277 C95.7596072,13.5573268 98.0495145,17.1307539 99.0947003,21.138883 C99.9815246,24.6758868 100.39564,28.3158255 100.324377,31.9620989 C100.306166,33.4309016 100.125633,34.8933699 99.7843644,36.3225823 C96.8435917,33.0239126 92.6351351,31.1362437 88.2160579,31.1330765 L88.2160579,31.1330765 Z" id="Shape" fill="#3455D1"></path><path d="M1.73009919,63.9978357 L5.18950581,63.9978357 C5.96151811,63.9986274 6.64088899,63.4871199 6.85309338,62.7444045 L8.53805959,56.8454392 L12.1597867,71.3370989 C12.3466532,72.0837732 13.0030618,72.6174515 13.7719066,72.6467483 L13.8376267,72.6467483 C14.5819257,72.6459566 15.242293,72.1700801 15.4774599,71.4637881 L17.8196262,64.4412478 L19.3177259,66.6899809 C19.7017524,67.2672085 20.3937922,67.5593856 21.0755384,67.4319045 C21.7572847,67.3044235 22.2972973,66.7818306 22.4469489,66.1048354 L24.1263726,58.5359481 L25.9807855,67.8032623 C26.1177681,68.4889674 26.6546136,69.0242293 27.3403188,69.1604201 C28.0260241,69.296611 28.7267736,69.0060178 29.1147592,68.4248311 L32.0602828,63.9978357 L36.324166,63.9978357 C37.2798774,63.9978357 38.0542652,63.2234481 38.0542652,62.2685282 C38.0542652,61.3128166 37.2798774,60.5384291 36.324166,60.5384291 L31.1354518,60.5384291 C30.5566407,60.5384291 30.0166279,60.8274387 29.6959459,61.3088576 L28.552576,63.0247044 L25.9111064,49.8141892 C25.7487859,49.0160473 25.0504117,48.4396115 24.2348501,48.4309016 L24.2158468,48.4309016 C23.4050359,48.4300138 22.7019109,48.9930849 22.5261296,49.7848924 L19.9472128,61.4038745 L18.7365393,59.5858847 C18.3699324,59.0363704 17.7222341,58.7441935 17.068201,58.832084 C16.4133762,58.9199747 15.8662374,59.3728885 15.6572003,59.9992082 L14.0767524,64.7421347 L10.3267524,49.7397592 C10.1367186,48.9812078 9.4605152,48.4443624 8.67820946,48.4309016 C7.89115297,48.4055637 7.19040324,48.9249894 6.98453331,49.6843328 L3.88460716,60.5384291 L1.73009919,60.5384291 C0.774387568,60.5384291 0,61.3128166 0,62.2685282 C0,63.2234481 0.774387568,63.9978357 1.73009919,63.9978357 L1.73009919,63.9978357 Z" id="Path" fill="#4DAF51"></path><path d="M92.0547403,42.1605786 L86.3466004,49.3003062 L84.2530618,47.2075591 C83.5744826,46.5519426 82.496041,46.5614443 81.8285473,47.228938 C81.1610536,47.8956397 81.1523436,48.9748733 81.8079604,49.6534522 L85.267367,53.1128591 C85.5904245,53.4367082 86.0290857,53.6188239 86.4867505,53.6196158 L86.5833509,53.6196158 C87.0742715,53.5919025 87.5303526,53.3567355 87.8375739,52.972709 L94.7563873,44.3245883 C95.1427893,43.8415857 95.2417652,43.1899281 95.0168919,42.6134923 C94.7920186,42.0378484 94.2773436,41.6261086 93.6660685,41.5326752 C93.054793,41.439242 92.4403504,41.6791597 92.0547403,42.1621622 L92.0547403,42.1605786 Z" id="Path" fill="#4DAF51"></path></g></g></g></svg> 