<?xml version="1.0" encoding="UTF-8"?> <svg xmlns="http://www.w3.org/2000/svg" xmlns:xlink="http://www.w3.org/1999/xlink" width="90px" height="90px" viewBox="0 0 90 90"><!-- Generator: Sketch 55.2 (78181) - https://sketchapp.com --><title>no-apps-wifi</title><desc>Created with Sketch.</desc><g id="Page-1" stroke="none" stroke-width="1" fill="none" fill-rule="evenodd"><g id="Artboard" transform="translate(-1013.000000, -1575.000000)" fill-rule="nonzero"><g id="no-apps-wifi" transform="translate(1013.000000, 1575.000000)"><path d="M69.0996094,29.5108594 L69.0108398,29.4426562 C68.2405664,28.8515039 67.1371875,28.996875 66.5462109,29.7669727 C65.9552344,30.5370703 66.1002539,31.640625 66.8705273,32.2316016 L66.9592969,32.2998047 C67.2785156,32.544668 67.6548633,32.6631445 68.0282227,32.6631445 C68.555918,32.6631445 69.0779883,32.4263672 69.4239258,31.9754883 C70.0149023,31.2055664 69.8698828,30.1018359 69.0996094,29.5108594 Z" id="Path" fill="#4DAF51"></path><path d="M66.7699805,73.9935352 C66.2264648,73.1893359 65.1336328,72.9780469 64.3292578,73.5215625 L64.2737109,73.5590039 C63.4693359,74.1026953 63.2580469,75.1955273 63.8017383,75.9997266 C64.1415234,76.5022852 64.6954102,76.7733398 65.259668,76.7733398 C65.5983984,76.7733398 65.9408203,76.6756055 66.2424609,76.4716992 L66.2980078,76.4342578 C67.1023828,75.8905664 67.3136719,74.7979102 66.7699805,73.9935352 Z" id="Path" fill="#4DAF51"></path><path d="M26.2038867,14.0074805 C25.6656445,13.1997656 24.5742188,12.9814453 23.7663281,13.5200391 L23.6861719,13.5743555 C22.8877734,14.1264844 22.6880859,15.2214258 23.2402148,16.02 C23.5817578,16.5130664 24.1301953,16.777793 24.6877734,16.777793 C25.0326563,16.777793 25.3810547,16.676543 25.6860352,16.4656055 L25.7164453,16.4450391 C26.5243359,15.9064453 26.7424805,14.8150195 26.2038867,14.0074805 Z" id="Path" fill="#4DAF51"></path><path d="M90,44.9998242 C90,32.9799023 85.3192969,21.6792773 76.8199219,13.1799023 C68.3205469,4.68087891 57.0199219,0 45,0 C35.4633398,0 26.3390625,2.95576172 18.6138281,8.54771484 C17.8273828,9.11689453 17.6514258,10.2158789 18.2206055,11.0023242 C18.7899609,11.7887695 19.8889453,11.9647266 20.6752148,11.3955469 C27.7969922,6.24058594 36.2083008,3.51544922 45,3.51544922 C67.8745898,3.51544922 86.484375,22.1252344 86.484375,44.9998242 C86.484375,55.4925586 82.6129687,65.389043 75.5491992,73.0629492 L73.0594336,70.5731836 C77.3827734,65.830957 80.4375,60.0704297 81.9316406,53.80875 C84.2855273,43.9439063 82.6570898,33.7528125 77.3460352,25.1128125 C72.0351562,16.4728125 63.6774609,10.4180273 53.8124414,8.06396484 C45.2278125,6.01558594 36.1393945,7.03529297 28.2216797,10.9351758 C27.3508594,11.364082 26.9926172,12.4178906 27.4215234,13.2888867 C27.8506055,14.1598828 28.9044141,14.518125 29.7752344,14.089043 C36.9597656,10.5503906 45.2067188,9.62525391 52.9966406,11.4837891 C71.475293,15.8932617 82.9214648,34.5141211 78.512168,52.9927734 C77.1690234,58.6214648 74.4329883,63.8015625 70.5679102,68.0814844 L50.0683008,47.5822266 C50.4464063,47.7063281 50.8215234,47.8399219 51.1901367,47.9926758 C53.1513281,48.8047852 54.9177539,49.9879687 56.4433594,51.5123437 C57.4822266,52.5454102 58.8429492,53.0615039 60.2038477,53.0615039 C61.5744141,53.0613281 62.9451563,52.5376758 63.9856055,51.4914258 C66.0591211,49.4063086 66.0498047,46.0228711 63.9676758,43.952168 C61.4613867,41.4479883 58.5290039,39.4903125 55.2520898,38.133457 C51.9802734,36.7788867 48.5307422,36.0921094 44.9991211,36.0921094 C43.0389844,36.0921094 41.1039844,36.3044531 39.2106445,36.7245703 L36.1996875,33.7136133 C39.0287109,32.8656445 41.9767383,32.4365625 44.9991211,32.4365625 C49.06125,32.4365625 52.9892578,33.2103516 56.6739844,34.7364844 C60.3812109,36.2717578 63.7145508,38.503125 66.5843555,41.3711719 C67.5907031,42.3720703 68.9255859,42.922793 70.3444922,42.922793 C70.3495898,42.922793 70.3548633,42.922793 70.3597852,42.922793 C71.7843164,42.91875 73.1220117,42.360293 74.1264258,41.3502539 C75.6815625,39.7865039 76.1152148,37.4707617 75.2312109,35.450332 C74.842207,34.5610547 73.8058008,34.1553516 72.9161719,34.5445313 C72.0267188,34.9337109 71.6211914,35.9701172 72.0103711,36.8595703 C72.3118359,37.548457 72.1640039,38.3380664 71.6336719,38.8712109 C71.2914258,39.2153906 70.8354492,39.4057617 70.3499414,39.407168 C70.3481836,39.407168 70.3464258,39.407168 70.344668,39.407168 C69.8612695,39.407168 69.4063477,39.2196094 69.0663867,38.8814063 C65.8717383,35.6885156 62.1548438,33.2012109 58.0190625,31.4883984 C53.9056055,29.7847266 49.5251367,28.9209375 44.9989453,28.9209375 C40.9967578,28.9209375 37.1086523,29.5976953 33.4179492,30.9320508 L30.6101953,28.1242969 C30.61125,28.1239453 30.6123047,28.123418 30.6133594,28.1228906 C35.1949219,26.2265625 40.0348828,25.2652148 44.9989453,25.2652148 C49.9658203,25.2652148 54.8080664,26.2276172 59.3910352,28.1257031 C60.5712305,28.614375 61.7407031,29.1705469 62.8669336,29.77875 C63.7212305,30.24 64.7875195,29.9214844 65.2487695,29.0671875 C65.7100195,28.2128906 65.3913281,27.1466016 64.537207,26.6853516 C63.3056836,26.0203711 62.026875,25.412168 60.7361133,24.8776172 C55.7245898,22.802168 50.429707,21.7497656 44.9989453,21.7497656 C39.5711719,21.7497656 34.2789258,22.8011133 29.2689844,24.8748047 C28.8216211,25.0600781 28.379707,25.2551953 27.9406055,25.4550586 L9.07716797,6.59091797 C8.39091797,5.90431641 7.27787109,5.90449219 6.59126953,6.59091797 C5.90484375,7.27734375 5.90484375,8.39039063 6.59126953,9.07681641 L11.9636719,14.4492188 C8.34363281,18.3594727 5.47365234,22.8346875 3.42544922,27.7792383 C1.15242187,33.2664258 0,39.0603516 0,44.9996484 C0,57.0195703 4.68087891,68.3201953 13.1802539,76.8195703 C21.6796289,85.3189453 32.9800781,89.9998242 45,89.9998242 C54.5368359,89.9998242 63.6611133,87.0440625 71.3861719,81.4521094 C72.1726172,80.8829297 72.3485742,79.7837695 71.7793945,78.9975 C71.2098633,78.2110547 70.1112305,78.0350977 69.3247852,78.6042773 C62.2031836,83.7592383 53.791875,86.4841992 45,86.4841992 C22.1254102,86.4841992 3.515625,67.8744141 3.515625,44.9998242 C3.515625,34.5070898 7.38703125,24.6104297 14.4509766,16.9363477 L16.9396875,19.4250586 C12.616875,24.1671094 9.56232422,29.9272852 8.06818359,36.1886133 C5.71412109,46.053457 7.34273438,56.2445508 12.6536133,64.8845508 C17.9644922,73.5245508 26.3221875,79.5793359 36.1870313,81.9333984 C39.0832031,82.6243945 42.0358008,82.9662891 44.9822461,82.9662891 C50.7700195,82.9662891 56.5314258,81.6465234 61.7779687,79.0621875 C62.6489648,78.6332812 63.0070312,77.5792969 62.578125,76.7084766 C62.1492188,75.8374805 61.0954102,75.4792383 60.2244141,75.9083203 C53.0400586,79.4475 44.7932812,80.3726367 37.0030078,78.51375 C18.5243555,74.1041016 7.07835937,55.4832422 11.487832,37.0045898 C12.8309766,31.37625 15.5666602,26.1965039 19.4312109,21.916582 L24.6475195,27.1328906 C21.4569141,28.9460742 18.5282227,31.1763867 15.9032813,33.7979883 C13.8181641,35.8716797 13.8086719,39.2551172 15.8823633,41.3402344 C17.9558789,43.425 21.3391406,43.4348438 23.4270703,41.3585156 C26.095957,38.6929688 29.1703711,36.5772656 32.574375,35.0597461 L35.3910938,37.8764648 C35.1780469,37.9583789 34.9655273,38.0429297 34.7538867,38.1304688 C31.4804883,39.4843359 28.5495117,41.439375 26.0442773,43.9388086 C25.0342383,44.9433984 24.4757813,46.2810938 24.4717383,47.705625 C24.4676953,49.1301562 25.0187695,50.4710156 26.0233594,51.4810547 C28.096875,53.5659961 31.4801367,53.5753125 33.5654297,51.5017969 C33.565957,51.5010938 33.5666602,51.5003906 33.5673633,51.4996875 C35.0889258,49.9814648 36.8544727,48.8007422 38.8146094,47.9898633 C40.5500977,47.2719727 42.3958008,46.8725977 44.3095312,46.7949023 L47.4853711,49.9707422 C46.6955859,49.7413477 45.8620313,49.6158398 44.9992969,49.6158398 C40.0760156,49.6158398 36.0704883,53.6213672 36.0704883,58.5448242 C36.0704883,63.4682813 40.0760156,67.4738086 44.9992969,67.4738086 C49.9227539,67.4738086 53.928457,63.4682813 53.928457,58.5448242 C53.928457,57.6820898 53.803125,56.8487109 53.5735547,56.05875 L80.922832,83.4082031 C81.2661328,83.7513281 81.715957,83.9230664 82.1657813,83.9230664 C82.6156055,83.9230664 83.0656055,83.7513281 83.4087305,83.4082031 C84.0951563,82.7217773 84.0951563,81.6087305 83.4085547,80.9223047 L78.0363281,75.5500781 C81.6561914,71.64 84.5261719,67.1646094 86.574375,62.2202344 C88.8475781,56.7332227 90,50.9392969 90,44.9998242 Z M20.9453906,38.8683984 C20.234707,39.5748633 19.0817578,39.571875 18.3751172,38.8611914 C17.6683008,38.1506836 17.6716406,36.9975586 18.3849609,36.2882812 C21.019043,33.6575391 23.9851758,31.4578125 27.2348438,29.7203906 L29.9329102,32.418457 C26.6150391,34.0563867 23.5981055,36.2190234 20.9453906,38.8683984 Z M37.4709375,44.7414258 C35.0833008,45.7291406 32.9349023,47.1652734 31.0855078,49.0099219 C30.7425586,49.3505859 30.2879883,49.5379688 29.8047656,49.5379688 C29.8031836,49.5379688 29.80125,49.5379688 29.799668,49.5379688 C29.3143359,49.5367383 28.8585352,49.3463672 28.5161133,49.0021875 C28.1738672,48.6580078 27.985957,48.2011523 27.9873554,47.7156445 C27.9887695,47.2301367 28.1791406,46.7741602 28.5254297,46.4298047 C30.7047656,44.2553906 33.2525391,42.5561133 36.0977344,41.3792578 C36.7744922,41.0992383 37.4603906,40.8531445 38.1536719,40.639043 L41.1477539,43.633125 C39.8874023,43.8800977 38.6588672,44.2501172 37.4709375,44.7414258 Z M45.765,43.2789258 L42.2560547,39.7699805 C43.1627344,39.6625781 44.0776758,39.6077344 44.9992969,39.6077344 C48.0670312,39.6077344 51.0641016,40.2045117 53.9073633,41.3817187 C56.7557227,42.5612109 59.3045508,44.2627734 61.4858203,46.4421094 C62.1965039,47.14875 62.199668,48.3016992 61.4928516,49.012207 C61.1506055,49.3563867 60.6946289,49.5467578 60.2091211,49.5481641 C60.2073633,49.5481641 60.2056055,49.5481641 60.2038477,49.5481641 C59.7202734,49.5481641 59.2653516,49.3606055 58.9253906,49.0224023 C57.0745898,47.1731836 54.9246094,45.7338867 52.5350391,44.7444141 C50.3929688,43.8575977 48.1188867,43.3666406 45.765,43.2789258 Z M44.9992969,63.9585352 C42.0145313,63.9585352 39.5861133,61.5301172 39.5861133,58.5451758 C39.5861133,55.5602344 42.0143555,53.1318164 44.9992969,53.1318164 C47.9842383,53.1318164 50.412832,55.5602344 50.412832,58.5451758 C50.412832,61.5301172 47.9844141,63.9585352 44.9992969,63.9585352 Z" id="Shape" fill="#3455D1"></path><path d="M6.5,6.5 L83.5,83.5" id="Line" stroke="#4DAF51" stroke-width="3" fill="#4DAF51"></path></g></g></g></svg> 