<?xml version="1.0" encoding="UTF-8"?> <svg xmlns="http://www.w3.org/2000/svg" xmlns:xlink="http://www.w3.org/1999/xlink" width="90px" height="90px" viewBox="0 0 90 90"><!-- Generator: Sketch 55.2 (78181) - https://sketchapp.com --><title>phrase-spotting</title><desc>Created with Sketch.</desc><g id="Page-1" stroke="none" stroke-width="1" fill="none" fill-rule="evenodd"><g id="Artboard" transform="translate(-451.000000, -308.000000)" fill-rule="nonzero"><g id="phrase-spotting" transform="translate(451.000000, 308.000000)"><path d="M1.50032039,70.4999542 C2.32841496,70.4999542 2.99995418,69.828415 2.99995418,69.0003204 L2.99995418,65.9996796 C2.99995418,65.171585 2.32841496,64.5000458 1.50032039,64.5000458 C0.671539219,64.5000458 0,65.171585 0,65.9996796 L0,69.0003204 C0,69.828415 0.671539219,70.4999542 1.50032039,70.4999542 Z" id="Path" fill="#3455D1"></path><path d="M7.50022893,70.4999542 L7.50022893,64.5000458 C7.50022893,63.6712646 6.82868953,62.9997254 5.99990836,62.9997254 C5.17181396,62.9997254 4.50027457,63.6712646 4.50027457,64.5000458 L4.50027457,70.4999542 C4.50027457,71.3287354 5.17181396,72.0002746 5.99990836,72.0002746 C6.82868953,72.0002746 7.50022893,71.3287354 7.50022893,70.4999542 L7.50022893,70.4999542 Z" id="Path" fill="#3455D1"></path><path d="M25.4999542,70.4999542 L25.4999542,64.5000458 C25.4999542,63.6712646 24.828415,62.9997254 24.0003204,62.9997254 C23.1715392,62.9997254 22.5,63.6712646 22.5,64.5000458 L22.5,70.4999542 C22.5,71.3287354 23.1715392,72.0002746 24.0003204,72.0002746 C24.828415,72.0002746 25.4999542,71.3287354 25.4999542,70.4999542 L25.4999542,70.4999542 Z" id="Path" fill="#3455D1"></path><path d="M13.5001373,73.4999084 L13.5001373,61.5000916 C13.5001373,60.6713105 12.8285981,59.9997711 11.9998169,59.9997711 C11.1717225,59.9997711 10.5001831,60.6713105 10.5001831,61.5000916 L10.5001831,73.4999084 C10.5001831,74.3286895 11.1717225,75.0002289 11.9998169,75.0002289 C12.8285981,75.0002289 13.5001373,74.3286895 13.5001373,73.4999084 Z" id="Path" fill="#3455D1"></path><path d="M19.5000458,73.4999084 L19.5000458,61.5000916 C19.5000458,60.6713105 18.8285064,59.9997711 17.9997254,59.9997711 C17.1716309,59.9997711 16.5000916,60.6713105 16.5000916,61.5000916 L16.5000916,73.4999084 C16.5000916,74.3286895 17.1716309,75.0002289 17.9997254,75.0002289 C18.8285064,75.0002289 19.5000458,74.3286895 19.5000458,73.4999084 Z" id="Path" fill="#3455D1"></path><path d="M31.4998627,76.4998627 L31.4998627,58.5001373 C31.4998627,57.6713563 30.8283233,56.9998169 30.0002289,56.9998169 C29.1714478,56.9998169 28.4999084,57.6713563 28.4999084,58.5001373 L28.4999084,76.4998627 C28.4999084,77.3286437 29.1714478,78.0001831 30.0002289,78.0001831 C30.8283233,78.0001831 31.4998627,77.3286437 31.4998627,76.4998627 L31.4998627,76.4998627 Z" id="Path" fill="#3455D1"></path><path d="M37.4997711,79.4998169 L37.4997711,55.5001831 C37.4997711,54.6714019 36.8282319,53.9998627 36.0001373,53.9998627 C35.1713563,53.9998627 34.4998169,54.6714019 34.4998169,55.5001831 L34.4998169,79.4998169 C34.4998169,80.3285981 35.1713563,81.0001373 36.0001373,81.0001373 C36.8282319,81.0001373 37.4997711,80.3285981 37.4997711,79.4998169 Z" id="Path" fill="#3455D1"></path><path d="M43.4996796,88.4996796 L43.4996796,46.5003204 C43.4996796,45.6715392 42.8281402,45 42.0000458,45 C41.1712646,45 40.4997254,45.6715392 40.4997254,46.5003204 L40.4997254,88.4996796 C40.4997254,89.3284608 41.1712646,90 42.0000458,90 C42.8281402,90 43.4996796,89.3284608 43.4996796,88.4996796 L43.4996796,88.4996796 Z" id="Path" fill="#3455D1"></path><path d="M88.4996796,64.5000458 C87.671585,64.5000458 87.0000458,65.171585 87.0000458,65.9996796 L87.0000458,69.0003204 C87.0000458,69.828415 87.671585,70.4999542 88.4996796,70.4999542 C89.3284608,70.4999542 90,69.828415 90,69.0003204 L90,65.9996796 C90,65.171585 89.3284608,64.5000458 88.4996796,64.5000458 L88.4996796,64.5000458 Z" id="Path" fill="#3455D1"></path><path d="M85.4997254,70.4999542 L85.4997254,64.5000458 C85.4997254,63.6712646 84.828186,62.9997254 84.0000916,62.9997254 C83.1713105,62.9997254 82.4997711,63.6712646 82.4997711,64.5000458 L82.4997711,70.4999542 C82.4997711,71.3287354 83.1713105,72.0002746 84.0000916,72.0002746 C84.828186,72.0002746 85.4997254,71.3287354 85.4997254,70.4999542 L85.4997254,70.4999542 Z" id="Path" fill="#3455D1"></path><path d="M67.5,70.4999542 L67.5,64.5000458 C67.5,63.6712646 66.8284608,62.9997254 65.9996796,62.9997254 C65.171585,62.9997254 64.5000458,63.6712646 64.5000458,64.5000458 L64.5000458,70.4999542 C64.5000458,71.3287354 65.171585,72.0002746 65.9996796,72.0002746 C66.8284608,72.0002746 67.5,71.3287354 67.5,70.4999542 L67.5,70.4999542 Z" id="Path" fill="#3455D1"></path><path d="M79.4998169,73.4999084 L79.4998169,61.5000916 C79.4998169,60.6713105 78.8282775,59.9997711 78.0001831,59.9997711 C77.1714019,59.9997711 76.4998627,60.6713105 76.4998627,61.5000916 L76.4998627,73.4999084 C76.4998627,74.3286895 77.1714019,75.0002289 78.0001831,75.0002289 C78.8282775,75.0002289 79.4998169,74.3286895 79.4998169,73.4999084 Z" id="Path" fill="#3455D1"></path><path d="M73.4999084,73.4999084 L73.4999084,61.5000916 C73.4999084,60.6713105 72.8283691,59.9997711 72.0002746,59.9997711 C71.1714936,59.9997711 70.4999542,60.6713105 70.4999542,61.5000916 L70.4999542,73.4999084 C70.4999542,74.3286895 71.1714936,75.0002289 72.0002746,75.0002289 C72.8283691,75.0002289 73.4999084,74.3286895 73.4999084,73.4999084 L73.4999084,73.4999084 Z" id="Path" fill="#3455D1"></path><path d="M61.5000916,76.4998627 L61.5000916,58.5001373 C61.5000916,57.6713563 60.8285522,56.9998169 59.9997711,56.9998169 C59.1716767,56.9998169 58.5001373,57.6713563 58.5001373,58.5001373 L58.5001373,76.4998627 C58.5001373,77.3286437 59.1716767,78.0001831 59.9997711,78.0001831 C60.8285522,78.0001831 61.5000916,77.3286437 61.5000916,76.4998627 L61.5000916,76.4998627 Z" id="Path" fill="#3455D1"></path><path d="M55.5001831,79.4998169 L55.5001831,55.5001831 C55.5001831,54.6714019 54.8286437,53.9998627 53.9998627,53.9998627 C53.1717681,53.9998627 52.5002289,54.6714019 52.5002289,55.5001831 L52.5002289,79.4998169 C52.5002289,80.3285981 53.1717681,81.0001373 53.9998627,81.0001373 C54.8286437,81.0001373 55.5001831,80.3285981 55.5001831,79.4998169 Z" id="Path" fill="#3455D1"></path><path d="M49.5002746,88.4996796 L49.5002746,46.5003204 C49.5002746,45.6715392 48.8287354,45 47.9999542,45 C47.1718598,45 46.5003204,45.6715392 46.5003204,46.5003204 L46.5003204,88.4996796 C46.5003204,89.3284608 47.1718598,90 47.9999542,90 C48.8287354,90 49.5002746,89.3284608 49.5002746,88.4996796 L49.5002746,88.4996796 Z" id="Path" fill="#3455D1"></path><path d="M81.0001373,0 L50.9999084,0 C46.0320282,0.00549316406 42.005539,4.03198242 42.0000458,8.99986271 L42.0000458,30.0002289 C42.005539,34.9681092 46.0320282,38.9945985 50.9999084,39.0000916 L53.6132812,39.0000916 L52.5119019,47.8138732 C52.4377441,48.4071349 52.7227021,48.9880371 53.2376861,49.2915343 C53.7526703,49.5957183 54.3988037,49.5648193 54.8828887,49.2125702 L68.9247895,39.0000916 L81.0001373,39.0000916 C85.9680176,38.9945985 89.9945068,34.9681092 90,30.0002289 L90,8.99986271 C89.9945068,4.03198242 85.9680176,0.00549316406 81.0001373,0 L81.0001373,0 Z M87.0000458,30.0002289 C86.9966125,33.3126069 84.3125152,35.9967041 81.0001373,36.0001373 L71.9734955,36.0001373 C71.9837951,35.6856537 71.8924713,35.3766632 71.7125702,35.1184845 C71.4791108,34.7957612 71.1268615,34.5794678 70.7341004,34.5176698 C70.3406524,34.455185 69.9389648,34.5526886 69.6176147,34.7868348 L55.9183502,44.7507476 L56.988144,36.1862183 C57.0623017,35.6506348 56.8425751,35.1171113 56.4127349,34.7888946 C55.9828949,34.4606781 55.4102325,34.389267 54.9131012,34.6014404 C54.4166564,34.8136138 54.0719604,35.2770996 54.0115356,35.8140565 L53.9881896,36.0001373 L50.9999084,36.0001373 C47.6875304,35.9967041 45.0034332,33.3126069 45,30.0002289 L45,8.99986271 C45.0034332,5.68748479 47.6875304,3.00338754 50.9999084,2.99995418 L81.0001373,2.99995418 C84.3125152,3.00338754 86.9966125,5.68748479 87.0000458,8.99986271 L87.0000458,30.0002289 Z" id="Shape" fill="#4DAF51"></path><path d="M53.9998627,14.9997711 C51.5148926,14.9997711 49.5002746,17.0143891 49.5002746,19.5000458 C49.5002746,21.9850158 51.5148926,24.0003204 53.9998627,24.0003204 C56.4855195,24.0003204 58.5001373,21.9850158 58.5001373,19.5000458 C58.4973907,17.0157623 56.4841461,15.0025177 53.9998627,14.9997711 Z M53.9998627,20.9996796 C53.1717681,20.9996796 52.5002289,20.3281402 52.5002289,19.5000458 C52.5002289,18.6712646 53.1717681,17.9997254 53.9998627,17.9997254 C54.8286437,17.9997254 55.5001831,18.6712646 55.5001831,19.5000458 C55.4994965,20.3281402 54.8279571,20.998993 53.9998627,20.9996796 L53.9998627,20.9996796 Z" id="Shape" fill="#4DAF51"></path><path d="M65.9996796,14.9997711 C63.5147095,14.9997711 61.5000916,17.0143891 61.5000916,19.5000458 C61.5000916,21.9850158 63.5147095,24.0003204 65.9996796,24.0003204 C68.4853363,24.0003204 70.4999542,21.9850158 70.4999542,19.5000458 C70.4972076,17.0157623 68.483963,15.0025177 65.9996796,14.9997711 L65.9996796,14.9997711 Z M65.9996796,20.9996796 C65.171585,20.9996796 64.5000458,20.3281402 64.5000458,19.5000458 C64.5000458,18.6712646 65.171585,17.9997254 65.9996796,17.9997254 C66.8284608,17.9997254 67.5,18.6712646 67.5,19.5000458 C67.4993134,20.3281402 66.8284608,20.998993 65.9996796,20.9996796 L65.9996796,20.9996796 Z" id="Shape" fill="#4DAF51"></path><path d="M78.0001831,14.9997711 C75.5145264,14.9997711 73.4999084,17.0143891 73.4999084,19.5000458 C73.4999084,21.9850158 75.5145264,24.0003204 78.0001831,24.0003204 C80.4851532,24.0003204 82.4997711,21.9850158 82.4997711,19.5000458 C82.4970245,17.0157623 80.4844666,15.0025177 78.0001831,14.9997711 Z M78.0001831,20.9996796 C77.1714019,20.9996796 76.4998627,20.3281402 76.4998627,19.5000458 C76.4998627,18.6712646 77.1714019,17.9997254 78.0001831,17.9997254 C78.8282775,17.9997254 79.4998169,18.6712646 79.4998169,19.5000458 C79.4991303,20.3281402 78.8282775,20.998993 78.0001831,20.9996796 Z" id="Shape" fill="#4DAF51"></path></g></g></g></svg> 