<?xml version="1.0" encoding="UTF-8"?> <svg xmlns="http://www.w3.org/2000/svg" xmlns:xlink="http://www.w3.org/1999/xlink" width="150" height="34" viewBox="0 0 150 34"><defs><path id="a" d="M.181.08H2.93v25.19H.181z"></path><path id="c" d="M0 .074h17.055V25.27H0z"></path></defs><g fill="none" fill-rule="evenodd"><path fill="#00CABA" d="M49.53 24.211a8.504 8.504 0 0 1-7.676-4.827 5.741 5.741 0 0 1-.552-2.447 5.782 5.782 0 0 1 3.073-5.109 1.343 1.343 0 0 0-.638-2.531c-.214 0-.432.05-.634.158a8.467 8.467 0 0 0-4.5 7.482c0 4.675 3.815 8.478 8.504 8.478a8.47 8.47 0 0 0 4.934-1.58 8.523 8.523 0 0 1-2.511.376"></path><path fill="#008CFF" d="M55.61 16.937a8.467 8.467 0 0 0-4.499-7.482 1.35 1.35 0 0 0-1.826.552 1.343 1.343 0 0 0 .554 1.821 5.782 5.782 0 0 1 3.073 5.109c0 3.191-2.605 5.788-5.805 5.788a5.807 5.807 0 0 1-5.054-2.952 8.504 8.504 0 0 0 7.477 4.438c.874 0 1.717-.131 2.51-.376 2.159-1.539 3.57-4.057 3.57-6.898"></path><path fill="#5F5F6E" d="M23.241 4.479a1.87 1.87 0 0 1-1.872 1.87 1.869 1.869 0 1 1 0-3.737 1.87 1.87 0 0 1 1.872 1.867"></path><g transform="translate(26.386 .023)"><mask id="b" fill="#fff"><use xlink:href="#a"></use></mask><path fill="#5F5F6E" d="M1.551 25.27c-.757 0-1.37-.61-1.37-1.368V1.448C.181.693.794.08 1.551.08 2.31.08 2.93.693 2.93 1.45v22.453c0 .758-.62 1.369-1.378 1.369" mask="url(#b)"></path></g><path fill="#5F5F6E" d="M34.596 25.294a1.37 1.37 0 0 1-1.371-1.37V1.473A1.37 1.37 0 0 1 34.596.105c.758 0 1.376.611 1.376 1.367v22.453c0 .758-.618 1.37-1.376 1.37M21.369 25.294a1.37 1.37 0 0 1-1.373-1.37V9.66a1.373 1.373 0 0 1 2.745 0v14.265c0 .758-.613 1.37-1.372 1.37"></path><g transform="translate(0 8.214)"><mask id="d" fill="#fff"><use xlink:href="#c"></use></mask><path fill="#5F5F6E" d="M8.524.074C3.823.074 0 3.888 0 8.577v15.318a1.371 1.371 0 1 0 2.744 0V16.19a.667.667 0 0 1 .997-.578 8.496 8.496 0 0 0 4.783 1.468c4.701 0 8.53-3.812 8.53-8.503 0-4.689-3.829-8.503-8.53-8.503m0 14.27c-3.187 0-5.78-2.586-5.78-5.767 0-3.176 2.593-5.765 5.78-5.765 3.187 0 5.78 2.59 5.78 5.765 0 3.181-2.593 5.766-5.78 5.766" mask="url(#d)"></path></g><path fill="#5F5F6E" d="M91.066 15.565H79.404a5.713 5.713 0 0 1 .63-1.788 5.925 5.925 0 0 1 3.08-2.707 5.831 5.831 0 0 1 2.13-.392 5.88 5.88 0 0 1 2.303.449c.708.31 1.343.737 1.883 1.266.455.463.829.987 1.11 1.556a6.37 6.37 0 0 1 .526 1.616m2.024-2.218a8.978 8.978 0 0 0-1.839-2.734 8.83 8.83 0 0 0-2.682-1.85c-1.017-.445-2.135-.67-3.325-.67-1.18 0-2.304.23-3.34.685a8.535 8.535 0 0 0-2.698 1.85 8.567 8.567 0 0 0-1.808 2.72 8.46 8.46 0 0 0-.671 3.343c0 .786.105 1.55.312 2.273.206.72.5 1.406.872 2.035.373.64.83 1.226 1.355 1.74.52.528 1.109.98 1.748 1.339.63.37 1.318.664 2.042.87a8.325 8.325 0 0 0 2.28.311c.608 0 1.206-.057 1.771-.17a7.426 7.426 0 0 0 1.63-.5 9.703 9.703 0 0 0 1.539-.853c.487-.33.933-.707 1.342-1.137.255-.324.384-.642.384-.946 0-.345-.126-.645-.377-.896a1.278 1.278 0 0 0-.905-.367c-.17 0-.335.03-.501.095a1.304 1.304 0 0 0-.473.356 5.884 5.884 0 0 1-3.172 1.748c-.397.087-.813.13-1.239.13-.717 0-1.41-.121-2.057-.363a6.078 6.078 0 0 1-1.771-1.022 5.712 5.712 0 0 1-1.343-1.545 5.888 5.888 0 0 1-.708-1.654H92.45c.165 0 .331-.038.5-.115.143-.072.276-.168.386-.278.124-.112.225-.25.295-.402.077-.153.116-.315.116-.482v-.288c0-1.115-.22-2.2-.656-3.223M117.987.492a1.428 1.428 0 0 0-.92-.341c-.334 0-.64.116-.902.34-.293.239-.441.596-.441 1.063v22.35c0 .49.15.855.436 1.074.268.229.573.345.908.345.332 0 .641-.115.913-.337.296-.227.446-.592.446-1.082V1.554c0-.467-.148-.824-.44-1.062M149.363 12.29a8.065 8.065 0 0 0-1.662-2.455 8.086 8.086 0 0 0-2.465-1.67 7.699 7.699 0 0 0-3.024-.606 8.036 8.036 0 0 0-3.006.573 7.458 7.458 0 0 0-2.094 1.304l.002-7.882c0-.467-.148-.824-.44-1.062a1.429 1.429 0 0 0-.92-.341c-.334 0-.64.116-.903.34-.292.239-.44.596-.44 1.063v22.35c0 .49.15.855.436 1.075.268.228.573.344.908.344.332 0 .642-.115.914-.337.295-.228.445-.592.445-1.082v-8.597c0-.692.138-1.359.41-1.982a5.118 5.118 0 0 1 1.093-1.62c.453-.452 1-.82 1.625-1.09a5.01 5.01 0 0 1 1.971-.393 5.01 5.01 0 0 1 1.968.39c.606.273 1.15.64 1.611 1.09a5.095 5.095 0 0 1 1.473 3.604v8.598c0 .49.149.854.437 1.077.276.227.584.342.914.342.331 0 .639-.115.91-.337.293-.228.442-.592.442-1.082v-8.597a7.69 7.69 0 0 0-.605-3.017M73.394 12.322a8.065 8.065 0 0 0-1.663-2.454 8.089 8.089 0 0 0-2.464-1.67 7.702 7.702 0 0 0-3.024-.607 8.033 8.033 0 0 0-3.006.574 7.458 7.458 0 0 0-2.094 1.303l.002-7.882c0-.466-.148-.823-.44-1.061a1.428 1.428 0 0 0-.92-.342c-.334 0-.64.116-.903.342-.292.238-.44.595-.44 1.061v22.35c0 .491.15.855.436 1.075.268.23.573.345.908.345.332 0 .642-.115.914-.337.295-.228.445-.592.445-1.082v-8.598c0-.692.138-1.358.41-1.982a5.109 5.109 0 0 1 1.093-1.62c.453-.451 1-.819 1.625-1.09a5.01 5.01 0 0 1 1.971-.392c.695 0 1.359.132 1.968.39.606.273 1.15.64 1.611 1.09a5.095 5.095 0 0 1 1.473 3.604v8.598c0 .49.149.854.437 1.077.276.227.584.342.914.342.331 0 .639-.115.91-.337.293-.228.442-.592.442-1.082v-8.598a7.693 7.693 0 0 0-.605-3.017M104.248 22.498c-3.192 0-5.78-2.58-5.78-5.763s2.588-5.763 5.78-5.763 5.78 2.58 5.78 5.763-2.588 5.763-5.78 5.763m8.263-8.036a9.319 9.319 0 0 0-.867-2.042 9.348 9.348 0 0 0-1.34-1.728 8.85 8.85 0 0 0-1.732-1.32 9.306 9.306 0 0 0-2.063-.863 8.76 8.76 0 0 0-2.284-.298c-1.17 0-2.29.222-3.328.661a8.708 8.708 0 0 0-2.708 1.822 8.523 8.523 0 0 0-1.827 2.716 8.251 8.251 0 0 0-.678 3.318 8.1 8.1 0 0 0 .315 2.262 8.45 8.45 0 0 0 .85 2.026c.367.638.818 1.22 1.338 1.728a7.987 7.987 0 0 0 1.733 1.336 8.156 8.156 0 0 0 2.033.865c.722.209 1.486.315 2.272.315 1.275 0 2.474-.26 3.562-.77a8.868 8.868 0 0 0 2.422-1.638v1.04c0 .45.142.795.415 1.016.258.233.554.352.879.352.322 0 .622-.117.885-.344.281-.23.424-.574.424-1.023v-7.165a8.5 8.5 0 0 0-.3-2.266M129.882 22.596a4.767 4.767 0 0 1-1.967-.407 5.559 5.559 0 0 1-1.613-1.091 4.887 4.887 0 0 1-1.062-1.59 4.814 4.814 0 0 1-.394-1.933v-7.353h5.163c.103 0 .199-.01.291-.024.337-.048.605-.183.796-.412.227-.273.342-.578.342-.905 0-.33-.116-.631-.342-.89-.007-.008-.017-.014-.024-.022l-.005-.012c-.03-.034-.068-.06-.103-.09-.028-.024-.055-.052-.086-.074-.029-.02-.062-.034-.093-.051-.052-.03-.104-.06-.161-.083l-.014-.004a1.649 1.649 0 0 0-.58-.098v.003l-.02-.001h-5.164V1.554c0-.467-.148-.824-.44-1.062a1.429 1.429 0 0 0-.92-.341c-.334 0-.64.116-.902.34-.292.24-.44.596-.44 1.063v16.02c0 1.056.205 2.06.609 2.986a7.933 7.933 0 0 0 1.674 2.454 7.846 7.846 0 0 0 2.43 1.638 7.542 7.542 0 0 0 3.025.607c.468 0 .827-.147 1.065-.438.227-.277.342-.585.342-.917 0-.31-.115-.608-.345-.89-.239-.277-.596-.418-1.062-.418"></path></g></svg> 