<?xml version="1.0" encoding="UTF-8"?> <svg xmlns="http://www.w3.org/2000/svg" xmlns:xlink="http://www.w3.org/1999/xlink" version="1.1" id="Layer_1" x="0px" y="0px" viewBox="0 0 144 30.7" style="enable-background:new 0 0 144 30.7;" xml:space="preserve"> <style type="text/css"> .st0{fill:#FF4612;} .st1{fill:#FFFFFF;} </style> <g> <g> <rect class="st0" width="144" height="30.7"></rect> </g> <g> <g> <g> <path class="st1" d="M125,16.4c-0.2-0.1-0.3-0.1-0.5-0.1h-0.9v2.1h0.3v-0.9h0.5l0.6,0.9h0.3l-0.6-0.9c0.4,0,0.6-0.2,0.6-0.6v0 C125.2,16.7,125.1,16.5,125,16.4z M124.4,17.2h-0.5v-0.7h0.6c0.3,0,0.5,0,0.5,0.3C125,17.2,124.7,17.2,124.4,17.2z"></path> <path class="st1" d="M124.3,15.5c-1,0-1.8,0.8-1.8,1.8c0,1,0.8,1.8,1.8,1.8c1,0,1.8-0.8,1.8-1.8 C126.1,16.3,125.3,15.5,124.3,15.5z M124.3,18.9c-0.9,0-1.6-0.7-1.6-1.6c0-0.9,0.7-1.6,1.6-1.6c0.9,0,1.6,0.7,1.6,1.6 C125.8,18.2,125.1,18.9,124.3,18.9z"></path> </g> </g> <path class="st1" d="M77.9,19.1H83c1.2,0,2.4-0.8,2.4-2.3v-3.1c0-1.5-1.2-2.3-2.4-2.3h-5.1c-1.2,0-2.4,0.8-2.4,2.3v3.1 C75.5,18.3,76.7,19.1,77.9,19.1z M78,13.4c0-0.5,0.4-0.9,0.9-0.9h3c0.5,0,0.9,0.4,0.9,0.9V17c0,0.5-0.4,0.9-0.9,0.9h-3 c-0.5,0-0.9-0.4-0.9-0.9V13.4z"></path> <path class="st1" d="M57.4,11.3h-7.1v7.8h2.5v-6.6h3.8c0.4,0,0.8,0.3,0.8,0.8v5.8h2.5v-5.4C59.8,12.4,58.7,11.3,57.4,11.3z"></path> <path class="st1" d="M94.2,11.3h-7.1v7.8h2.5v-6.6h3.8c0.4,0,0.8,0.3,0.8,0.8v5.8h2.5v-5.4C96.5,12.4,95.5,11.3,94.2,11.3z"></path> <polygon class="st1" points="34.6,14.1 34.6,19.1 35.7,19.1 37,19.1 37,14.4 37,8.8 35.8,8.8 34.6,8.8 "></polygon> <path class="st1" d="M71,19.1v-5.8c0-0.4,0.4-0.8,0.8-0.8h2.7v-1.2H71c-1.3,0-2.4,1-2.4,2.3v5.4H71z"></path> <path class="st1" d="M25.2,19.1l5.1,0c1.3,0,2.4-1.1,2.4-2.3v-3.1c0-1.3-1.1-2.3-2.4-2.3h-7.5l0,10.6h2.5V19.1z M25.2,12.5h4.1 c0.5,0,0.9,0.4,0.9,0.9V17c0,0.5-0.4,0.9-0.9,0.9h-4.1V12.5z"></path> <path class="st1" d="M61.6,16.8c0,1.3,1,2.3,2.4,2.3h3v-1.2h-2.2c-0.4,0-0.7-0.3-0.7-0.7v-4.6H67v-1.2h-2.9l0-2.5h-2.5V16.8z"></path> <polygon class="st1" points="100.9,15.1 100.9,11.3 99.6,11.3 98.4,11.3 98.4,15.2 98.4,19.1 99.9,19.1 100.9,19.1 "></polygon> <polygon class="st1" points="98.4,9.7 98.4,10.3 99.6,10.3 100.9,10.3 100.9,9.7 100.9,9.2 99.7,9.2 98.4,9.2 "></polygon> <path class="st1" d="M105.1,16.7v-3c0-1,0.6-1.2,1.2-1.2h4.5v-1.2h-5.8c-1.3,0-2.4,1-2.4,2.3v3.1c0,1.3,1.1,2.3,2.4,2.3h5.8v-1.2 h-4.5C105.6,17.8,105.1,17.7,105.1,16.7z"></path> <path class="st1" d="M119.1,14.5h-3.2c-0.9,0-1.1-0.4-1.1-1c0-0.7,0.3-1,1.1-1h4.9v-1.2h-6.2c-1.3,0-2.3,0.9-2.3,2.2 c0,1.3,1,2.2,2.3,2.2h3.4c0.5,0,0.9,0.4,0.9,1.1c0,0.6-0.5,1-0.9,1.1h-5.8v1.2h6.9c1.1,0,2.3-0.6,2.3-2.3 C121.4,15.3,120.3,14.6,119.1,14.5z"></path> <path class="st1" d="M41.2,19.1h7.3v-5.4c0-1.3-1-2.4-2.4-2.4h-6.3v1.2h5.4c0.6,0,0.8,0.2,0.8,0.6v0.7h-4.8 c-1.4,0-2.4,1.2-2.4,2.2c0,0.5,0,0.5,0,0.7C38.8,18.8,40.6,19.1,41.2,19.1z M46,15.1v2.7h-4c-0.5,0-0.8-0.3-0.8-0.7v-1.2 c0-0.4,0.4-0.8,0.8-0.8H46z"></path> </g> </g> </svg> 