<?xml version="1.0" encoding="UTF-8"?> <svg xmlns="http://www.w3.org/2000/svg" xmlns:xlink="http://www.w3.org/1999/xlink" width="76px" height="92px" viewBox="0 0 76 92"><!-- Generator: Sketch 55.2 (78181) - https://sketchapp.com --><title>private-secure</title><desc>Created with Sketch.</desc><g id="Page-1" stroke="none" stroke-width="1" fill="none" fill-rule="evenodd"><g id="Artboard" transform="translate(-577.000000, -815.000000)" fill-rule="nonzero"><g id="private-secure" transform="translate(578.000000, 816.000000)"><path d="M36.9140625,7.03300781 C35.9405859,7.03300781 35.1580078,7.81699219 35.1580078,8.7890625 C35.1580078,9.69380859 35.8386328,10.4466797 36.7382812,10.5359766 C37.7797852,10.6393359 38.6701172,9.82810547 38.6701172,8.7890625 C38.6701172,7.81558594 37.8861328,7.03300781 36.9140625,7.03300781 Z" id="Path" fill="#000000"></path><path d="M72.0703125,10.546875 C67.2240234,10.546875 63.28125,6.60410156 63.28125,1.7578125 C63.28125,0.787148437 62.4941016,0 61.5234375,0 L12.3046875,0 C11.3340234,0 10.546875,0.787148437 10.546875,1.7578125 C10.546875,6.60410156 6.60410156,10.546875 1.7578125,10.546875 C0.787148438,10.546875 0,11.3340234 0,12.3046875 L0,40.9904297 C0,63.3457617 14.5713867,83.3774414 36.4092188,89.9259961 C36.5739258,89.9752148 36.7439063,90 36.9140625,90 C37.0842187,90 37.2545508,89.9752148 37.419082,89.9258203 C58.7838867,83.5170117 73.828125,63.8347852 73.828125,40.9904297 L73.828125,12.3046875 C73.828125,11.3340234 73.0409766,10.546875 72.0703125,10.546875 Z M70.3125,40.9904297 C70.3125,61.9871484 56.9142773,80.1706641 36.9140625,86.404043 C17.0732812,80.2204102 3.515625,61.8721875 3.515625,40.9904297 L3.515625,13.9373438 C8.89646484,13.1642578 13.1642578,8.89646484 13.9373438,3.515625 L59.8907813,3.515625 C60.6638672,8.89646484 64.9316602,13.1642578 70.3125,13.9373438 L70.3125,40.9904297 Z" id="Shape" stroke="#FFFFFF" fill="#3455D1"></path><path d="M65.7442969,16.2580078 C62.0785547,14.6525977 59.1755273,11.7495703 57.5701172,8.08382812 C57.2899219,7.44433594 56.6581641,7.03125 55.9599609,7.03125 L43.9417969,7.03125 C42.9711328,7.03125 42.1839844,7.81839844 42.1839844,8.7890625 C42.1839844,9.75972656 42.9711328,10.546875 43.9417969,10.546875 L54.8484961,10.546875 C56.705625,14.182207 59.645918,17.1223242 63.28125,18.9796289 L63.28125,40.9904297 C63.28125,58.1929102 52.9542773,73.0358789 36.9140625,78.9774609 C20.8738477,73.0357031 10.546875,58.1929102 10.546875,40.9904297 L10.546875,18.9796289 C14.182207,17.1223242 17.1223242,14.182207 18.9796289,10.546875 L29.8863281,10.546875 C30.8569922,10.546875 31.6441406,9.75972656 31.6441406,8.7890625 C31.6441406,7.81839844 30.8569922,7.03125 29.8863281,7.03125 L17.8681641,7.03125 C17.1699609,7.03125 16.5382031,7.44451172 16.2580078,8.08382813 C14.6525977,11.7495703 11.7495703,14.6525977 8.08382813,16.2580078 C7.44451172,16.5382031 7.03125,17.1701367 7.03125,17.8681641 L7.03125,40.9904297 C7.03125,59.8364648 18.6874805,76.2614648 36.3276562,82.5039844 C36.5173242,82.5711328 36.7156055,82.604707 36.9140625,82.604707 C37.1125195,82.604707 37.3108008,82.5711328 37.5004688,82.5039844 C55.1258789,76.2667383 66.796875,59.8517578 66.796875,40.9904297 L66.796875,17.8681641 C66.796875,17.1699609 66.3836133,16.5382031 65.7442969,16.2580078 Z" id="Path" stroke="#FFFFFF" fill="#3455D1"></path><path d="M36.9140625,25.6640625 C28.1907422,25.6640625 21.09375,32.7610547 21.09375,41.484375 C21.09375,50.2076953 28.1907422,57.3046875 36.9140625,57.3046875 C45.6373828,57.3046875 52.734375,50.2076953 52.734375,41.484375 C52.734375,32.7610547 45.6373828,25.6640625 36.9140625,25.6640625 Z M36.9140625,53.7890625 C30.1292578,53.7890625 24.609375,48.2691797 24.609375,41.484375 C24.609375,34.6995703 30.1292578,29.1796875 36.9140625,29.1796875 C43.6988672,29.1796875 49.21875,34.6995703 49.21875,41.484375 C49.21875,48.2691797 43.6988672,53.7890625 36.9140625,53.7890625 Z" id="Shape" fill="#4DAF51"></path><path d="M45.1882617,36.725625 C44.5016602,36.039375 43.3889648,36.039375 42.7021875,36.725625 L35.15625,44.2717383 L32.8835742,41.9992383 C32.1969727,41.3129883 31.0842773,41.3129883 30.3975,41.9992383 C29.7110742,42.6856641 29.7110742,43.7987109 30.3975,44.4853125 L33.913125,48.0009375 C34.2566016,48.3438867 34.70625,48.515625 35.15625,48.515625 C35.60625,48.515625 36.0558984,48.3438867 36.3991992,48.0007617 L45.1882617,39.2116992 C45.8746875,38.5252734 45.8746875,37.4122266 45.1882617,36.725625 Z" id="Path" fill="#4DAF51"></path></g></g></g></svg> 