<?xml version="1.0" encoding="UTF-8"?> <svg xmlns="http://www.w3.org/2000/svg" xmlns:xlink="http://www.w3.org/1999/xlink" width="90px" height="90px" viewBox="0 0 90 90"><!-- Generator: Sketch 55.2 (78181) - https://sketchapp.com --><title>runs-various-devices</title><desc>Created with Sketch.</desc><g id="Page-1" stroke="none" stroke-width="1" fill="none" fill-rule="evenodd"><g id="Artboard" transform="translate(-1313.000000, -1913.000000)" fill-rule="nonzero"><g id="runs-various-devices" transform="translate(1313.000000, 1913.000000)"><polygon id="Path" fill="#4DAF51" points="21.7741935 37.7419355 68.2258065 37.7419355 68.2258065 40.6451613 21.7741935 40.6451613"></polygon><polygon id="Path" fill="#4DAF51" points="49.3548387 43.5483871 68.2258065 43.5483871 68.2258065 46.4516129 49.3548387 46.4516129"></polygon><polygon id="Path" fill="#4DAF51" points="21.7741935 43.5483871 40.6451613 43.5483871 40.6451613 46.4516129 21.7741935 46.4516129"></polygon><polygon id="Path" fill="#4DAF51" points="49.3548387 31.9354839 68.2258065 31.9354839 68.2258065 34.8387097 49.3548387 34.8387097"></polygon><polygon id="Path" fill="#4DAF51" points="21.7741935 31.9354839 40.6451613 31.9354839 40.6451613 34.8387097 21.7741935 34.8387097"></polygon><polygon id="Path" fill="#4DAF51" points="21.7741935 26.1290323 68.2258065 26.1290323 68.2258065 29.0322581 21.7741935 29.0322581"></polygon><path d="M76.9354839,33.6351752 L76.9354839,26.1290323 C76.9354839,21.3255261 73.0293126,17.4193548 68.2258065,17.4193548 L68.2258065,20.3225806 C71.428144,20.3225806 74.0322581,22.9266947 74.0322581,26.1290323 L74.0322581,33.6351752 C74.0322581,36.2088111 74.881395,38.6534464 76.4492502,40.6451613 C74.881395,42.6368762 74.0322581,45.0815115 74.0322581,47.6551473 L74.0322581,55.1612903 C74.0322581,58.3636279 71.428144,60.9677419 68.2258065,60.9677419 L68.2258065,63.8709677 C73.0293126,63.8709677 76.9354839,59.9647965 76.9354839,55.1612903 L76.9354839,47.6551473 C76.9354839,45.394799 77.8150989,43.2698306 79.4134325,41.671497 L80.4397681,40.6451613 L79.4134325,39.6188256 C77.8150989,38.020492 76.9354839,35.8969411 76.9354839,33.6351752 Z" id="Path" fill="#3455D1"></path><path d="M15.9677419,55.1612903 L15.9677419,47.6551473 C15.9677419,45.0815115 15.118605,42.6368762 13.5507498,40.6451613 C15.118605,38.6534464 15.9677419,36.2088111 15.9677419,33.6351752 L15.9677419,26.1290323 C15.9677419,22.9266947 18.571856,20.3225806 21.7741935,20.3225806 L21.7741935,17.4193548 C16.9706874,17.4193548 13.0645161,21.3255261 13.0645161,26.1290323 L13.0645161,33.6351752 C13.0645161,35.8955236 12.1849011,38.020492 10.5865675,39.6188256 L9.56023185,40.6451613 L10.5865675,41.671497 C12.1849011,43.2698306 13.0645161,45.3933815 13.0645161,47.6551473 L13.0645161,55.1612903 C13.0645161,59.9647965 16.9706874,63.8709677 21.7741935,63.8709677 L21.7741935,60.9677419 C18.571856,60.9677419 15.9677419,58.3636279 15.9677419,55.1612903 Z" id="Path" fill="#3455D1"></path><path d="M45,63.8709677 C41.7976625,63.8709677 39.1935484,66.4750818 39.1935484,69.6774194 C39.1935484,72.8797569 41.7976625,75.483871 45,75.483871 C48.2023375,75.483871 50.8064516,72.8797569 50.8064516,69.6774194 C50.8064516,66.4750818 48.2023375,63.8709677 45,63.8709677 Z M45,72.5806452 C43.3988312,72.5806452 42.0967742,71.2785881 42.0967742,69.6774194 C42.0967742,68.0762506 43.3988312,66.7741935 45,66.7741935 C46.6011688,66.7741935 47.9032258,68.0762506 47.9032258,69.6774194 C47.9032258,71.2785881 46.6011688,72.5806452 45,72.5806452 Z" id="Shape" fill="#3455D1"></path><path d="M45,58.0645161 C43.0720766,58.0645161 41.1604556,58.5479145 39.4735226,59.4608429 L40.8570911,62.0146326 C42.1215821,61.3306452 43.55264,60.9677419 45,60.9677419 C49.8035061,60.9677419 53.7096774,64.8739132 53.7096774,69.6774194 C53.7096774,71.1247794 53.3467742,72.5558373 52.6627867,73.8203282 L55.2165765,75.2038968 C56.1295049,73.5169638 56.6129032,71.6053427 56.6129032,69.6774194 C56.6129032,63.2741621 51.4032572,58.0645161 45,58.0645161 L45,58.0645161 Z" id="Path" fill="#3455D1"></path><path d="M45,78.3870968 C40.1964939,78.3870968 36.2903226,74.4809255 36.2903226,69.6774194 C36.2903226,68.2300593 36.6532258,66.7990014 37.3372133,65.5345105 L34.7834235,64.150942 C33.8704951,65.8378749 33.3870968,67.749496 33.3870968,69.6774194 C33.3870968,76.0806766 38.5967428,81.2903226 45,81.2903226 C46.9279234,81.2903226 48.8395444,80.8069242 50.5264774,79.8939958 L49.1429089,77.3402061 C47.8784179,78.0241935 46.44736,78.3870968 45,78.3870968 L45,78.3870968 Z" id="Path" fill="#3455D1"></path><path d="M90,4.35483871 C90,1.95414877 88.0458512,0 85.6451613,0 L4.35483871,0 C1.95414877,0 0,1.95414877 0,4.35483871 L0,71.1290323 L24.6774194,71.1290323 L24.6774194,73.714009 L28.3107045,74.6233933 C28.6565966,75.7872354 29.1222751,76.910676 29.7027784,77.9795394 L27.7734375,81.1932177 L33.4813665,86.9011467 L36.6950448,84.9718056 C37.7639082,85.5537267 38.8873488,86.0194052 40.0511907,86.3638799 L40.9634104,90 L49.0365896,90 L49.945974,86.3667149 C51.109816,86.0208227 52.2332566,85.5551442 53.30212,84.974641 L56.5157983,86.9039819 L62.2237273,81.1960528 L60.2943862,77.9823746 C60.8763074,76.9135112 61.3419859,75.7900706 61.6864605,74.6262287 L65.3225806,73.714009 L65.3225806,71.1290323 L90,71.1290323 L90,4.35483871 Z M4.35483871,2.90322581 L85.6451613,2.90322581 C86.4446825,2.90322581 87.0967742,3.55531754 87.0967742,4.35483871 L87.0967742,11.6129032 L2.90322581,11.6129032 L2.90322581,4.35483871 C2.90322581,3.55531754 3.55531754,2.90322581 4.35483871,2.90322581 Z M62.4193548,71.4472813 L59.3041992,72.2262475 L59.0979397,73.0817635 C58.7456684,74.5475523 58.1644562,75.9452968 57.3748583,77.2360131 L56.91485,77.9866274 L58.5698872,80.7431326 L56.0671309,83.245889 L53.3106256,81.5908518 L52.5600113,82.05086 C51.2692949,82.8404581 49.8715505,83.4209615 48.4057617,83.7739415 L47.5502458,83.980201 L46.769862,87.0967742 L43.230138,87.0967742 L42.4511719,83.9816185 L41.5956558,83.775359 C40.129867,83.4230878 38.7321226,82.8418756 37.4414063,82.0522776 L36.6907919,81.5922693 L33.9342868,83.2473065 L31.4315303,80.7445502 L33.0865675,77.9880449 L32.6265594,77.2374306 C31.8369613,75.9467143 31.2564578,74.5489698 30.9034778,73.083181 L30.6972183,72.2276652 L27.5806452,71.4472813 L27.5806452,67.9075574 L30.6958008,67.1285912 L30.9020603,66.2730752 C31.2543316,64.8072864 31.8355438,63.4095419 32.6251417,62.1188256 L33.08515,61.3682113 L31.4301128,58.6117061 L33.9328691,56.1089497 L36.6893744,57.7639869 L37.4399888,57.3039787 C38.7307051,56.5143806 40.1284495,55.9338772 41.5942383,55.5808972 L42.4497542,55.3746377 L43.230138,52.2580645 L46.769862,52.2580645 L47.5488281,55.3732202 L48.4043442,55.5794797 C49.870133,55.9317509 51.2678774,56.5129631 52.5585938,57.3025611 L53.3092081,57.7625694 L56.0657132,56.1075322 L58.5684697,58.6102885 L56.9134325,61.3667938 L57.3734406,62.1174081 C58.1630387,63.4081244 58.7435422,64.8058689 59.0965222,66.2716577 L59.3027817,67.1271735 L62.4193548,67.9075574 L62.4193548,71.4472813 Z M65.3225806,68.2258065 L65.3225806,65.6408297 L61.6892955,64.7314454 C61.3434034,63.5676033 60.8777249,62.4441627 60.2972216,61.3752993 L62.2265625,58.161621 L56.5186335,52.453692 L53.3049552,54.3830331 C52.2360918,53.801112 51.1126512,53.3354335 49.9488093,52.9909588 L49.0365896,49.3548387 L40.9634104,49.3548387 L40.054026,52.9881238 C38.890184,53.334016 37.7667434,53.7996945 36.69788,54.3801977 L33.4842017,52.4508569 L27.7762727,58.1587859 L29.7056137,61.3724641 C29.1236926,62.4413275 28.6580141,63.5647681 28.3135395,64.72861 L24.6774194,65.6408297 L24.6774194,68.2258065 L2.90322581,68.2258065 L2.90322581,14.516129 L87.0967742,14.516129 L87.0967742,68.2258065 L65.3225806,68.2258065 Z" id="Shape" fill="#3455D1"></path><polygon id="Path" fill="#3455D1" points="5.80645161 5.80645161 8.70967742 5.80645161 8.70967742 8.70967742 5.80645161 8.70967742"></polygon><polygon id="Path" fill="#3455D1" points="11.6129032 5.80645161 14.516129 5.80645161 14.516129 8.70967742 11.6129032 8.70967742"></polygon><polygon id="Path" fill="#3455D1" points="17.4193548 5.80645161 20.3225806 5.80645161 20.3225806 8.70967742 17.4193548 8.70967742"></polygon></g></g></g></svg> 