<?xml version="1.0" encoding="UTF-8"?> <svg xmlns="http://www.w3.org/2000/svg" xmlns:xlink="http://www.w3.org/1999/xlink" width="90px" height="69px" viewBox="0 0 90 69"><!-- Generator: Sketch 55.2 (78181) - https://sketchapp.com --><title>sampled-sounds</title><desc>Created with Sketch.</desc><g id="Page-1" stroke="none" stroke-width="1" fill="none" fill-rule="evenodd"><g id="Artboard" transform="translate(-687.000000, -1950.000000)" fill-rule="nonzero"><g id="sampled-sounds" transform="translate(687.000000, 1950.000000)"><path d="M64.6402443,48.1479279 L62.6178834,44.9849405 C66.1368319,42.740618 68.2957947,38.8811762 68.3667494,34.7080541 C68.4377042,30.534932 66.4111942,26.6043254 62.9705771,24.2416708 L65.0961197,21.1462205 C69.5761084,24.2205294 72.2154033,29.3369594 72.1236834,34.7695703 C72.0319635,40.2021813 69.2214586,45.2266012 64.6402443,48.1479279 L64.6402443,48.1479279 Z" id="Path" fill="#4DAF51"></path><path d="M77.1027151,60.3543206 L74.8345942,57.366742 C81.9317563,51.9851494 86.1284908,43.6137565 86.1942476,34.7071901 C86.2600045,25.8006237 82.1873322,17.3681781 75.1704037,11.8823817 L77.4826113,8.92763359 C85.4187972,15.1285883 90.0258402,24.6630383 89.9523638,34.7342591 C89.8788874,44.8054798 85.1332218,54.2716955 77.1074052,60.3561966 L77.1027151,60.3543206 Z" id="Path" fill="#4DAF51"></path><path d="M46.6519255,68.8386687 C45.0165424,68.8359042 43.4328058,68.2656662 42.1710266,67.2252824 L26.5427542,54.4598327 C24.3357065,52.6609201 21.5763903,51.6771062 18.729087,51.6739273 L6.08182718,51.6739273 C2.79147553,51.6703096 0.124875672,49.0041294 0.120740153,45.7137783 L0.120740153,23.2858333 C0.123324967,19.9943833 2.79037818,17.3264907 6.08182718,17.3228702 L18.729087,17.3228702 C21.5763903,17.3196913 24.3357065,16.3358775 26.5427542,14.5369649 L42.1719646,1.77339115 C44.2973892,0.0378989302 47.2321442,-0.318673313 49.7113188,0.857360845 C52.1904934,2.033395 53.770937,4.53182024 53.7715587,7.2757887 L53.7715587,61.7228849 C53.7858643,64.4718754 52.2006622,66.9783916 49.7107933,68.1435994 C48.755423,68.5995235 47.7105077,68.8369605 46.6519255,68.8386687 L46.6519255,68.8386687 Z M6.08182718,21.0749313 C4.86245859,21.0764817 3.8743516,22.0645887 3.87280122,23.2839573 L3.87280122,45.7119023 C3.87435261,46.9311186 4.86261034,47.9189567 6.08182718,47.9199902 L18.729087,47.9199902 C22.4412319,47.9237718 26.0387245,49.2064137 28.9159328,51.5519853 L44.5451432,64.3174351 C45.5480959,65.137312 46.9336556,65.3059875 48.10402,64.7506861 C49.2743844,64.1953847 50.0200898,63.0154904 50.0194008,61.7200708 L50.0194008,7.2757887 C50.0194008,5.98089078 49.2730306,4.80195486 48.10306,4.24704078 C46.9330894,3.69212669 45.5481753,3.8604073 44.5451432,4.67936244 L28.9159328,17.4448122 C26.0384706,19.7897091 22.441003,21.0716796 18.729087,21.0749313 L6.08182718,21.0749313 Z" id="Shape" fill="#3455D1"></path></g></g></g></svg> 