<?xml version="1.0" encoding="UTF-8"?> <!-- Generator: Adobe Illustrator 24.0.0, SVG Export Plug-In . SVG Version: 6.00 Build 0) --> <svg xmlns="http://www.w3.org/2000/svg" xmlns:xlink="http://www.w3.org/1999/xlink" version="1.1" id="Layer_1" x="0px" y="0px" viewBox="0 0 200 40" style="enable-background:new 0 0 200 40;" xml:space="preserve"> <style type="text/css"> .st0{fill:#B32D26;} </style> <g> <path class="st0" d="M42.6,16.1c2.9,0,5.4,1,7.5,2.9c2.1,1.9,3.2,4.3,3.2,7.1c0,2.8-1,5.1-3.1,6.9c-2.1,1.9-4.6,2.8-7.5,2.8L7,35.9 v-8h38.2v-3.8H15.8c-2.9,0-5.4-0.9-7.6-2.8S5,17.1,5,14.4c0-2.9,1.2-5.2,3.7-7.1c2.3-1.8,5-2.6,8.2-2.6l34.4-0.2v7.9l-37.6,0v3.8 H42.6z"></path> <path class="st0" d="M68.5,4.2h33v8.1H65.3V16h36.2v8.2l-36,0.1v3.3h36v8.4H68.4c-1.8,0-3.5-0.3-4.8-0.8c-1.4-0.6-2.6-1.5-3.7-2.8 c-0.9-1-1.6-2.1-2-3.1c-0.4-1-0.6-2.1-0.6-3.4V14.4c0-1.6,0.3-2.9,0.8-4.1c0.5-1.2,1.3-2.3,2.5-3.3c1.1-1.1,2.3-1.8,3.5-2.1 C65.2,4.4,66.7,4.2,68.5,4.2z"></path> <path class="st0" d="M105.4,11.3c0-1.6,0.4-2.9,1.2-4.1c0.8-1.1,2-2.1,3.5-2.8c0.5-0.3,1.1-0.4,1.6-0.6c0.5-0.1,1.1-0.2,1.6-0.2 c1.2,0,2.3,0.3,3.4,0.8c1.1,0.5,2.2,1.3,3.2,2.3l21.5,21.1V4.4h8v23c0,1.9-0.3,3.5-1,4.7c-0.7,1.3-1.7,2.3-3.2,3.2 c-0.5,0.3-1.1,0.5-1.8,0.7c-0.7,0.2-1.3,0.3-1.8,0.3c-1.2,0-2.3-0.3-3.5-0.8c-1.1-0.5-2.2-1.3-3.2-2.3l-21.5-21v23.7l-8-0.1V11.3z"></path> <path class="st0" d="M161.6,35.8l-9,0.1l12.2-23.8c1.7-3.2,3.2-5.4,4.7-6.5c1.2-0.9,2.7-1.4,4.4-1.4c1.6,0,3,0.5,4.3,1.5 c1.3,1,2.8,3.2,4.5,6.5L195,35.9l-8.7-0.1l-4.7-8.2h-15.6L161.6,35.8z M170,19.5h7.5l-3.7-6.7L170,19.5z"></path> </g> </svg> 