<?xml version="1.0" encoding="UTF-8"?> <svg xmlns="http://www.w3.org/2000/svg" xmlns:xlink="http://www.w3.org/1999/xlink" width="109px" height="57px" viewBox="0 0 109 57"><!-- Generator: Sketch 55.2 (78181) - https://sketchapp.com --><title>sound-detection</title><desc>Created with Sketch.</desc><g id="Page-1" stroke="none" stroke-width="1" fill="none" fill-rule="evenodd"><g id="Artboard" transform="translate(-419.000000, -1954.000000)" fill-rule="nonzero"><g id="sound-detection" transform="translate(419.000000, 1954.000000)"><rect id="Rectangle" fill="#3455D1" x="9" y="27" width="3" height="3"></rect><rect id="Rectangle" fill="#3455D1" x="15" y="24" width="3" height="10"></rect><rect id="Rectangle" fill="#3455D1" x="22" y="21" width="3" height="16"></rect><rect id="Rectangle" fill="#3455D1" x="28" y="24" width="3" height="10"></rect><rect id="Rectangle" fill="#3455D1" x="35" y="27" width="3" height="3"></rect><rect id="Rectangle" fill="#3455D1" x="79" y="24" width="3" height="10"></rect><rect id="Rectangle" fill="#3455D1" x="86" y="21" width="3" height="16"></rect><rect id="Rectangle" fill="#3455D1" x="92" y="24" width="3" height="10"></rect><rect id="Rectangle" fill="#3455D1" x="99" y="27" width="3" height="3"></rect><rect id="Rectangle" fill="#3455D1" x="41" y="24" width="3" height="10"></rect><rect id="Rectangle" fill="#3455D1" x="47" y="19" width="3" height="19"></rect><rect id="Rectangle" fill="#3455D1" x="54" y="11" width="3" height="35"></rect><rect id="Rectangle" fill="#3455D1" x="60" y="19" width="3" height="19"></rect><rect id="Rectangle" fill="#3455D1" x="67" y="24" width="3" height="10"></rect><rect id="Rectangle" fill="#3455D1" x="73" y="27" width="3" height="3"></rect><path d="M0,0 L0,57 L109,57 L109,0 L0,0 Z M105.805861,53.8333333 L3.19413919,53.8333333 L3.19413919,3.16666667 L105.805861,3.16666667 L105.805861,53.8333333 Z" id="Shape" fill="#4DAF51"></path></g></g></g></svg> 