<?xml version="1.0" encoding="UTF-8"?> <svg xmlns="http://www.w3.org/2000/svg" xmlns:xlink="http://www.w3.org/1999/xlink" width="76px" height="90px" viewBox="0 0 76 90"><!-- Generator: Sketch 55.2 (78181) - https://sketchapp.com --><title>voice-data</title><desc>Created with Sketch.</desc><g id="Page-1" stroke="none" stroke-width="1" fill="none" fill-rule="evenodd"><g id="Artboard" transform="translate(-561.000000, -1587.000000)" fill-rule="nonzero"><g id="voice-data" transform="translate(561.000000, 1587.000000)"><path d="M73.2420703,15.937207 C67.3899609,15.937207 62.9486719,12.5122852 58.2458203,8.88679687 C52.8431836,4.72130859 46.7198437,0 37.6171875,0 C28.5145313,0 22.3911914,4.72130859 16.9882031,8.88679687 C12.2857031,12.5122852 7.84423828,15.937207 1.99212891,15.937207 C0.956953125,15.937207 0.117070312,16.7767383 0.117070312,17.8122656 C0.117070312,39.7049414 2.84361328,54.2824805 8.9578125,65.0787891 C15.0289453,75.7993359 24.0663867,82.466543 36.6795703,89.7488086 C36.9696094,89.9163281 37.2932227,90 37.6170117,90 C37.9408008,90 38.2644141,89.9161523 38.5544531,89.7488086 C51.1678125,82.466543 60.2050781,75.7995117 66.2765625,65.0787891 C72.3904102,54.2824805 75.1169532,39.7049414 75.1169532,17.8122656 C75.1169532,16.7767383 74.2772461,15.937207 73.2420703,15.937207 Z M37.6171875,85.9570312 C15.0001172,72.7686914 4.16935547,61.4070703 3.87351562,19.5931055 C10.0511719,18.9706641 14.7350391,15.3592383 19.2782812,11.8564453 C24.4471289,7.87130859 29.7922852,3.74994141 37.6171875,3.74994141 C45.4419141,3.74994141 50.7868945,7.87095703 55.9560937,11.8564453 C60.4989844,15.3594141 65.1832031,18.9704883 71.3608594,19.5931055 C71.0650195,61.4070703 60.2342578,72.7686914 37.6171875,85.9570312 Z" id="Shape" fill="#3455D1"></path><path d="M15.4634766,21.4140234 C14.9807813,20.4976758 13.8469922,20.1461133 12.9306445,20.6286328 C12.6977344,20.7513281 12.4614844,20.8717383 12.2245313,20.9886328 C11.2955273,21.4460156 10.9132031,22.5699609 11.3704102,23.4991406 C11.6966602,24.1620117 12.362168,24.5460937 13.054043,24.5460937 C13.3319531,24.5460937 13.6146094,24.4842187 13.880918,24.3530859 C14.1486328,24.22125 14.4149414,24.0853711 14.6777344,23.9470312 C15.5942578,23.4641602 15.9458203,22.3303711 15.4634766,21.4140234 Z" id="Path" fill="#3455D1"></path><path d="M64.9659375,36.1170703 C65.023418,36.122168 65.0808984,36.1248047 65.1376758,36.1248047 C66.0963867,36.1248047 66.9146484,35.3932031 67.0027148,34.419375 C67.0246875,34.1799609 67.0454297,33.9394922 67.0656445,33.7000781 C67.1531836,32.6680664 66.3874805,31.7608594 65.3554688,31.6733203 C64.3250391,31.5845508 63.41625,32.3514844 63.3290625,33.3834961 C63.309375,33.6151758 63.2891602,33.8477344 63.2678906,34.0797656 C63.1745508,35.11125 63.9346289,36.0233789 64.9659375,36.1170703 Z" id="Path" fill="#3455D1"></path><path d="M19.1694727,20.7646875 C19.5495117,20.7646875 19.933418,20.649375 20.265293,20.4094336 C21.3514453,19.6252734 22.4094727,18.8200195 23.4323438,18.0407813 C28.2183398,14.3968359 32.3514844,11.2496484 37.6171875,11.2496484 C38.6527148,11.2496484 39.4922461,10.4101172 39.4922461,9.37458984 C39.4922461,8.33941406 38.6527148,7.49953125 37.6171875,7.49953125 C31.0862109,7.49953125 26.2648828,11.1703711 21.1605469,15.0572461 C20.1561328,15.8222461 19.1176172,16.6129102 18.0701367,17.3691211 C17.2302539,17.9755664 17.0414648,19.1473242 17.6475586,19.9868555 C18.0140625,20.4948633 18.5876367,20.7646875 19.1694727,20.7646875 Z" id="Path" fill="#3455D1"></path><path d="M37.6171875,77.2187695 C32.8187109,74.2601953 27.0230273,70.2873633 22.6773633,65.164043 C22.0076367,64.374082 20.8242773,64.2772266 20.034668,64.9466016 C19.244707,65.6163281 19.1475,66.7996875 19.8172266,67.5896484 C24.8097656,73.4763867 31.4328516,77.8593164 36.6447656,81.0202148 C36.6542578,81.0256641 36.6644531,81.029707 36.6739453,81.0351562 C36.7189453,81.0611719 36.765,81.0838477 36.8119336,81.1061719 C36.8419922,81.1204102 36.871875,81.1362305 36.9022852,81.1487109 C36.9444727,81.1659375 36.9871875,81.1794727 37.0306055,81.1937109 C37.0668164,81.2056641 37.1025,81.219375 37.1390625,81.229043 C37.1782617,81.2394141 37.2181641,81.2455664 37.2577148,81.2533008 C37.2976172,81.2613867 37.3375195,81.2712305 37.3779492,81.2763281 C37.4347266,81.2837109 37.4916797,81.2854687 37.5493359,81.2877539 C37.5713086,81.288457 37.5932813,81.2921484 37.6152539,81.2921484 C37.615957,81.2921484 37.6166602,81.2921484 37.6171875,81.2921484 C37.6178906,81.2921484 37.6187695,81.2921484 37.6191211,81.2921484 C37.6410938,81.2921484 37.6630664,81.288457 37.6850391,81.2877539 C37.7425195,81.2854687 37.8,81.2838867 37.8567773,81.2763281 C37.8966797,81.2712305 37.9358789,81.2613867 37.9754297,81.2536523 C38.0156836,81.245918 38.0561133,81.2397656 38.0956641,81.229043 C38.131875,81.2195508 38.1675586,81.2060156 38.2032422,81.1942383 C38.2463086,81.18 38.2897266,81.1664648 38.3322656,81.1488867 C38.3626758,81.136582 38.392207,81.1207617 38.4222656,81.1063477 C38.4691992,81.0840234 38.5156055,81.0613477 38.5602539,81.035332 C38.5702734,81.0298828 38.5799414,81.0258398 38.5894336,81.0203906 C43.8013477,77.859668 50.4242578,73.4769141 55.4169727,67.5894727 C61.1101758,60.8744531 64.69875,51.7874414 66.3873047,39.8088281 C66.5317969,38.7833203 65.8177734,37.835332 64.7924414,37.6906641 C63.7658789,37.5463477 62.8185938,38.2601953 62.6739258,39.2855273 C61.0871484,50.5409766 57.7780664,59.00625 52.5568359,65.1645703 C48.2116992,70.2873633 42.416543,74.2601953 37.6171875,77.2187695 Z" id="Path" fill="#3455D1"></path><path d="M49.7183203,23.4571289 L30.1582617,43.0170117 L25.5169336,38.3751562 C24.3689062,37.2274805 22.8385547,36.5953711 21.2074805,36.5953711 C19.5760547,36.5953711 18.0457031,37.2274805 16.8971484,38.3755078 C14.5218164,40.7522461 14.5218164,44.6187305 16.8978516,46.9947656 L25.862168,55.9578516 L25.9398633,56.0343164 C25.9512891,56.0453906 25.9628906,56.0562891 25.9743164,56.0673633 L26.0530664,56.1406641 C26.0669531,56.1534961 26.0808398,56.1663281 26.0952539,56.1786328 L26.1759375,56.2492969 C26.1882422,56.2603711 26.2008984,56.270918 26.2135547,56.2814648 L26.295293,56.3491406 C26.3044336,56.3572266 26.3141016,56.3644336 26.323418,56.372168 L26.4065625,56.4387891 C26.4218555,56.450918 26.4373242,56.4630469 26.4531445,56.4746484 L26.5383984,56.5388086 C26.5503516,56.5475977 26.5621289,56.5563867 26.5742578,56.5648242 L26.6598633,56.6259961 C26.6726953,56.6351367 26.6855273,56.6439258 26.6983594,56.6525391 L26.7855469,56.7116016 C26.7994336,56.7207422 26.8133203,56.7300586 26.8273828,56.7390234 L26.915625,56.7954492 C26.9275781,56.802832 26.9393555,56.8103906 26.9514844,56.8174219 L27.040957,56.8715625 C27.0529102,56.8789453 27.0646875,56.8861523 27.0768164,56.8931836 L27.1668164,56.9446875 C27.1843945,56.9550586 27.2021484,56.9649023 27.2199023,56.9743945 L27.3114844,57.0230859 C27.3209766,57.0281836 27.3306445,57.033457 27.3403125,57.0380273 L27.4325977,57.0853125 C27.4487695,57.09375 27.465293,57.1018359 27.4816406,57.1099219 L27.5749805,57.1542187 C27.5881641,57.1603711 27.6013477,57.1661719 27.6145312,57.1726758 L27.662168,57.1939453 C27.6955664,57.2101172 27.7294922,57.2250586 27.7642969,57.2392969 L27.8595703,57.2781445 C27.8683594,57.2818359 27.8767969,57.285 27.8855859,57.2885156 L27.9812109,57.3257813 C27.9954492,57.331582 28.0100391,57.337207 28.0246289,57.3426563 L28.1218359,57.3779883 C28.1371289,57.3834375 28.1529492,57.3890625 28.1687695,57.3941602 L28.2157031,57.4099805 C28.2475195,57.4217578 28.2798633,57.4323047 28.3129102,57.4421484 L28.4104687,57.4718555 C28.4243555,57.4757227 28.4382422,57.480293 28.4523047,57.4838086 L28.5507422,57.5114062 C28.5642773,57.5150977 28.5779883,57.5187891 28.591875,57.5224805 L28.6910156,57.547793 C28.7041992,57.5511328 28.7179102,57.5542969 28.7312695,57.5578125 L28.8304102,57.5804883 C28.8442969,57.5838281 28.8585352,57.5869922 28.8729492,57.5899805 L28.9720898,57.6103711 C28.99125,57.6144141 29.0102344,57.6177539 29.0292187,57.6214453 L29.0782617,57.6298828 C29.1074414,57.6356836 29.1371484,57.6413086 29.1673828,57.6457031 L29.2674023,57.6609961 C29.2823437,57.6636328 29.2974609,57.6653906 29.3124023,57.6675 L29.413125,57.680332 C29.4273633,57.6822656 29.4419531,57.6840234 29.4561914,57.6854297 L29.5038281,57.6905273 C29.535293,57.6945703 29.5667578,57.6982617 29.59875,57.7008984 L29.7001758,57.7093359 C29.7193359,57.710918 29.7383203,57.7123242 29.7573047,57.7130273 L29.8049414,57.7156641 C29.8360547,57.7183008 29.8675195,57.7200586 29.8989844,57.7207617 L30.0004102,57.7241016 C30.0107812,57.7244531 30.0204492,57.7244531 30.0308203,57.7248047 L30.131543,57.7262109 C30.1406836,57.7262109 30.1494727,57.7262109 30.1587891,57.7262109 C30.1679297,57.7262109 30.1767187,57.7262109 30.1860352,57.7262109 L30.2874609,57.7248047 C30.297832,57.7244531 30.3075,57.7244531 30.3178711,57.7241016 L30.4196484,57.7207617 C30.4511133,57.7200586 30.4825781,57.718125 30.5136914,57.7156641 L30.5613281,57.7130273 C30.5808398,57.7119727 30.6001758,57.7107422 30.6196875,57.7091602 L30.7204102,57.7007227 C30.751875,57.6980859 30.7829883,57.6949219 30.8141016,57.6907031 L30.8617383,57.6856055 C30.875625,57.6841992 30.8895117,57.6826172 30.9032227,57.6808594 L31.0046484,57.6676758 C31.0204687,57.6657422 31.0361133,57.6636328 31.051582,57.6611719 L31.1516016,57.6458789 C31.1823633,57.6411328 31.213125,57.6355078 31.2431836,57.6293555 L31.2911719,57.620918 C31.3099805,57.6179297 31.3284375,57.6144141 31.3468945,57.6101953 L31.4456836,57.5898047 C31.4585156,57.587168 31.4713477,57.584707 31.4841797,57.5817187 L31.5841992,57.5586914 C31.6000195,57.555 31.6156641,57.5513086 31.6314844,57.5472656 L31.7299219,57.5219531 C31.7431055,57.5186133 31.7559375,57.5150977 31.7687695,57.5112305 L31.8668555,57.4838086 C31.8803906,57.4801172 31.8942773,57.4760742 31.9074609,57.4720313 L32.0051953,57.4423242 C32.035957,57.432832 32.0667187,57.4228125 32.0967773,57.4119141 L32.1451172,57.3960938 C32.1623437,57.390293 32.1795703,57.3843164 32.1966211,57.3781641 L32.2938281,57.342832 C32.308418,57.3373828 32.3230078,57.3317578 32.3372461,57.325957 L32.4328711,57.2886914 C32.4435937,57.2846484 32.4541406,57.2802539 32.4646875,57.2758594 L32.5592578,57.2370117 C32.589668,57.224707 32.6195508,57.2109961 32.649082,57.1971094 L32.6977734,57.1754883 C32.7135937,57.1686328 32.7292383,57.16125 32.7450586,57.1538672 L32.8380469,57.1095703 C32.8503516,57.1037695 32.8630078,57.0974414 32.8753125,57.0911133 L32.9675977,57.0445313 C32.9973047,57.0295898 33.0268359,57.0137695 33.0554883,56.9972461 L33.1034766,56.971582 C33.1170117,56.9641992 33.1307227,56.9566406 33.1437305,56.9489063 L33.2344336,56.8974023 C33.2490234,56.8889648 33.2632617,56.8805273 33.2775,56.8717383 L33.3669727,56.8175977 C33.3808594,56.8091602 33.3947461,56.8003711 33.4088086,56.791582 L33.4966992,56.7351563 C33.5067187,56.7290039 33.5163867,56.7223242 33.5258789,56.7156445 L33.6137695,56.6569336 C33.6287109,56.6465625 33.6438281,56.636543 33.658418,56.6258203 L33.7440234,56.5646484 C33.7586133,56.5542773 33.7732031,56.5439062 33.7874414,56.532832 L33.8719922,56.4686719 C33.8823633,56.4605859 33.8923828,56.4528516 33.9027539,56.4449414 L33.9858984,56.3790234 C34.0078711,56.3617969 34.0293164,56.3436914 34.0507617,56.3255859 L34.0980469,56.2863867 C34.1145703,56.2728516 34.1310937,56.2589648 34.1467383,56.2449023 L34.2270703,56.1738867 C34.237793,56.1647461 34.2478125,56.1554297 34.2581836,56.1461133 L34.3372852,56.0728125 C34.3490625,56.0620898 34.3603125,56.0511914 34.3717383,56.0401172 L34.4494336,55.964707 C34.4666602,55.9481836 34.4831836,55.9313086 34.4993555,55.9144336 L58.3388086,32.075332 C60.7144922,29.6985938 60.7137891,25.8321094 58.3374023,23.4567773 C57.1897266,22.3091016 55.659375,21.6769922 54.0283008,21.6769922 C52.396875,21.6769922 50.8663477,22.3092773 49.7183203,23.4571289 Z M55.6860937,29.4241992 L31.8160547,53.2935352 C31.8121875,53.2979297 31.8076172,53.3019727 31.80375,53.3058398 L31.629375,53.4610547 C31.6274414,53.4626367 31.6255078,53.4642187 31.6232227,53.4661523 L31.400332,53.6240039 L31.0835742,53.7883594 C31.0828711,53.7887109 31.0816406,53.7890625 31.0809375,53.7894141 L30.8710547,53.8662305 C30.8687695,53.8669336 30.8666602,53.8678125 30.8645508,53.8685156 L30.5407617,53.9442773 C30.5370703,53.9449805 30.5330273,53.9456836 30.5289844,53.9465625 L30.3667383,53.9658984 C30.3628711,53.9666016 30.3586523,53.9669531 30.3549609,53.9674805 L30.2630273,53.9729297 C30.2591602,53.9729297 30.255293,53.9732812 30.25125,53.9736328 L30.1582617,53.9755664 L30.099375,53.9745117 L30.0659766,53.9738086 C30.0621094,53.973457 30.0578906,53.9731055 30.0540234,53.9731055 L29.960332,53.9676562 C29.9569922,53.9673047 29.9534766,53.9669531 29.9496094,53.9660742 L29.7882422,53.9467383 C29.7834961,53.9460352 29.7791016,53.9448047 29.7743555,53.9441016 L29.4516211,53.8686914 C29.4512695,53.8686914 29.4505664,53.8683398 29.4500391,53.8683398 L29.2659961,53.8017187 L28.9137305,53.6222461 L28.5895898,53.3782617 L19.5491602,44.3427539 C18.6354492,43.4286914 18.6354492,41.9407031 19.5491602,41.0266406 C19.9886133,40.5871875 20.5774805,40.3451367 21.2074805,40.3451367 C21.8369531,40.3451367 22.4258203,40.5871875 22.8654492,41.0262891 L28.8325195,46.9940625 C29.184082,47.3459766 29.6609766,47.5433789 30.1580859,47.5433789 C30.6551953,47.5433789 31.1320898,47.3459766 31.4841797,46.9944141 L52.3705078,26.1086133 C52.8099609,25.6691602 53.3988281,25.4271094 54.0279492,25.4271094 C54.6574219,25.4271094 55.2459375,25.6691602 55.685918,26.1089648 C56.5994531,27.0228516 56.5998047,28.5101367 55.6860937,29.4241992 Z" id="Shape" fill="#4DAF51"></path></g></g></g></svg> 