<?xml version="1.0" encoding="UTF-8"?>
<svg width="199px" height="113px" viewBox="0 0 199 113" version="1.1" xmlns="http://www.w3.org/2000/svg" xmlns:xlink="http://www.w3.org/1999/xlink">
    <!-- Generator: Sketch 57.1 (83088) - https://sketch.com -->
    <title>Group 25 Copy</title>
    <desc>Created with Sketch.</desc>
    <defs>
        <polygon id="path-1" points="0.0256518272 0.131298422 68.5768545 0.131298422 68.5768545 37.5043521 0.0256518272 37.5043521"></polygon>
        <polygon id="path-3" points="0.222238704 0.106870809 68.7741025 0.106870809 68.7741025 37.4800904 0.222238704 37.4800904"></polygon>
    </defs>
    <g id="Page-1" stroke="none" stroke-width="1" fill="none" fill-rule="evenodd">
        <g id="Homepage--" transform="translate(-114.000000, -29.000000)">
            <g id="Group-25-Copy" transform="translate(114.000000, 29.000000)">
                <polygon id="Fill-1" fill="#FFFFFF" points="184.759474 43.5955563 171.024252 77.726357 170.91462 78 170.622268 78 163.618448 78 162.964975 78 163.220118 77.3954555 166.960893 68.5646442 157.230227 43.5922273 157 43 157.63354 43 164.828386 43 165.136352 43 165.236682 43.2902879 171.148169 60.0564121 177.114141 43.2902879 177.218125 43 177.523101 43 184.35749 43 185 43"></polygon>
                <g id="Group-24">
                    <path d="M154.402315,50.6870987 L154.181498,50.6870987 L154.132905,50.6870987 L154.075386,50.6721633 C153.653586,50.5629692 153.153441,50.4809907 152.584539,50.4292148 L152.582556,50.4292148 C152.013654,50.3754475 151.354508,50.3479 150.61272,50.3479 C149.467974,50.3479 148.368847,50.4391717 147.319964,50.6200555 C146.375541,50.782685 145.463843,51.0226465 144.589169,51.3372848 L144.589169,68.5109591 L144.589169,68.9434207 L144.158112,68.9434207 L137.555081,68.9434207 L137.124024,68.9434207 L137.124024,68.5109591 L137.124024,43.4932329 L137.124024,43.0594436 L137.555081,43.0594436 L144.158112,43.0594436 L144.589169,43.0594436 L144.589169,43.4932329 L144.589169,47.0763921 C145.336906,46.4265379 146.031092,45.8639726 146.669744,45.3920152 C147.523592,44.7610792 148.290833,44.2801605 148.965847,43.9568929 L148.967169,43.9592162 C149.647471,43.6329615 150.323807,43.386694 150.991217,43.2260559 C151.668214,43.0620988 152.339921,42.9791246 153.00039,42.9791246 L153.613257,42.9914048 L153.616562,42.9914048 L154.419504,43.0232669 L154.834363,43.0401936 L154.834363,43.4550648 L154.834363,50.2536413 L154.834363,50.6870987 L154.402315,50.6870987 Z" id="Fill-2" fill="#FFFFFF"></path>
                    <path d="M120.621437,47.7745704 C118.818537,47.7745704 117.467188,48.4413514 116.573671,49.7702666 C115.644784,51.153613 115.178027,53.2608266 115.178027,56.0865969 C115.178027,58.8579362 115.649412,60.9233308 116.590199,62.2764745 L116.592513,62.2764745 C117.498922,63.5818251 118.874071,64.235994 120.710028,64.235994 C122.4845,64.235994 123.814362,63.5831527 124.69102,62.2811211 L124.693334,62.2811211 C125.606354,60.9263179 126.065178,58.8602595 126.065178,56.0865969 C126.065178,53.2608266 125.598751,51.153613 124.669533,49.7702666 C123.776017,48.4413514 122.424668,47.7745704 120.621437,47.7745704 M120.621437,69.7185992 C118.548465,69.7185992 116.7016,69.4169049 115.084146,68.8155077 C113.455123,68.2094639 112.055181,67.2950879 110.88994,66.074371 C109.72536,64.8602921 108.852339,63.4075792 108.274181,61.7248618 L108.275173,61.7248618 C107.700321,60.0521014 107.412729,58.1496682 107.412729,56.0275193 C107.412729,53.8917626 107.703626,51.9813639 108.284759,50.303625 C108.869198,48.6126102 109.748169,47.1572422 110.91903,45.9365253 L110.921344,45.9345339 C112.096171,44.7164722 113.497105,43.8020962 115.123483,43.1927334 C116.738953,42.5886811 118.572596,42.2849954 120.621437,42.2849954 C124.774983,42.2849954 128.014518,43.5030571 130.346983,45.9365253 C131.514208,47.1592336 132.388551,48.6149335 132.968693,50.3049526 C133.542884,51.9800363 133.831797,53.890435 133.831797,56.0275193 C133.831797,58.1496682 133.542884,60.0521014 132.967701,61.7248618 C132.386238,63.4089068 131.511894,64.8612878 130.346983,66.074371 C129.178106,67.2940922 127.776842,68.2094639 126.147819,68.8155077 C124.531357,69.4169049 122.686475,69.7185992 120.621437,69.7185992" id="Fill-4" fill="#FFFFFF"></path>
                    <path d="M82.5817935,67.3235978 L82.5817935,61.1894789 L82.5817935,60.7560215 L83.0135111,60.7560215 L83.2782935,60.7560215 L83.4290311,60.7560215 L83.5480344,60.8526035 C84.9932636,62.0228721 86.4794829,62.9040584 88.000742,63.4875332 C89.513737,64.0686847 91.0667304,64.360754 92.6557553,64.360754 C94.2480859,64.360754 95.429855,64.1516589 96.1941208,63.7354602 C96.8760759,63.3647313 97.2182105,62.8097997 97.2182105,62.0739842 C97.2182105,61.7679753 97.1659812,61.5044491 97.0641673,61.2873885 C96.9653284,61.0756383 96.8145909,60.8950864 96.6159214,60.7473922 C96.3924596,60.58078 96.0648699,60.4181505 95.6400942,60.2638184 C95.1971374,60.1018527 94.6460859,59.9458612 93.9945427,59.8008222 C93.5380327,59.714529 92.9559081,59.5947142 92.2514746,59.4456925 L92.2494912,59.4456925 C91.6022453,59.3082872 90.8525244,59.141343 89.9986756,58.9491747 C89.1240012,58.7543512 88.3392404,58.5157173 87.6450543,58.2392472 L87.6450543,58.2405748 C86.9356623,57.9584624 86.3161839,57.6305482 85.7938915,57.2681168 L85.7905859,57.2661254 C85.2729214,56.9010388 84.8177337,56.4944651 84.4326257,56.0513827 C84.0461955,55.6076365 83.7235643,55.119748 83.472335,54.5943552 L83.4710128,54.5956828 C83.2184613,54.0746046 83.0283865,53.5127031 82.9011191,52.9103102 C82.7778184,52.3132277 82.71435,51.6786407 82.71435,51.0135193 C82.71435,49.7274187 82.9963218,48.5558226 83.5582819,47.5037094 C84.1166058,46.4575703 84.9512819,45.5319098 86.059335,44.7346934 C87.1554879,43.9444468 88.4400626,43.3506832 89.9024812,42.958381 C91.3543218,42.5693978 92.9899563,42.3739106 94.8077321,42.3739106 C96.4060128,42.3739106 97.9282636,42.5146348 99.3701872,42.7970791 C100.813102,43.0778639 102.183624,43.5030239 103.476794,44.0708995 L103.736617,44.1847402 L103.736617,44.4665206 L103.736617,50.2982814 L103.736617,50.7314069 L103.30523,50.7314069 L103.13499,50.7314069 L102.999127,50.7314069 L102.885744,50.650756 C101.475554,49.6451083 100.087182,48.8890471 98.7292221,48.3885466 C97.3848151,47.8926926 96.0618949,47.6427742 94.7634364,47.6427742 C94.0963566,47.6427742 93.4848118,47.7041751 92.9367354,47.8266451 C92.4002287,47.946128 91.9126457,48.1293351 91.4848949,48.3683009 L91.4825809,48.3689646 C91.074664,48.5956502 90.7698832,48.8459005 90.577164,49.1140732 C90.4016341,49.359677 90.3110593,49.6341557 90.3110593,49.929544 C90.3110593,50.3105616 90.3725444,50.6311741 90.4902254,50.8893899 L90.4902254,50.8907175 C90.5999729,51.1339979 90.7698832,51.3341317 90.9930145,51.4878 C91.2571357,51.6647011 91.6177819,51.8412702 92.0736307,52.0072187 C92.5347686,52.1754904 93.1000344,52.3391156 93.7657919,52.4941115 C94.6424497,52.653422 95.5052238,52.8286636 96.3551058,53.0148578 C97.2158965,53.2033752 98.085943,53.4128022 98.9612786,53.6401516 C99.8604148,53.8748027 100.669307,54.202053 101.37936,54.6149328 C102.094041,55.0311315 102.716164,55.541589 103.239448,56.1413267 C103.771657,56.7473705 104.17131,57.4453498 104.435762,58.2246437 C104.699553,59.0012825 104.830787,59.8612274 104.830787,60.7981725 C104.830787,62.142355 104.544187,63.3590891 103.976607,64.4397455 C103.410681,65.5177467 102.560799,66.4616615 101.4382,67.2631926 C100.323867,68.0557624 99.0125161,68.6531769 97.5163799,69.0484661 C96.032144,69.4397726 94.3571723,69.6365875 92.5013816,69.6365875 C88.8284762,69.6365875 85.6094364,68.9950307 82.834345,67.7159 L82.5817935,67.600068 L82.5817935,67.3235978 Z" id="Fill-6" fill="#FFFFFF"></path>
                    <path d="M78.0716998,68.9435203 L71.4171002,68.9435203 L70.9857131,68.9435203 L70.9857131,68.5107267 L70.9857131,56.0503206 C70.9857131,52.6739332 70.6412646,50.6019008 69.9536899,49.8441801 C69.6188277,49.4780978 69.173557,49.2029552 68.6238277,49.0174248 C68.0489756,48.8242608 67.3511533,48.7266831 66.5346583,48.7266831 C65.2299191,48.7266831 63.6461832,49.3038519 61.7808061,50.456198 L61.7808061,68.5107267 L61.7808061,68.9435203 L61.3490885,68.9435203 L54.7467181,68.9435203 L54.3153311,68.9435203 L54.3153311,68.5107267 L54.3153311,43.4930006 L54.3153311,43.0595432 L54.7467181,43.0595432 L61.3490885,43.0595432 L61.7808061,43.0595432 L61.7808061,43.4930006 L61.7808061,46.0904259 C62.5487081,45.4797356 63.2564473,44.9540108 63.9023709,44.5165707 C64.7449806,43.9453761 65.4923875,43.5145739 66.1402945,43.2304701 C66.7812596,42.9470302 67.4450337,42.7316291 68.1213693,42.5899091 C68.8010105,42.4455339 69.4942048,42.3738442 70.1920271,42.3738442 C72.9486068,42.3738442 75.0291816,43.1979442 76.4281317,44.8428254 C77.8098925,46.466797 78.5030869,48.8776962 78.5030869,52.0675576 L78.5030869,68.5107267 L78.5030869,68.9435203 L78.0716998,68.9435203 Z" id="Fill-8" fill="#FFFFFF"></path>
                    <path d="M42.5463322,52.8510666 C42.4696412,51.0203232 42.0537907,49.6386363 41.3050615,48.7136396 C40.5212924,47.7451644 39.3398538,47.2595992 37.7610764,47.2595992 C34.5205498,47.2595992 32.7298804,49.124528 32.3943571,52.8510666 L42.5463322,52.8510666 Z M49.5916595,57.470408 L32.3943571,57.470408 C32.592696,59.6257466 33.3153106,61.2550286 34.554598,62.3522798 C35.8900797,63.5341647 37.8483455,64.125605 40.4260897,64.125605 C41.7866944,64.125605 43.1489518,63.8780099 44.5118704,63.385143 C45.884706,62.8879614 47.2684502,62.1385382 48.6594668,61.1391965 L48.7728505,61.0585456 L48.9083821,61.0585456 L49.1427525,61.0585456 L49.5744701,61.0585456 L49.5744701,61.4916711 L49.5744701,67.2348154 L49.5744701,67.5328588 L49.295804,67.6393977 C47.5947176,68.2942304 45.9342907,68.7890887 44.3227874,69.1179985 C42.7050033,69.4492317 41.1397791,69.6151801 39.6330648,69.6151801 C37.2546512,69.6151801 35.1525897,69.3274255 33.330186,68.7575585 C31.4896013,68.1810535 29.9286744,67.3108198 28.6533555,66.1534952 C27.3747309,64.9888689 26.4141096,63.5683501 25.7787641,61.897581 C25.1477159,60.2387602 24.8307043,58.3290253 24.8307043,56.1753462 C24.8307043,54.0385938 25.1298654,52.122221 25.7275266,50.4322019 C26.3278322,48.7332215 27.2342409,47.2582716 28.441794,46.0156495 C29.6453804,44.7723637 31.0826761,43.8354186 32.7467392,43.2141076 C34.3982409,42.5957836 36.2725432,42.2847962 38.3623738,42.2847962 C42.2303123,42.2847962 45.1435797,43.3312672 47.0998621,45.4202264 C49.0488721,47.501552 50.0230465,50.5984822 50.0230465,54.7083618 L50.0230465,57.0372825 L50.0230465,57.470408 L49.5916595,57.470408 Z" id="Fill-10" fill="#FFFFFF"></path>
                    <path d="M0,67.3235978 L0,61.1894789 L0,60.7560215 L0.431717608,60.7560215 L0.6965,60.7560215 L0.847237542,60.7560215 L0.965910299,60.8526035 C2.4114701,62.0228721 3.8973588,62.9040584 5.4189485,63.4875332 C6.93194352,64.0686847 8.48460631,64.360754 10.0736312,64.360754 C11.6662924,64.360754 12.8474003,64.1516589 13.6119967,63.7354602 C14.2942824,63.3647313 14.6360864,62.8097997 14.6360864,62.0739842 C14.6360864,61.7679753 14.5841877,61.5044491 14.4823738,61.2873885 C14.3835349,61.0756383 14.2331279,60.8950864 14.0334668,60.7473922 C13.8106661,60.58078 13.4830764,60.4181505 13.0586312,60.2638184 C12.6156744,60.1018527 12.0639618,59.9458612 11.4124186,59.8008222 C10.9559086,59.714529 10.3737841,59.5947142 9.6693505,59.4456925 L9.66736711,59.4456925 C9.02045183,59.3082872 8.2707309,59.141343 7.4165515,58.9491747 C6.54220764,58.7543512 5.75744684,58.5157173 5.06259967,58.2392472 L5.06259967,58.2405748 C4.35386877,57.9584624 3.7340598,57.6305482 3.21209801,57.2681168 L3.20879236,57.2661254 C2.69112791,56.9010388 2.2359402,56.4944651 1.85050166,56.0513827 C1.46440199,55.6076365 1.14177076,55.119748 0.890210963,54.5943552 L0.889219269,54.5956828 C0.636337209,54.0746046 0.446262458,53.5127031 0.319325581,52.9103102 C0.195694352,52.3132277 0.132556478,51.6786407 0.132556478,51.0135193 C0.132556478,49.7274187 0.414528239,48.5558226 0.976488372,47.5037094 C1.53481229,46.4575703 2.36948837,45.5319098 3.4768804,44.7346934 C4.57336379,43.9444468 5.85793854,43.3506832 7.32035714,42.958381 C8.77252824,42.5693978 10.4081628,42.3739106 12.2259385,42.3739106 C13.8238887,42.3739106 15.3464701,42.5146348 16.7883937,42.7970791 C18.231309,43.0778639 19.6015,43.5030239 20.8953306,44.0708995 L21.1544934,44.1847402 L21.1544934,44.4665206 L21.1544934,50.2982814 L21.1544934,50.7314069 L20.7231063,50.7314069 L20.553196,50.7314069 L20.4170033,50.7314069 L20.3039502,50.650756 C18.8937608,49.6451083 17.5050581,48.8890471 16.147098,48.3885466 C14.8023605,47.8926926 13.4797708,47.6427742 12.1816429,47.6427742 C11.5145631,47.6427742 10.9030183,47.7041751 10.3546113,47.8266451 C9.81777409,47.946128 9.33085216,48.1293351 8.90277076,48.3683009 L8.90045681,48.3689646 C8.49287043,48.5956502 8.18775914,48.8459005 7.99503987,49.1140732 C7.81984053,49.359677 7.72926578,49.6341557 7.72926578,49.929544 C7.72926578,50.3105616 7.7900897,50.6311741 7.90777076,50.8893899 L7.90777076,50.8907175 C8.01784884,51.1339979 8.18775914,51.3341317 8.41089037,51.4878 C8.67501163,51.6647011 9.03631894,51.8412702 9.49150664,52.0072187 C9.95264452,52.1754904 10.5175797,52.3391156 11.1839983,52.4941115 C12.0606561,52.653422 12.9237608,52.8286636 13.7729817,53.0148578 C14.634103,53.2033752 15.5038189,53.4128022 16.3791545,53.6401516 C17.2786213,53.8748027 18.0871827,54.202053 18.7975664,54.6149328 C19.5122475,55.0311315 20.1340399,55.541589 20.6573239,56.1413267 C21.1898638,56.7473705 21.5895166,57.4453498 21.8533073,58.2246437 C22.117098,59.0012825 22.2486628,59.8612274 22.2486628,60.7981725 C22.2486628,62.142355 21.9620631,63.3590891 21.3944834,64.4397455 C20.8282259,65.5177467 19.979005,66.4616615 18.8560764,67.2631926 C17.7420731,68.0557624 16.430392,68.6531769 14.9339252,69.0484661 C13.4500199,69.4397726 11.7750482,69.6365875 9.91958804,69.6365875 C6.24635216,69.6365875 3.02764286,68.9950307 0.252551495,67.7159 L0,67.600068 L0,67.3235978 Z" id="Fill-12" fill="#FFFFFF"></path>
                    <g id="Group-16" transform="translate(28.098007, 74.676807)">
                        <mask id="mask-2" fill="white">
                            <use xlink:href="#path-1"></use>
                        </mask>
                        <g id="Clip-15"></g>
                        <path d="M68.5768545,0.131298422 C67.9653096,55.7246965 39.7453246,43.1285446 0.0256518272,2.54087007 C33.2550156,32.0249331 61.2330272,50.2052507 61.0994791,0.131298422 L68.5768545,0.131298422 Z" id="Fill-14" fill="#0081C5" mask="url(#mask-2)"></path>
                    </g>
                    <g id="Group-19" transform="translate(90.574751, 0.000000)">
                        <mask id="mask-4" fill="white">
                            <use xlink:href="#path-3"></use>
                        </mask>
                        <g id="Clip-18"></g>
                        <path d="M0.222238704,37.4800904 C0.83411412,-18.1136396 29.0537686,-5.51715571 68.7741025,35.0701869 C35.5447387,5.58645579 7.56672708,-12.5941938 7.69961412,37.4800904 L0.222238704,37.4800904 Z" id="Fill-17" fill="#0081C5" mask="url(#mask-4)"></path>
                    </g>
                    <path d="M189.243314,38.2503568 L189.243314,33.3107349 L187.404713,33.3107349 L187.404713,32.2745528 L192.237901,32.2745528 L192.237901,33.3107349 L190.448553,33.3107349 L190.448553,38.2503568 L189.243314,38.2503568 Z M192.956879,38.2503568 L192.956879,32.2745528 L194.840107,32.2745528 L195.921715,36.3900746 L197.01357,32.2745528 L198.896467,32.2745528 L198.896467,38.2503568 L197.747754,38.2503568 L197.747754,33.4853127 L196.459874,38.2503568 L195.370994,38.2503568 L194.090716,33.4853127 L194.090716,38.2503568 L192.956879,38.2503568 Z" id="Fill-20" fill="#FFFFFF"></path>
                    <path d="M189.243314,38.2503568 L189.243314,33.3107349 L187.404713,33.3107349 L187.404713,32.2745528 L192.237901,32.2745528 L192.237901,33.3107349 L190.448553,33.3107349 L190.448553,38.2503568 L189.243314,38.2503568 Z M192.956879,38.2503568 L192.956879,32.2745528 L194.840107,32.2745528 L195.921715,36.3900746 L197.01357,32.2745528 L198.896467,32.2745528 L198.896467,38.2503568 L197.747754,38.2503568 L197.747754,33.4853127 L196.459874,38.2503568 L195.370994,38.2503568 L194.090716,33.4853127 L194.090716,38.2503568 L192.956879,38.2503568 Z" id="Stroke-22"></path>
                </g>
            </g>
        </g>
    </g>
</svg>